<?xml version="1.0" encoding="iso-8859-1"?>
<!-- Generator: Adobe Illustrator 16.0.0, SVG Export Plug-In . SVG Version: 6.00 Build 0)  -->
<!DOCTYPE svg PUBLIC "-//W3C//DTD SVG 1.1//EN" "http://www.w3.org/Graphics/SVG/1.1/DTD/svg11.dtd">
<svg version="1.1" id="Capa_1" xmlns="http://www.w3.org/2000/svg" xmlns:xlink="http://www.w3.org/1999/xlink" x="0px" y="0px"
	 width="472.269px" height="472.269px" viewBox="0 0 472.269 472.269" style="enable-background:new 0 0 472.269 472.269;"
	 xml:space="preserve">
<g>
	<path d="M236.134,1.489C105.952,1.489,0.07,90.439,0,199.801l0,0v96.091c0,104.604,122.096,174.887,236.134,174.887h11.654
		l0.117-11.641c0.233-24.277,0.35-48.671,0.42-71.604h-0.444v-0.864c0.374-35.826,0.467-71.908,0.444-103.086l223.943,6.609v-78.195
		v-6.23v-5.874C472.269,90.486,366.357,1.489,236.134,1.489z M236.134,25.006c112.287,0,204.512,71.984,212.103,162.779
		l-223.979-6.352l0.122,12.208c0.012,0.934,0.882,90.036,0.117,180.896c-111.85-4.986-200.98-81.4-200.98-174.643
		C23.518,103.459,118.89,25.006,236.134,25.006z M23.518,295.893V285.64c36.602,63.827,112.497,108.62,201.243,112.193
		c-0.047,16.021-0.128,32.485-0.263,49.149C136.622,442.65,23.518,390.406,23.518,295.893z M448.751,265.963l-200.473-5.919
		c-0.082-23.605-0.198-42.82-0.28-54.416l200.753,5.699V265.963z"/>
</g>
<g>
</g>
<g>
</g>
<g>
</g>
<g>
</g>
<g>
</g>
<g>
</g>
<g>
</g>
<g>
</g>
<g>
</g>
<g>
</g>
<g>
</g>
<g>
</g>
<g>
</g>
<g>
</g>
<g>
</g>
</svg>
