<?xml version="1.0" encoding="iso-8859-1"?>
<!-- Generator: Adobe Illustrator 16.0.0, SVG Export Plug-In . SVG Version: 6.00 Build 0)  -->
<!DOCTYPE svg PUBLIC "-//W3C//DTD SVG 1.1//EN" "http://www.w3.org/Graphics/SVG/1.1/DTD/svg11.dtd">
<svg version="1.1" id="Capa_1" xmlns="http://www.w3.org/2000/svg" xmlns:xlink="http://www.w3.org/1999/xlink" x="0px" y="0px"
	 width="408.558px" height="408.558px" viewBox="0 0 408.558 408.558" style="enable-background:new 0 0 408.558 408.558;"
	 xml:space="preserve">
<g>
	<g>
		<path d="M203.684,168.968c22.887,0,41.442,18.555,41.442,41.448c0,22.887-18.555,41.441-41.442,41.441
			c-22.893,0-41.448-18.555-41.448-41.441C162.236,187.522,180.791,168.968,203.684,168.968z"/>
		<path d="M140.236,210.416c0-1.751,0.368-3.386,0.514-5.097L0,233.314C8.11,310.033,58.783,374.14,127.847,401.78l61.784-129.604
			C161.413,265.753,140.236,240.554,140.236,210.416z"/>
		<path d="M203.684,146.968c14.841,0,28.317,5.331,39.154,13.908l42.972-136.78C260.632,13.02,232.888,6.778,203.684,6.778
			c-50.86,0-97.323,18.724-133.183,49.517l83.293,115.375C165.417,156.748,183.342,146.968,203.684,146.968z"/>
		<path d="M406.363,183.354l-142.285,8.583c1.787,5.885,3.06,12.01,3.06,18.479c0,28.247-18.672,51.939-44.198,60.148
			l94.188,111.517c55.058-36.76,91.432-99.407,91.432-170.451C408.546,202.02,407.636,192.62,406.363,183.354z"/>
	</g>
</g>
<g>
</g>
<g>
</g>
<g>
</g>
<g>
</g>
<g>
</g>
<g>
</g>
<g>
</g>
<g>
</g>
<g>
</g>
<g>
</g>
<g>
</g>
<g>
</g>
<g>
</g>
<g>
</g>
<g>
</g>
</svg>
