<?xml version="1.0" encoding="iso-8859-1"?>
<!-- Generator: Adobe Illustrator 16.0.0, SVG Export Plug-In . SVG Version: 6.00 Build 0)  -->
<!DOCTYPE svg PUBLIC "-//W3C//DTD SVG 1.1//EN" "http://www.w3.org/Graphics/SVG/1.1/DTD/svg11.dtd">
<svg version="1.1" id="Capa_1" xmlns="http://www.w3.org/2000/svg" xmlns:xlink="http://www.w3.org/1999/xlink" x="0px" y="0px"
	 width="501.391px" height="501.391px" viewBox="0 0 501.391 501.391" style="enable-background:new 0 0 501.391 501.391;"
	 xml:space="preserve">
<g>
	<g>
		<path d="M250.684,0C112.457,0,0,112.462,0,250.684c0,138.233,112.457,250.707,250.684,250.707
			c138.233,0,250.707-112.474,250.707-250.707C501.391,112.444,388.917,0,250.684,0z M250.684,476.496
			c-124.496,0-225.789-101.299-225.789-225.8c0-124.495,101.293-225.788,225.789-225.788c124.501,0,225.788,101.293,225.788,225.788
			C476.472,375.185,375.185,476.496,250.684,476.496z"/>
		<path d="M250.696,208.021c22.898,0,41.441,18.555,41.441,41.442c0,22.893-18.543,41.448-41.441,41.448
			c-22.887,0-41.442-18.555-41.442-41.448C209.253,226.577,227.809,208.021,250.696,208.021z"/>
		<path d="M187.242,249.463c0-1.746,0.368-3.38,0.514-5.091L47.018,272.38c8.104,76.719,58.782,140.803,127.847,168.454
			l61.783-129.592C208.418,304.807,187.242,279.608,187.242,249.463z"/>
		<path d="M250.684,186.022c14.854,0,28.328,5.331,39.165,13.901l42.96-136.774c-25.164-11.064-52.909-17.317-82.125-17.317
			c-50.842,0-97.317,18.724-133.178,49.517l83.293,115.375C212.436,195.801,230.36,186.022,250.684,186.022z"/>
		<path d="M453.375,222.408l-142.274,8.583c1.787,5.885,3.06,12.01,3.06,18.473c0,28.241-18.672,51.946-44.209,60.144l94.2,111.527
			c55.057-36.771,91.42-99.406,91.42-170.45C455.547,241.074,454.66,231.673,453.375,222.408z"/>
	</g>
</g>
<g>
</g>
<g>
</g>
<g>
</g>
<g>
</g>
<g>
</g>
<g>
</g>
<g>
</g>
<g>
</g>
<g>
</g>
<g>
</g>
<g>
</g>
<g>
</g>
<g>
</g>
<g>
</g>
<g>
</g>
</svg>
