<?xml version="1.0" encoding="iso-8859-1"?>
<!-- Generator: Adobe Illustrator 16.0.0, SVG Export Plug-In . SVG Version: 6.00 Build 0)  -->
<!DOCTYPE svg PUBLIC "-//W3C//DTD SVG 1.1//EN" "http://www.w3.org/Graphics/SVG/1.1/DTD/svg11.dtd">
<svg version="1.1" id="Capa_1" xmlns="http://www.w3.org/2000/svg" xmlns:xlink="http://www.w3.org/1999/xlink" x="0px" y="0px"
	 width="580.095px" height="580.096px" viewBox="0 0 580.095 580.096" style="enable-background:new 0 0 580.095 580.096;"
	 xml:space="preserve">
<g>
	<g>
		<path d="M523.937,55.419l6.62-10.176c6.668,1.903,14.06-0.572,18.029-6.697c4.894-7.52,2.733-17.551-4.775-22.443
			c-7.508-4.864-17.551-2.738-22.432,4.788c-3.982,6.107-3.223,13.878,1.238,19.179l-6.505,10.019
			c-27.161-17.948-54.438-29.023-72.118-29.023c-8.045,0-13.708,2.277-16.791,6.761c-0.747,1.086-1.285,2.242-1.693,3.491
			c-5.43,11.31-14.818,44.788,36.001,85.267l-18.03,74.144h97.715v-15.91h-68.884l15.554-40.169
			c70.53,41.518,90.265-3.539,90.265-3.539s-0.047,0.047-0.105,0.105C588.231,114.838,559.19,80.531,523.937,55.419z
			 M573.401,128.792c-2.546,3.696-8.174,4.461-12.424,4.461c-17.435,0-46.405-12.232-73.858-31.161
			c-18.239-12.605-32.403-25.543-42.072-37.069c-7.321-9.277-11.537-17.008-13.966-22.986c-1.425-4.706-1.309-8.571,0.502-11.163
			c2.534-3.719,8.15-4.473,12.424-4.473c16.441,0,43.206,10.988,69.234,28.148l-23.764,36.613l7.941,5.15l23.646-36.444
			C561.245,88.495,580.618,118.318,573.401,128.792z"/>
		<path d="M348.558,164.629l8.548-13.143c8.617,2.452,18.17-0.753,23.296-8.659c6.317-9.721,3.538-22.671-6.154-28.971
			c-9.727-6.3-22.688-3.527-28.982,6.16c-5.138,7.899-4.181,17.936,1.588,24.796l-8.407,12.938
			c-35.078-23.173-70.308-37.472-93.154-37.472c-10.404,0-17.685,2.913-21.69,8.717c-0.958,1.384-1.676,2.902-2.189,4.507
			c-7.018,14.62-19.156,57.86,46.516,110.139l-23.295,95.805h126.241v-20.563h-88.98l20.096-51.887
			c91.104,53.627,116.607-4.583,116.607-4.583s-0.058,0.059-0.151,0.134C431.618,241.359,394.087,197.08,348.558,164.629z
			 M412.444,259.389c-3.293,4.758-10.557,5.762-16.057,5.762c-22.513,0-59.949-15.816-95.39-40.262
			c-23.564-16.272-41.851-33-54.346-47.876c-9.446-12.004-14.911-21.964-18.053-29.689c-1.833-6.084-1.687-11.058,0.654-14.421
			c3.275-4.782,10.538-5.774,16.038-5.774c21.259,0,55.799,14.205,89.43,36.374l-30.699,47.281l10.264,6.662l30.536-47.064
			C396.738,207.338,421.762,245.867,412.444,259.389z"/>
		<path d="M170.138,342.67l10.93-16.804c11.035,3.142,23.278-0.957,29.858-11.093c8.068-12.448,4.53-29.041-7.894-37.116
			c-12.436-8.057-29.046-4.519-37.116,7.905c-6.574,10.118-5.342,22.975,2.032,31.756L157.188,333.9
			c-44.934-29.683-90.065-48.028-119.311-48.028c-13.307,0-22.66,3.754-27.774,11.204c-1.231,1.769-2.143,3.731-2.802,5.751
			c-8.992,18.73-24.522,74.126,59.559,141.095l-29.829,122.68h161.675v-26.344H84.749l25.736-66.432
			c116.678,68.686,149.356-5.873,149.356-5.873s-0.082,0.082-0.192,0.163C276.51,440.968,228.454,384.253,170.138,342.67z
			 M251.948,464.065c-4.221,6.107-13.499,7.392-20.54,7.392c-28.843,0-76.789-20.249-122.184-51.578
			c-30.179-20.843-53.615-42.247-69.613-61.316c-12.103-15.379-19.098-28.13-23.115-38.032c-2.353-7.789-2.148-14.165,0.841-18.473
			c4.204-6.136,13.487-7.403,20.54-7.403c27.213,0,71.481,18.193,114.541,46.591l-39.305,60.558l13.131,8.524l39.112-60.277
			C231.863,397.39,263.893,446.736,251.948,464.065z"/>
	</g>
</g>
<g>
</g>
<g>
</g>
<g>
</g>
<g>
</g>
<g>
</g>
<g>
</g>
<g>
</g>
<g>
</g>
<g>
</g>
<g>
</g>
<g>
</g>
<g>
</g>
<g>
</g>
<g>
</g>
<g>
</g>
</svg>
