<?xml version="1.0" encoding="iso-8859-1"?>
<!-- Generator: Adobe Illustrator 16.0.0, SVG Export Plug-In . SVG Version: 6.00 Build 0)  -->
<!DOCTYPE svg PUBLIC "-//W3C//DTD SVG 1.1//EN" "http://www.w3.org/Graphics/SVG/1.1/DTD/svg11.dtd">
<svg version="1.1" id="Capa_1" xmlns="http://www.w3.org/2000/svg" xmlns:xlink="http://www.w3.org/1999/xlink" x="0px" y="0px"
	 width="548.894px" height="548.894px" viewBox="0 0 548.894 548.894" style="enable-background:new 0 0 548.894 548.894;"
	 xml:space="preserve">
<g>
	<g>
		<path d="M454.169,189.367c0-45.494-77.256-79.801-179.722-79.801S94.713,143.874,94.713,189.367
			c0,33.829,42.785,61.451,106.852,73.396v39.312h-31.056v-26.566h-47.742v90.603h47.742v-40.123h31.056v113.338h148.597V325.989
			h28.224v45.506h47.759v-90.614h-47.759v21.194h-28.224V262.18C412.622,249.948,454.169,222.682,454.169,189.367z M120.712,192.754
			c0-28.282,62.332-58.567,155.147-58.567c85.687,0,145.264,25.824,153.928,52.051c0.198,1.051,0.49,2.102,0.49,3.141
			c0,26.379-66.641,55.881-155.819,55.881c-77.296,0-137.556-22.157-152.293-45.237
			C121.284,197.594,120.712,195.183,120.712,192.754z M338.204,427.358H213.521V264.714c18.894,2.832,39.305,4.449,60.925,4.449
			c22.712,0,44.082-1.769,63.757-4.893V427.358z"/>
		<rect y="275.509" width="47.748" height="90.603"/>
		<rect x="62.355" y="275.509" width="47.748" height="90.603"/>
		<rect x="440.74" y="280.869" width="47.76" height="90.614"/>
		<rect x="501.157" y="280.869" width="47.736" height="90.614"/>
	</g>
</g>
<g>
</g>
<g>
</g>
<g>
</g>
<g>
</g>
<g>
</g>
<g>
</g>
<g>
</g>
<g>
</g>
<g>
</g>
<g>
</g>
<g>
</g>
<g>
</g>
<g>
</g>
<g>
</g>
<g>
</g>
</svg>
