<?xml version="1.0" encoding="iso-8859-1"?>
<!-- Generator: Adobe Illustrator 16.0.0, SVG Export Plug-In . SVG Version: 6.00 Build 0)  -->
<!DOCTYPE svg PUBLIC "-//W3C//DTD SVG 1.1//EN" "http://www.w3.org/Graphics/SVG/1.1/DTD/svg11.dtd">
<svg version="1.1" id="Capa_1" xmlns="http://www.w3.org/2000/svg" xmlns:xlink="http://www.w3.org/1999/xlink" x="0px" y="0px"
	 width="532.854px" height="532.854px" viewBox="0 0 532.854 532.854" style="enable-background:new 0 0 532.854 532.854;"
	 xml:space="preserve">
<g>
	<g>
		<polygon points="316.298,331.79 266.267,432.866 315.422,512.797 316.298,479.226 411.442,478.548 473.46,370.278 
			316.928,370.722 		"/>
		<path d="M285.599,366.494H112.853l-2.008,0.163c-1.576,0.27-38.669,7.311-38.669,70.963c0,34.26,11.619,56.528,35.294,66.547
			c5.395,4.59,18.152,4.59,43.994,4.59c0.012,0,0.012,0,0.012,0c45.856,0,120.899-2.324,121.664-2.348l19.676-0.607l-41.676-74.383
			L285.599,366.494z M252.681,483.079c-25.456,0.688-70.139,1.763-101.217,1.763c-19.933,0-27.476-0.468-30.203-0.735
			c-1.004-0.561-2.119-1.062-3.34-1.495c-5.967-2.172-21.818-7.894-21.818-44.991c0-38.488,15.268-46.09,18.269-47.211h131.461
			l-21.918,41.302L252.681,483.079z"/>
		<polygon points="174.794,298.276 113.775,203.412 19.933,204.562 48.296,222.545 0,304.536 61.054,413.343 141.083,278.823 		"/>
		<path d="M160.788,254.102l88.729-148.217l0.87-1.804c0.584-1.495,13.61-36.935-41.027-69.625
			c-15.939-9.552-30.856-14.397-44.338-14.397c-16.57,0-26.927,7.28-32.199,11.479c-7.654,3.812-21.486,24.791-85.675,140.008
			l-9.575,17.206l85.219,2.452L160.788,254.102z M144.125,52.894c1.267-0.742,2.306-1.594,3.165-2.283
			c3.024-2.487,8.109-6.638,17.731-6.638c9.091,0,19.875,3.708,32.071,11c33.04,19.769,31.697,36.783,31.137,39.924l-67.511,112.807
			l-24.178-40.018l-58.853-1.699C103.564,119.903,135.921,63.765,144.125,52.894z"/>
		<polygon points="277.868,183.514 390.365,175.375 434.295,92.462 404.938,108.734 356.081,27.076 231.317,28.547 311.101,163.237 
					"/>
		<path d="M532.091,274.338c0.688-6.072-4.986-20.429-81.846-142.192l-10.509-16.657l-42.995,73.647l-73.414,3.24l87.625,148.872
			l1.156,1.635c1.098,1.307,11.373,12.75,32.836,12.75c14.421,0,30.547-5.184,47.923-15.413
			C523.063,322.472,536.306,300.589,532.091,274.338z M480.746,319.61c-13.662,8.046-25.689,12.133-35.79,12.133
			c-8.443,0-12.915-2.989-14.188-3.971l-66.653-113.25l46.708-2.061l29.672-50.865c28.212,45.044,62.192,100.68,67.529,112.696
			c0.022,1.167,0.175,2.394,0.42,3.69C509.624,284.217,512.729,300.799,480.746,319.61z"/>
	</g>
</g>
<g>
</g>
<g>
</g>
<g>
</g>
<g>
</g>
<g>
</g>
<g>
</g>
<g>
</g>
<g>
</g>
<g>
</g>
<g>
</g>
<g>
</g>
<g>
</g>
<g>
</g>
<g>
</g>
<g>
</g>
</svg>
