<?xml version="1.0" encoding="iso-8859-1"?>
<!-- Generator: Adobe Illustrator 16.0.0, SVG Export Plug-In . SVG Version: 6.00 Build 0)  -->
<!DOCTYPE svg PUBLIC "-//W3C//DTD SVG 1.1//EN" "http://www.w3.org/Graphics/SVG/1.1/DTD/svg11.dtd">
<svg version="1.1" id="Capa_1" xmlns="http://www.w3.org/2000/svg" xmlns:xlink="http://www.w3.org/1999/xlink" x="0px" y="0px"
	 width="481.47px" height="481.47px" viewBox="0 0 481.47 481.47" style="enable-background:new 0 0 481.47 481.47;"
	 xml:space="preserve">
<g>
	<g>
		<path d="M240.723,0C107.984,0,0,107.99,0,240.735S107.984,481.47,240.723,481.47c132.758,0,240.747-107.99,240.747-240.735
			S373.458,0,240.723,0z M240.723,457.556c-119.55,0-216.809-97.271-216.809-216.821c0-119.55,97.259-216.82,216.809-216.82
			c119.562,0,216.832,97.27,216.832,216.82C457.555,360.285,360.286,457.556,240.723,457.556z"/>
		<path d="M240.723,125.243c63.115,0,114.284,51.163,114.284,114.278c0,63.103-51.169,114.272-114.284,114.272
			c-63.108,0-114.272-51.169-114.272-114.272C126.451,176.406,177.615,125.243,240.723,125.243z"/>
	</g>
</g>
<g>
</g>
<g>
</g>
<g>
</g>
<g>
</g>
<g>
</g>
<g>
</g>
<g>
</g>
<g>
</g>
<g>
</g>
<g>
</g>
<g>
</g>
<g>
</g>
<g>
</g>
<g>
</g>
<g>
</g>
</svg>
