<?xml version="1.0" encoding="iso-8859-1"?>
<!-- Generator: Adobe Illustrator 16.0.0, SVG Export Plug-In . SVG Version: 6.00 Build 0)  -->
<!DOCTYPE svg PUBLIC "-//W3C//DTD SVG 1.1//EN" "http://www.w3.org/Graphics/SVG/1.1/DTD/svg11.dtd">
<svg version="1.1" id="Capa_1" xmlns="http://www.w3.org/2000/svg" xmlns:xlink="http://www.w3.org/1999/xlink" x="0px" y="0px"
	 width="544.362px" height="544.362px" viewBox="0 0 544.362 544.362" style="enable-background:new 0 0 544.362 544.362;"
	 xml:space="preserve">
<g>
	<g>
		<path d="M271.777,208.295c75.773,0,137.206,61.421,137.206,137.194c0,75.772-61.433,137.206-137.206,137.206
			c-75.772,0-137.2-61.434-137.2-137.206C134.577,269.716,196.005,208.295,271.777,208.295z"/>
		<path d="M422.004,295.079c-0.223,0-0.433,0.035-0.654,0.035c5.488,15.834,8.641,32.766,8.641,50.469
			c0,65.695-41.267,121.814-99.174,144.165c21.767,26.122,54.521,42.75,91.188,42.75c65.555,0,118.697-53.143,118.697-118.722
			C540.713,348.222,487.559,295.079,422.004,295.079z"/>
		<path d="M112.864,345.489c0-17.645,3.112-34.541,8.588-50.352C57.217,296.679,5.609,349.12,5.609,413.695
			c0,65.579,53.137,118.732,118.71,118.732c36.193,0,68.539-16.255,90.316-41.792C155.363,468.963,112.864,412.177,112.864,345.489z
			"/>
		<path d="M398.649,186.99c35.486,16.121,77.313,0.397,93.417-35.119c16.103-35.452,0.396-77.279-35.09-93.399
			c-35.498-16.12-77.303-0.42-93.429,35.084C347.469,129.031,363.174,170.87,398.649,186.99z"/>
		<path d="M424.817,202.585c4.636,16.786,16.407,31.481,33.525,39.252c30.594,13.884,66.677,0.333,80.561-30.261
			c13.896-30.6,0.351-66.676-30.256-80.572c-0.104-0.046-0.222-0.058-0.315-0.117c-0.806,8.548-2.919,17.136-6.655,25.398
			C487.758,186.955,456.591,204.4,424.817,202.585z"/>
		<path d="M319.373,178.74c16.909,7.689,35.44,6.936,51.006-0.362c-23.062-22.683-30.886-58.193-16.745-89.33
			c3.737-8.238,8.758-15.472,14.679-21.69c-30.326-12.88-65.509,0.654-79.218,30.81C275.223,128.756,288.744,164.856,319.373,178.74
			z"/>
		<path d="M101.204,13.322c36.264,0,65.661,29.397,65.661,65.654c0,36.263-29.397,65.661-65.661,65.661
			c-36.257,0-65.654-29.397-65.654-65.661C35.55,42.719,64.947,13.322,101.204,13.322z"/>
		<path d="M166.602,39.128c16.559,27.138,13.657,60.739-4.642,84.572c15.583,5.307,33.304,3.923,48.466-5.319
			c27.08-16.518,35.645-51.876,19.133-78.967c-16.517-27.097-51.875-35.656-78.966-19.145c-0.1,0.047-0.169,0.128-0.251,0.187
			C156.583,25.601,162.153,31.819,166.602,39.128z"/>
		<path d="M87.385,193.401c14.97-9.138,24.212-24.002,26.781-40.023c-29.94,5.967-61.83-6.779-78.616-34.354
			c-4.461-7.281-7.438-15.052-9.149-22.969C0.238,112.87-7.883,147.568,8.406,174.233C24.918,201.341,60.288,209.912,87.385,193.401
			z"/>
	</g>
</g>
<g>
</g>
<g>
</g>
<g>
</g>
<g>
</g>
<g>
</g>
<g>
</g>
<g>
</g>
<g>
</g>
<g>
</g>
<g>
</g>
<g>
</g>
<g>
</g>
<g>
</g>
<g>
</g>
<g>
</g>
</svg>
