<?xml version="1.0" encoding="iso-8859-1"?>
<!-- Generator: Adobe Illustrator 16.0.0, SVG Export Plug-In . SVG Version: 6.00 Build 0)  -->
<!DOCTYPE svg PUBLIC "-//W3C//DTD SVG 1.1//EN" "http://www.w3.org/Graphics/SVG/1.1/DTD/svg11.dtd">
<svg version="1.1" id="Capa_1" xmlns="http://www.w3.org/2000/svg" xmlns:xlink="http://www.w3.org/1999/xlink" x="0px" y="0px"
	 width="525.399px" height="525.399px" viewBox="0 0 525.399 525.399" style="enable-background:new 0 0 525.399 525.399;"
	 xml:space="preserve">
<g>
	<path d="M525.399,272.509c0-41.769-38.932-78.202-100.189-101.533c1.262-10.089,2.242-20.026,2.522-29.584
		c1.658-57.118-15.204-97.463-47.433-113.595c-9.68-4.852-20.435-7.315-31.983-7.315c-30.501,0-65.298,17.591-99.29,47.724
		c-36.999-23.021-73.11-36.03-103.757-36.03c-20.335,0-37.425,5.658-50.784,16.786C64.189,74.22,59.787,123.112,77.326,180.674
		C29.368,203.835,0,236.181,0,272.509c0,41.36,38.12,77.501,98.362,100.879c-0.239,3.525-0.59,7.146-0.695,10.602
		c-1.664,57.125,15.186,97.47,47.409,113.619c9.698,4.857,20.464,7.31,32.013,7.31c35.189,0,76.146-23.331,114.921-62.483
		c31.47,17.27,61.807,26.903,88.115,26.903c20.341,0,37.425-5.64,50.795-16.792c23.156-19.302,31.097-52.5,25.771-92.739
		C499.43,337.024,525.399,306.548,525.399,272.509z M348.316,44.396c7.788,0,14.946,1.6,21.287,4.77
		c23.098,11.566,35.569,44.928,34.214,91.52c-0.222,7.298-0.84,14.83-1.693,22.484c-17.551-5.284-36.432-9.639-56.552-12.81
		c-24.405-26.84-50.328-49.978-76.251-68.527C297.112,58.123,324.74,44.396,348.316,44.396z M360.495,351.574
		c2.604,0.561,5.278,0.911,8.058,0.911c20.879,0,37.787-16.932,37.787-37.787c0-11.467-5.196-21.603-13.241-28.539
		c2.451-5.862,4.811-11.701,7.029-17.539c14.386,27.324,24.615,53.797,30.033,77.641c-22.934,9.996-50.422,17.96-80.665,23.32
		C353.232,363.729,356.923,357.728,360.495,351.574z M370.958,277.145c-0.806-0.047-1.588-0.257-2.405-0.257
		c-20.879,0-37.799,16.932-37.799,37.811c0,9.412,3.573,17.912,9.26,24.533c-7.123,12.18-14.573,23.833-22.303,34.833
		c-17.749,1.915-36.117,3.048-55.017,3.048c-7.608,0-15.116-0.199-22.566-0.514c-12.413-10.708-24.68-22.42-36.602-35.066
		c2.522-4.508,4.087-9.646,4.087-15.191c0-17.307-14.024-31.342-31.336-31.342c-3.66,0-7.105,0.759-10.357,1.892
		c-7.006-9.342-13.487-18.742-19.588-28.148c6.48-17.58,14.03-35.3,22.828-52.891c7.579-15.146,15.811-29.555,24.417-43.275
		c11.817-1.623,24.061-2.744,36.521-3.527c4.974,10.743,15.77,18.24,28.387,18.24c12.845,0,23.845-7.742,28.679-18.8
		c15.951,0.753,31.459,2.224,46.405,4.344c3.176,3.597,6.353,7.216,9.458,10.953c15.671,18.806,29.555,38.155,41.501,57.416
		C380.604,253.101,376.003,265.105,370.958,277.145z M298.233,399.766c-3.479,4.251-6.982,8.372-10.51,12.343
		c-5.604-3.526-11.222-7.264-16.885-11.28C280.122,400.7,289.242,400.338,298.233,399.766z M176.289,357.67
		c2.925,0,5.716-0.525,8.402-1.284c5.43,5.826,10.918,11.479,16.482,16.932c-28.007-3.41-54.077-9.027-77.209-16.43
		c2.435-19.068,6.732-39.025,12.804-59.495c3.672,5.196,7.328,10.393,11.263,15.577c-1.921,4.064-3.094,8.56-3.094,13.371
		C144.948,343.634,158.984,357.67,176.289,357.67z M130.696,243.059c-9.4-16.757-17.137-33.245-23.331-49.149
		c16.599-6.335,35.119-11.671,55.052-15.84c-5.033,8.798-9.973,17.767-14.637,27.079
		C141.491,217.731,135.869,230.407,130.696,243.059z M308.159,145.964c-6.762-0.549-13.569-1.062-20.528-1.378
		c-4.555-11.671-15.834-19.968-29.135-19.968c-13.476,0-24.872,8.548-29.298,20.481c-6.084,0.362-12.162,0.753-18.094,1.32
		c12.979-17.977,26.595-33.998,40.386-47.853C270.477,111.814,289.639,127.777,308.159,145.964z M370.293,179.646
		c9.797,2.236,19.22,4.735,28.212,7.52c-1.425,7.736-3.165,15.583-5.173,23.535C386.255,200.309,378.455,189.952,370.293,179.646z
		 M109.817,67.33c8.944-7.461,20.879-11.239,35.463-11.239c24.726,0,54.584,10.609,85.745,29.21
		c-18.018,18.538-35.487,40.525-51.689,65.146c-29.379,4.659-56.283,11.742-79.877,20.791
		C85.447,124.571,87.66,85.792,109.817,67.33z M23.915,272.509c0-26.163,23.482-50.393,61.293-68.971
		c8.612,22.099,20.207,45.103,34.593,68.306c-8.98,26.285-15.291,52.115-18.835,76.695
		C53.966,329.306,23.915,302.157,23.915,272.509z M177.089,480.979c-7.794,0-14.958-1.6-21.299-4.764
		c-23.097-11.561-35.568-44.934-34.208-91.537c0.035-1.062,0.181-2.207,0.216-3.281c32.083,9.82,68.924,16.336,108.86,18.625
		c13.382,11.152,26.88,21.101,40.309,29.789C238.289,461.829,204.875,480.979,177.089,480.979z M415.6,434.179
		c-8.944,7.449-20.866,11.232-35.475,11.232c-20.891,0-45.436-7.555-71.312-21.088c7.532-8.665,14.936-17.89,22.163-27.664
		c38.757-4.928,73.776-13.896,103.062-26.098C436.584,398.715,430.943,421.356,415.6,434.179z M452.138,335.133
		c-7.474-30.267-21.614-63.465-41.594-97.218c4.402-14.468,7.986-28.731,10.719-42.703c48.811,19.314,80.199,47.006,80.199,77.297
		C501.485,295.781,482.837,317.513,452.138,335.133z"/>
</g>
<g>
</g>
<g>
</g>
<g>
</g>
<g>
</g>
<g>
</g>
<g>
</g>
<g>
</g>
<g>
</g>
<g>
</g>
<g>
</g>
<g>
</g>
<g>
</g>
<g>
</g>
<g>
</g>
<g>
</g>
</svg>
