<?xml version="1.0" encoding="iso-8859-1"?>
<!-- Generator: Adobe Illustrator 16.0.0, SVG Export Plug-In . SVG Version: 6.00 Build 0)  -->
<!DOCTYPE svg PUBLIC "-//W3C//DTD SVG 1.1//EN" "http://www.w3.org/Graphics/SVG/1.1/DTD/svg11.dtd">
<svg version="1.1" id="Capa_1" xmlns="http://www.w3.org/2000/svg" xmlns:xlink="http://www.w3.org/1999/xlink" x="0px" y="0px"
	 width="535.416px" height="535.417px" viewBox="0 0 535.416 535.417" style="enable-background:new 0 0 535.416 535.417;"
	 xml:space="preserve">
<g>
	<g>
		<path d="M317.968,243.361c4.087,0.187,8.197,0.28,12.343,0.28c10.334,0,20.389-0.607,30.092-1.681
			c7.566-10.743,14.713-22.595,21.065-35.289c6.235-12.459,11.421-25.036,15.496-37.367c-6.528-10.556-14.118-21.135-22.688-31.399
			c-1.705-2.043-3.434-4.017-5.174-5.991c-12.308-1.751-25.339-2.697-38.779-2.697c-13.078,0-25.783,0.911-37.799,2.557
			c-4.706,7.497-9.207,15.391-13.353,23.67c-4.811,9.622-8.945,19.313-12.483,28.924c5.833,9.003,12.372,18.006,19.693,26.799
			C296.365,223.16,307.085,233.961,317.968,243.361z M330.311,154.697c13.16,0,23.81,10.673,23.81,23.821
			c0,13.16-10.649,23.821-23.81,23.821s-23.81-10.661-23.81-23.821C306.501,165.37,317.15,154.697,330.311,154.697z"/>
		<path d="M404.601,139.75c-4.928-1.53-10.077-2.896-15.438-4.122c4.461,5.64,8.723,11.304,12.623,16.99
			C402.86,148.263,403.818,143.989,404.601,139.75z"/>
		<path d="M405.5,184.31c-3.562,9.412-7.638,18.858-12.332,28.224c-4.74,9.505-9.937,18.508-15.367,26.997
			c16.535-2.931,31.575-7.286,44.117-12.763C418.963,213.736,413.37,199.245,405.5,184.31z"/>
		<path d="M375.652,119.619c10.988,1.729,21.322,4.11,30.934,6.995c0.455-4.18,0.805-8.302,0.922-12.296
			c0.748-25.479-6.096-43.743-18.707-50.06c-3.479-1.74-7.402-2.616-11.653-2.616c-12.903,0-28.002,7.508-43.205,20.481
			C348.13,92.283,362.282,104.929,375.652,119.619z"/>
		<path d="M275.475,134.764c-10.906,2.289-21.048,5.208-30.121,8.676c3.398,8.688,7.631,17.703,12.746,26.881
			c2.849-6.925,5.92-13.861,9.365-20.739C270.021,144.491,272.713,139.586,275.475,134.764z"/>
		<path d="M460.919,186.423c0-16.57-17.165-31.727-43.871-42.283c-1.494,7.637-3.456,15.437-5.85,23.354
			c10.93,18.474,18.659,36.62,22.735,53.178C450.713,211.039,460.919,199.163,460.919,186.423z"/>
		<path d="M276.333,219.528c-5.377-6.457-10.281-12.973-14.882-19.512c-3.339,11.21-5.681,22.128-7.012,32.567
			c12.652,4.041,26.904,7.111,42.23,8.979C289.709,234.731,282.878,227.398,276.333,219.528z"/>
		<path d="M199.714,186.423c0,16.196,16.441,31.061,42.148,41.583c1.938-13.452,5.383-27.57,10.293-41.956
			c-7.853-12.693-14.206-25.281-18.929-37.355C212.564,158.866,199.714,172.107,199.714,186.423z"/>
		<path d="M344.008,262.78c1.938-2.172,3.842-4.426,5.745-6.738c-4.916,0.304-9.914,0.502-14.981,0.583
			C337.865,258.81,340.948,260.842,344.008,262.78z"/>
		<path d="M253.248,245.988c-0.023,0.584-0.123,1.203-0.134,1.787c-0.741,25.479,6.102,43.743,18.724,50.071
			c3.457,1.74,7.38,2.615,11.648,2.615c15.192,0,33.467-10.474,51.345-27.989c-7.357-4.753-14.736-10.194-22.047-16.29
			C290.947,254.91,270.775,251.348,253.248,245.988z"/>
		<path d="M424.02,240.056c-16.01,6.668-35.172,11.572-56.377,14.27c-3.947,5.348-7.987,10.393-12.121,15.134
			c14.164,7.415,27.581,11.537,39.025,11.537c7.975,0,14.502-2.066,19.396-6.154C422.338,267.836,425.421,255.47,424.02,240.056z"/>
		<path d="M284.711,119.666c8.875-13.464,18.426-25.491,28.27-35.639c-17.037-10.171-33.355-15.974-46.895-15.974
			c-7.987,0-14.503,2.079-19.407,6.154c-12.109,10.089-13.306,31.306-5.652,56.833C253.937,126.1,268.644,122.223,284.711,119.666z"
			/>
		<path d="M330.311,116.139c8.513,0,16.78,0.42,24.872,1.074c-10.147-9.949-20.61-18.684-31.003-25.935
			c-7.543,7.579-14.993,16.348-22.093,26.18C311.195,116.606,320.631,116.139,330.311,116.139z"/>
		<path d="M500.364,167.693c-9.108-44.77-3.293-138.514-158.295-163.234C187.062-20.285,47.397,58.361,82.528,230.248
			c0,31.33-62.035,79.965-47.088,96.406c14.946,16.441,40.31,17.083,40.31,17.083s-16.488,31.33-9.073,39.982
			c7.409,8.653,28.037,4.951,28.037,4.951s-19.156,13.803-19.156,24.511c0,10.72,32.345,24.954,32.345,24.954
			s-5.943,59.285,42.628,55.174c48.57-4.109,56.75-17.83,56.75-17.83l14.41,59.938H409.68l-6.609-130.27
			C403.07,405.159,518.511,279.829,500.364,167.693z M346.344,279.373c-21.206,21.417-43.603,34.156-62.858,34.156
			c-6.312,0-12.208-1.343-17.492-3.993c-17.65-8.828-26.857-30.898-25.946-62.146c0.058-1.88,0.251-3.854,0.367-5.804
			c-32.94-12.774-53.796-32.556-53.796-55.163c0-19.875,16.073-37.553,42.294-50.235c-9.604-31.481-7.187-58.222,9.4-72.036
			c7.292-6.095,16.64-9.19,27.763-9.19c16.75,0,36.525,7.111,56.751,19.7c18.59-16.477,37.623-26.099,54.31-26.099
			c6.294,0,12.202,1.343,17.492,3.994c17.645,8.828,26.846,30.886,25.935,62.134c-0.151,5.22-0.677,10.661-1.377,16.185
			c33.513,12.751,54.812,32.684,54.812,55.536c0,18.613-14.211,35.289-37.589,47.748c2.896,22.011-1.436,40.157-14.094,50.726
			c-7.31,6.096-16.675,9.178-27.779,9.178C380.148,294.075,363.556,288.796,346.344,279.373z"/>
	</g>
</g>
<g>
</g>
<g>
</g>
<g>
</g>
<g>
</g>
<g>
</g>
<g>
</g>
<g>
</g>
<g>
</g>
<g>
</g>
<g>
</g>
<g>
</g>
<g>
</g>
<g>
</g>
<g>
</g>
<g>
</g>
</svg>
