<?xml version="1.0" encoding="iso-8859-1"?>
<!-- Generator: Adobe Illustrator 16.0.0, SVG Export Plug-In . SVG Version: 6.00 Build 0)  -->
<!DOCTYPE svg PUBLIC "-//W3C//DTD SVG 1.1//EN" "http://www.w3.org/Graphics/SVG/1.1/DTD/svg11.dtd">
<svg version="1.1" id="Capa_1" xmlns="http://www.w3.org/2000/svg" xmlns:xlink="http://www.w3.org/1999/xlink" x="0px" y="0px"
	 width="535.416px" height="535.417px" viewBox="0 0 535.416 535.417" style="enable-background:new 0 0 535.416 535.417;"
	 xml:space="preserve">
<g>
	<g>
		<path d="M276.468,77.604c0.858-0.607,1.541-1.378,2.055-2.335s0.864-2.032,1.04-3.234c0.181-1.191,0.274-2.371,0.274-3.573
			c0-1.18-0.093-2.382-0.274-3.562c-0.175-1.18-0.526-2.242-1.04-3.176s-1.208-1.705-2.055-2.289
			c-0.853-0.596-1.985-0.899-3.375-0.899c-1.384,0-2.522,0.304-3.369,0.899c-0.864,0.595-1.541,1.354-2.055,2.289
			c-0.52,0.934-0.864,1.997-1.045,3.176c-0.176,1.179-0.274,2.382-0.274,3.562c0,1.203,0.099,2.382,0.274,3.573
			c0.181,1.203,0.525,2.265,1.045,3.234c0.514,0.958,1.203,1.728,2.055,2.335c0.847,0.596,1.985,0.876,3.369,0.876
			C274.482,78.48,275.604,78.2,276.468,77.604z"/>
		<polygon points="310.051,153.459 302.928,176.147 316.858,176.147 310.237,153.459 		"/>
		<path d="M452.114,173.952c0.735,0.023,1.425-0.046,2.056-0.257c0.631-0.21,1.18-0.561,1.646-1.074s0.806-1.238,1.051-2.207
			c0.735-2.954-0.643-4.869-4.122-5.745l-9.412-2.371l-2.288,9.085l8.793,2.207C450.62,173.8,451.367,173.906,452.114,173.952z"/>
		<path d="M316.462,29.46c0.91-0.199,1.6-0.444,2.09-0.748c0.467-0.28,0.712-0.782,0.735-1.506c0.012-0.49-0.222-0.934-0.688-1.366
			c-0.468-0.42-1.074-0.654-1.821-0.666c-0.935-0.023-1.729,0.245-2.395,0.759c-0.665,0.538-1.027,1.366-1.109,2.487l-0.047,1.974
			c0.491-0.245,1.028-0.42,1.577-0.561C315.364,29.705,315.913,29.588,316.462,29.46z"/>
		<path d="M457.475,155.374c1.039-0.327,1.774-1.273,2.16-2.861c0.314-1.238,0.07-2.23-0.736-2.955
			c-0.805-0.724-1.984-1.296-3.515-1.681l-7.917-1.997l-1.845,7.357l7.917,1.997C455.127,155.631,456.424,155.678,457.475,155.374z"
			/>
		<path d="M447.233,241.306c-0.514-0.245-1.074-0.385-1.682-0.385c-0.606,0.012-1.226,0.14-1.868,0.362
			c-0.631,0.233-1.25,0.514-1.833,0.84c-0.596,0.315-1.156,0.701-1.693,1.121s-0.981,0.888-1.296,1.401
			c-0.327,0.514-0.525,1.062-0.596,1.658c-0.047,0.584,0.117,1.226,0.49,1.903c0.396,0.689,0.841,1.167,1.378,1.436
			c0.514,0.246,1.098,0.374,1.705,0.374c0.606-0.012,1.237-0.152,1.868-0.374c0.654-0.245,1.249-0.514,1.845-0.84
			c0.584-0.315,1.145-0.701,1.682-1.121c0.549-0.42,0.981-0.876,1.284-1.39c0.327-0.514,0.514-1.062,0.561-1.646
			c0.07-0.584-0.093-1.226-0.467-1.915C448.215,242.065,447.771,241.586,447.233,241.306z"/>
		<path d="M382.262,161.236c1.588,0,2.955-0.467,4.064-1.401c1.098-0.946,1.704-2.382,1.786-4.309v-3.386
			c-0.853,0.42-1.74,0.771-2.674,1.016c-0.935,0.257-1.88,0.502-2.826,0.748c-1.553,0.362-2.732,0.817-3.526,1.331
			s-1.215,1.39-1.215,2.627c0,0.841,0.421,1.611,1.25,2.312C379.95,160.886,380.978,161.236,382.262,161.236z"/>
		<path d="M500.364,167.693c-9.108-44.77-3.293-138.514-158.318-163.234C187.062-20.285,47.397,58.361,82.528,230.248
			c0,31.33-62.035,79.965-47.088,96.406c14.946,16.441,40.31,17.083,40.31,17.083s-16.488,31.33-9.073,39.982
			c7.409,8.653,28.025,4.951,28.025,4.951s-19.156,13.803-19.156,24.511c0,10.72,32.345,24.954,32.345,24.954
			s-5.932,59.285,42.64,55.174c48.57-4.109,56.75-17.83,56.75-17.83l14.41,59.938H409.68l-6.609-130.27
			C403.07,405.159,518.511,279.829,500.364,167.693z M422.618,230.178c-1.542-1.203-2.85-2.779-3.947-4.776
			c-1.249-2.219-1.962-4.391-2.184-6.516c-0.222-2.125-0.011-4.134,0.607-6.037c0.619-1.903,1.646-3.643,3.048-5.22
			c1.413-1.6,3.129-2.954,5.138-4.087c2.149-1.191,4.286-1.95,6.423-2.265c2.125-0.327,4.156-0.245,6.072,0.269
			c1.938,0.525,3.713,1.448,5.348,2.756c1.635,1.308,3.036,3.036,4.216,5.161c2.078,3.795,2.744,7.24,2.02,10.346
			c-0.747,3.095-2.732,5.792-5.979,8.069l-4.554-8.209c0.233-0.198,0.525-0.479,0.91-0.852c0.374-0.386,0.689-0.853,0.935-1.425
			s0.374-1.226,0.421-1.962c0.023-0.735-0.211-1.541-0.689-2.405c-0.549-1.004-1.227-1.705-2.031-2.137
			c-0.807-0.42-1.67-0.631-2.628-0.631c-0.923,0-1.88,0.164-2.872,0.491c-0.993,0.292-1.962,0.724-2.873,1.238
			c-0.923,0.502-1.775,1.098-2.58,1.786c-0.783,0.666-1.437,1.401-1.928,2.195c-0.502,0.794-0.771,1.658-0.84,2.546
			c-0.07,0.911,0.163,1.856,0.735,2.861c0.386,0.724,0.853,1.261,1.366,1.635c0.49,0.362,1.051,0.619,1.658,0.736
			c0.607,0.117,1.237,0.128,1.915,0.035c0.688-0.093,1.401-0.257,2.102-0.479l4.601,8.279c-1.378,0.759-2.896,1.238-4.554,1.437
			c-1.658,0.222-3.316,0.093-5.01-0.362C425.748,232.198,424.137,231.369,422.618,230.178z M439.644,261.659l-4.063-7.322
			l2.195-1.214l-0.047-0.082c-0.443-0.059-0.888-0.152-1.366-0.269c-0.491-0.105-0.981-0.304-1.472-0.607
			c-0.502-0.292-1.004-0.724-1.518-1.25c-0.514-0.549-1.039-1.273-1.542-2.207c-0.782-1.401-1.155-2.802-1.109-4.204
			c0.023-1.413,0.374-2.732,1.005-3.97c0.619-1.25,1.471-2.405,2.521-3.433c1.052-1.051,2.219-1.915,3.48-2.616
			c1.168-0.654,2.452-1.203,3.807-1.623c1.366-0.42,2.732-0.596,4.087-0.514c1.331,0.082,2.639,0.502,3.9,1.25
			c1.237,0.735,2.323,1.95,3.246,3.608c0.63,1.145,0.992,2.324,1.027,3.538c0.059,1.203-0.187,2.335-0.7,3.398l0.047,0.07
			l9.668-5.372l4.228,7.59L439.644,261.659z M462.063,137.216c3.176,0.806,5.687,1.856,7.497,3.176
			c1.821,1.296,3.152,2.721,3.993,4.228c0.853,1.518,1.308,3.047,1.354,4.577c0.047,1.542-0.082,2.919-0.396,4.157
			c-0.619,2.452-1.646,4.262-3.106,5.453c-1.448,1.179-3.224,2.032-5.302,2.581c1.004,0.642,1.938,1.401,2.791,2.289
			c0.876,0.888,1.576,1.927,2.09,3.106c0.537,1.179,0.853,2.51,1.005,3.994c0.14,1.483-0.023,3.106-0.468,4.869
			c-0.63,2.452-1.658,4.484-3.094,6.084c-1.437,1.6-3.118,2.791-5.01,3.631c-1.892,0.806-3.959,1.285-6.154,1.425
			c-2.207,0.117-4.391-0.105-6.527-0.643l-27.604-6.959l12.261-48.67L462.063,137.216z M338.216,115.053h-10.439l-4.647-8.244
			l-1.541,1.67v6.574h-8.676V83.735h8.676v15.122l5.535-6.574h9.832l-8.127,8.606L338.216,115.053z M312.971,20.807
			c0.116,0.292,0.187,0.642,0.232,1.004c0.023,0.362,0.047,0.712,0,1.016h0.094c0.911-0.969,1.962-1.623,3.153-1.938
			c1.214-0.327,2.476-0.467,3.795-0.432c1.039,0.023,2.009,0.164,2.907,0.444c0.911,0.257,1.682,0.677,2.359,1.226
			c0.677,0.561,1.202,1.25,1.564,2.055c0.396,0.817,0.561,1.798,0.537,2.919c-0.023,1.133-0.257,2.067-0.689,2.814
			c-0.408,0.736-0.969,1.354-1.646,1.857c-0.677,0.479-1.459,0.841-2.312,1.109c-0.864,0.245-1.729,0.443-2.628,0.583
			c-0.898,0.152-1.763,0.246-2.65,0.327c-0.864,0.082-1.635,0.175-2.323,0.28c-0.549,0.105-1.063,0.257-1.53,0.479
			c-0.467,0.233-0.724,0.688-0.747,1.366c0,0.712,0.257,1.226,0.806,1.541c0.549,0.315,1.156,0.479,1.811,0.502
			c0.642,0.012,1.155-0.035,1.541-0.164c0.396-0.14,0.7-0.304,0.934-0.514c0.246-0.222,0.397-0.456,0.49-0.724
			c0.094-0.245,0.141-0.502,0.152-0.712l7.566,0.187c-0.093,1.506-0.49,2.721-1.202,3.62c-0.724,0.888-1.589,1.588-2.64,2.043
			c-1.051,0.467-2.242,0.771-3.503,0.911c-1.284,0.14-2.569,0.187-3.83,0.152c-2.546-0.07-4.507-0.351-5.862-0.864
			c-1.366-0.514-2.347-1.18-2.965-1.997c-0.607-0.806-0.958-1.716-1.016-2.732c-0.07-0.992-0.105-2.008-0.059-3.024l0.234-8.758
			c0-0.794-0.023-1.635-0.093-2.475c-0.07-0.853-0.327-1.646-0.794-2.324L312.971,20.807z M158.891,88.184l6.837,4.146l2.791-4.589
			l5.272,3.2l-2.773,4.601l7.817,4.741c1.051,0.619,1.915,0.923,2.581,0.888c0.683-0.047,1.354-0.619,2.02-1.717
			c0.374-0.63,0.73-1.308,1.057-2.032l6.493,3.947c-0.525,0.876-1.027,1.798-1.518,2.791c-0.479,0.993-1.004,1.95-1.571,2.873
			c-0.561,0.911-1.156,1.775-1.827,2.616c-0.672,0.853-1.46,1.483-2.341,1.927c-0.911,0.444-1.938,0.619-3.112,0.537
			c-1.186-0.082-2.534-0.584-4.064-1.506l-10.737-6.504l-2.312,3.807l-5.272-3.2l2.306-3.818l-6.837-4.146L158.891,88.184z
			 M170.299,135.488l-4.297,7.1l-23.097-6.644l-0.052,0.082l19.827,12.016l-5.441,9.003l-30.921-18.742l8.215-13.545l20.867,6.597
			l0.047-0.082l-15.508-15.449l8.215-13.545l30.921,18.742l-5.465,9.003l-19.839-12.016l-0.047,0.082L170.299,135.488z
			 M190.921,178.238l-16.4-7.461l26.904-59.145l16.4,7.45L190.921,178.238z M220.54,89.971c-4.496,0-8.489-0.748-11.958-2.242
			s-6.405-3.538-8.81-6.13c-2.406-2.592-4.233-5.664-5.477-9.202c-1.244-3.538-1.863-7.368-1.863-11.455
			c0-4.355,0.654-8.314,1.979-11.875c1.32-3.573,3.206-6.621,5.67-9.155c2.464-2.534,5.406-4.496,8.851-5.897
			c3.445-1.401,7.305-2.09,11.596-2.09c7.666,0.046,13.575,1.985,17.731,5.769c4.163,3.807,6.615,9.213,7.333,16.196h-16.611
			c-0.105-0.514-0.286-1.238-0.537-2.125c-0.251-0.899-0.729-1.798-1.401-2.686c-0.665-0.875-1.564-1.658-2.674-2.324
			c-1.115-0.677-2.552-1.004-4.309-1.004c-2.009,0-3.69,0.432-5.045,1.308c-1.337,0.888-2.417,2.043-3.217,3.492
			c-0.8,1.448-1.384,3.071-1.746,4.893c-0.356,1.822-0.537,3.643-0.537,5.512c0,1.868,0.181,3.713,0.537,5.511
			c0.362,1.81,0.946,3.445,1.746,4.893c0.8,1.459,1.88,2.616,3.217,3.491c1.354,0.876,3.024,1.32,5.045,1.32
			c1.448,0,2.68-0.246,3.695-0.712c1.016-0.467,1.869-1.109,2.563-1.938c0.688-0.817,1.267-1.81,1.705-2.955
			c0.444-1.132,0.794-2.347,1.045-3.643h16.762c0,2.791-0.549,5.558-1.675,8.302c-1.109,2.732-2.738,5.208-4.887,7.415
			c-2.154,2.195-4.799,3.97-7.963,5.302C228.171,89.305,224.574,89.971,220.54,89.971z M237.595,193.815l-4.939-7.976l10.118-6.259
			l-0.053-0.082c-1.232-0.164-2.399-0.596-3.538-1.25c-1.133-0.666-2.236-1.857-3.275-3.55c-0.584-0.934-0.993-1.927-1.244-2.989
			c-0.228-1.04-0.263-2.079-0.093-3.106c0.151-1.016,0.561-2.008,1.208-2.942c0.643-0.934,1.565-1.763,2.773-2.522l14.346-8.875
			l4.939,7.976l-10.965,6.784c-0.584,0.351-1.121,0.736-1.6,1.098c-0.479,0.374-0.841,0.759-1.092,1.18
			c-0.251,0.409-0.368,0.841-0.356,1.296c0,0.467,0.192,0.993,0.561,1.588c0.216,0.338,0.49,0.689,0.823,0.98
			c0.35,0.315,0.753,0.526,1.243,0.666c0.491,0.128,1.057,0.14,1.711,0c0.648-0.128,1.39-0.432,2.225-0.946l11.035-6.831
			l4.939,7.987L237.595,193.815z M258.724,145.309l-18.928-18.929l-7.141,7.135l-6.516-6.516l22.111-22.116l6.516,6.516
			l-7.129,7.135l18.929,18.929L258.724,145.309z M260.429,87.764c-2.113-1.273-3.882-2.919-5.272-4.975
			c-1.396-2.043-2.452-4.332-3.141-6.866c-0.707-2.534-1.057-5.068-1.057-7.602c0-2.382,0.251-4.811,0.782-7.298
			c0.514-2.487,1.419-4.729,2.709-6.738c1.296-2.02,3.054-3.69,5.278-4.974c2.225-1.296,5.021-1.95,8.378-1.95
			c2.336,0,4.449,0.479,6.364,1.436s3.468,2.289,4.665,3.994h0.152V33.243h15.373v55.419h-14.835v-4.425h-0.14
			c-0.467,0.619-0.993,1.249-1.594,1.903c-0.596,0.642-1.326,1.226-2.213,1.74c-0.882,0.514-1.968,0.946-3.264,1.285
			c-1.291,0.327-2.867,0.514-4.735,0.514C265.047,89.679,262.56,89.025,260.429,87.764z M324.483,202.456l-3.094-10.521h-23.413
			l-3.293,10.521h-22.799l27.131-73.659h22.175l26.834,73.659H324.483z M346.062,85.101L391.3,39.876l13.335,13.347l-14.584,14.585
			l38.732,38.745l-16.044,16.044l-38.745-38.745l-14.572,14.585L346.062,85.101z M363.637,158.434c0-1.927,0.339-3.538,1.017-4.834
			c0.677-1.296,1.6-2.382,2.755-3.234c1.156-0.876,2.453-1.553,3.924-2.009c1.448-0.467,2.943-0.852,4.484-1.132
			c1.518-0.269,3.036-0.502,4.508-0.666c1.471-0.163,2.802-0.362,3.97-0.595c0.958-0.199,1.81-0.491,2.615-0.888
			c0.794-0.409,1.191-1.191,1.191-2.37c0-1.226-0.479-2.09-1.448-2.604c-0.969-0.514-2.008-0.783-3.141-0.783
			c-1.086,0-1.95,0.128-2.604,0.351c-0.665,0.245-1.19,0.537-1.588,0.922s-0.677,0.794-0.817,1.238s-0.21,0.864-0.21,1.238h-12.985
			c0.094-2.581,0.725-4.659,1.903-6.247c1.18-1.577,2.651-2.779,4.449-3.632s3.783-1.413,5.967-1.693
			c2.184-0.292,4.355-0.432,6.528-0.432c4.379,0,7.729,0.42,10.088,1.238c2.348,0.829,4.064,1.915,5.162,3.281
			c1.074,1.366,1.693,2.907,1.868,4.612c0.163,1.728,0.245,3.445,0.245,5.196v15.017c0,1.354,0.082,2.768,0.245,4.227
			c0.175,1.46,0.654,2.779,1.448,3.958h-14.246c-0.188-0.514-0.327-1.086-0.42-1.728c-0.094-0.654-0.117-1.214-0.07-1.74h-0.141
			c-1.518,1.705-3.281,2.849-5.348,3.457c-2.032,0.607-4.181,0.922-6.446,0.922c-1.786,0-3.456-0.21-5.021-0.631
			c-1.542-0.42-2.908-1.086-4.088-2.008c-1.167-0.922-2.102-2.067-2.778-3.457C363.976,162.018,363.637,160.36,363.637,158.434z
			 M399.661,215.138l-5.933,19.01l-10.567-3.293l4.53-14.526c0.246-0.782,0.433-1.53,0.572-2.219
			c0.141-0.712,0.164-1.331,0.07-1.892c-0.117-0.561-0.35-1.04-0.712-1.448c-0.339-0.397-0.946-0.735-1.717-0.969
			c-0.467-0.151-0.958-0.233-1.495-0.245c-0.561-0.023-1.098,0.117-1.611,0.374c-0.537,0.257-1.027,0.712-1.518,1.308
			s-0.911,1.471-1.25,2.569l-4.565,14.631l-10.579-3.281l11.91-38.125l10.557,3.305l-4.181,13.394l0.094,0.035
			c1.237-0.783,2.615-1.32,4.134-1.612c1.518-0.292,3.433-0.082,5.675,0.619c1.237,0.397,2.382,0.958,3.386,1.716
			c1.017,0.748,1.846,1.646,2.511,2.686c0.643,1.051,1.052,2.23,1.191,3.573C400.338,212.066,400.151,213.526,399.661,215.138z"/>
	</g>
</g>
<g>
</g>
<g>
</g>
<g>
</g>
<g>
</g>
<g>
</g>
<g>
</g>
<g>
</g>
<g>
</g>
<g>
</g>
<g>
</g>
<g>
</g>
<g>
</g>
<g>
</g>
<g>
</g>
<g>
</g>
</svg>
