<?xml version="1.0" encoding="iso-8859-1"?>
<!-- Generator: Adobe Illustrator 16.0.0, SVG Export Plug-In . SVG Version: 6.00 Build 0)  -->
<!DOCTYPE svg PUBLIC "-//W3C//DTD SVG 1.1//EN" "http://www.w3.org/Graphics/SVG/1.1/DTD/svg11.dtd">
<svg version="1.1" id="Capa_1" xmlns="http://www.w3.org/2000/svg" xmlns:xlink="http://www.w3.org/1999/xlink" x="0px" y="0px"
	 width="528.855px" height="528.855px" viewBox="0 0 528.855 528.855" style="enable-background:new 0 0 528.855 528.855;"
	 xml:space="preserve">
<g>
	<g>
		<path d="M317.617,429.611L15.951,177.813c0,0-15.951,5.797-15.951,27.283s6.685,25.912,6.685,25.912l310.933,258.216
			c0,0-8.921-18.31-8.921-31.762S317.617,429.611,317.617,429.611z"/>
		<path d="M323.689,471.206c0,0-4.671,2.627-4.671,8.606c0,5.979,5.581,7.053,8.104,6.539
			c2.499-0.49,200.975-131.835,200.975-131.835l0.759-19.267L323.689,471.206z"/>
		<path d="M317.477,460.428c2.71,3.188,4.998,3.363,7.217,2.324c2.23-1.039,191.621-130.469,191.621-130.469l0.117-10.158
			L320.606,453.889C320.606,453.889,314.779,457.264,317.477,460.428z"/>
		<path d="M323.397,444.186l192.964-130.281l-0.175-9.879l-195.02,131.928c0,0-5.045,3.363-2.615,6.737
			C320.968,446.064,323.397,444.186,323.397,444.186z"/>
		<path d="M526.042,282.387L245.435,39.632L26.15,168.004l296.698,256.189L526.042,282.387z M126.054,195.685l146.191-86.819
			l55.414,47.339l-144.451,90.539L126.054,195.685z M236.841,237.156l-5.979-5.535l64.685-42.33l4.717,5.967L236.841,237.156z"/>
	</g>
</g>
<g>
</g>
<g>
</g>
<g>
</g>
<g>
</g>
<g>
</g>
<g>
</g>
<g>
</g>
<g>
</g>
<g>
</g>
<g>
</g>
<g>
</g>
<g>
</g>
<g>
</g>
<g>
</g>
<g>
</g>
</svg>
