<?xml version="1.0" encoding="iso-8859-1"?>
<!-- Generator: Adobe Illustrator 16.0.0, SVG Export Plug-In . SVG Version: 6.00 Build 0)  -->
<!DOCTYPE svg PUBLIC "-//W3C//DTD SVG 1.1//EN" "http://www.w3.org/Graphics/SVG/1.1/DTD/svg11.dtd">
<svg version="1.1" id="Capa_1" xmlns="http://www.w3.org/2000/svg" xmlns:xlink="http://www.w3.org/1999/xlink" x="0px" y="0px"
	 width="480.245px" height="480.244px" viewBox="0 0 480.245 480.244" style="enable-background:new 0 0 480.245 480.244;"
	 xml:space="preserve">
<g>
	<g>
		<path d="M114.505,124.542l287.911-0.012V97.533l-287.911,0.023c-33.898,0-46.504-9.038-46.504-33.373
			c0-31.266,12.413-33.531,32.848-33.531c2.189,0,4.338,0.035,6.481,0.076c2.189,0.035,4.338,0.07,6.422,0.07H402.44V3.801H113.752
			c-1.938,0-3.936-0.041-5.979-0.076c-2.271-0.035-4.583-0.07-6.913-0.07c-16.371,0-59.845,0-59.845,60.528
			C41.016,104.242,65.742,124.542,114.505,124.542z"/>
		<rect x="97.597" y="40.304" width="287.957" height="8.968"/>
		<rect x="97.597" y="59.051" width="287.957" height="8.968"/>
		<rect x="97.597" y="78.925" width="287.957" height="8.968"/>
		<path d="M480.245,316.135H96.651c-2.569,0-5.237-0.047-7.94-0.082c-3.013-0.047-6.083-0.094-9.196-0.094
			c-21.737,0-79.515,0-79.515,80.42c0,53.236,32.859,80.211,97.656,80.211l382.589-0.023v-35.873l-382.589,0.023
			c-45.045,0-61.784-12.016-61.784-44.35c0-41.559,16.488-44.548,43.643-44.548c2.908,0,5.774,0.047,8.612,0.094
			c2.902,0.046,5.751,0.093,8.524,0.093h383.593V316.135z"/>
		<rect x="75.189" y="366.112" width="382.636" height="8.968"/>
		<rect x="75.189" y="391.031" width="382.636" height="8.968"/>
		<rect x="75.189" y="417.445" width="382.636" height="8.967"/>
		<path d="M391.813,291.998c2.709,0.047,5.442,0.093,8.232,0.093c19.478,0,71.242,0,71.242-72.053
			c0-47.701-29.438-71.878-87.484-71.878l-342.787,0.023v32.141l342.787-0.023c40.332,0,55.35,10.76,55.35,39.737
			c0,37.232-14.771,39.906-39.107,39.906c-2.604,0-5.195-0.023-7.718-0.082c-2.616-0.035-5.173-0.082-7.649-0.082H41.016v32.136
			H384.69C386.979,291.916,389.362,291.963,391.813,291.998z"/>
		<rect x="61.088" y="238.627" width="342.822" height="8.962"/>
		<rect x="61.088" y="216.307" width="342.822" height="8.968"/>
		<rect x="61.088" y="192.655" width="342.822" height="8.968"/>
	</g>
</g>
<g>
</g>
<g>
</g>
<g>
</g>
<g>
</g>
<g>
</g>
<g>
</g>
<g>
</g>
<g>
</g>
<g>
</g>
<g>
</g>
<g>
</g>
<g>
</g>
<g>
</g>
<g>
</g>
<g>
</g>
</svg>
