<?xml version="1.0" encoding="iso-8859-1"?>
<!-- Generator: Adobe Illustrator 16.0.0, SVG Export Plug-In . SVG Version: 6.00 Build 0)  -->
<!DOCTYPE svg PUBLIC "-//W3C//DTD SVG 1.1//EN" "http://www.w3.org/Graphics/SVG/1.1/DTD/svg11.dtd">
<svg version="1.1" id="Capa_1" xmlns="http://www.w3.org/2000/svg" xmlns:xlink="http://www.w3.org/1999/xlink" x="0px" y="0px"
	 width="456.866px" height="456.866px" viewBox="0 0 456.866 456.866" style="enable-background:new 0 0 456.866 456.866;"
	 xml:space="preserve">
<g>
	<g>
		<path d="M0,5.073v152.083h0.49V284.39v23.915v143.488h216.236h23.915h216.225V308.305V284.39V157.156v-16.249V5.073H0z
			 M23.915,28.988h409.037v104.253H23.915V28.988z M24.405,164.81h192.321v119.58H24.405V164.81z M216.727,427.878H24.405V308.305
			h192.321V427.878z M432.951,427.878h-192.31V308.305h192.31V427.878z M240.642,284.39V164.81h192.31v119.58H240.642z"/>
		<rect x="282.982" y="338.197" width="107.616" height="21.906"/>
		<rect x="282.982" y="376.055" width="107.616" height="21.93"/>
		<rect x="288.961" y="207.665" width="107.617" height="21.918"/>
		<polygon points="129.703,179.757 111.429,179.757 111.429,215.477 75.726,215.477 75.726,233.734 111.429,233.734 
			111.429,269.443 129.703,269.443 129.703,233.734 165.406,233.734 165.406,215.477 129.703,215.477 		"/>
		<polygon points="86.188,406.252 111.429,381.006 136.686,406.252 149.601,393.337 124.344,368.091 149.601,342.846 
			136.686,329.93 111.429,355.176 86.188,329.93 73.273,342.846 98.514,368.091 73.273,393.337 		"/>
	</g>
</g>
<g>
</g>
<g>
</g>
<g>
</g>
<g>
</g>
<g>
</g>
<g>
</g>
<g>
</g>
<g>
</g>
<g>
</g>
<g>
</g>
<g>
</g>
<g>
</g>
<g>
</g>
<g>
</g>
<g>
</g>
</svg>
