<?xml version="1.0" encoding="iso-8859-1"?>
<!-- Generator: Adobe Illustrator 16.0.0, SVG Export Plug-In . SVG Version: 6.00 Build 0)  -->
<!DOCTYPE svg PUBLIC "-//W3C//DTD SVG 1.1//EN" "http://www.w3.org/Graphics/SVG/1.1/DTD/svg11.dtd">
<svg version="1.1" id="Capa_1" xmlns="http://www.w3.org/2000/svg" xmlns:xlink="http://www.w3.org/1999/xlink" x="0px" y="0px"
	 width="574.012px" height="574.011px" viewBox="0 0 574.012 574.011" style="enable-background:new 0 0 574.012 574.011;"
	 xml:space="preserve">
<g>
	<g>
		<path d="M205.453,289.37l12.675-3.31l14.392-24.873l-3.322-12.664c0,0-9.575-5.547-14.375-8.309
			c-0.128-2.75-0.403-5.488-0.993-8.133c3.807-3.241,11.397-9.745,11.397-9.745v-13.09l-18.712-21.813h-13.107
			c0,0-6.218,5.319-9.301,7.987c-3.369-1.635-6.937-2.978-10.667-3.994c-0.298-3.696-0.905-11.093-0.905-11.093l-9.271-9.26
			l-28.626,2.324l-9.266,9.266c0,0,0.777,9.709,1.174,14.573c-2.797,1.594-5.453,3.398-7.917,5.395
			c-4.005-1.839-12.062-5.523-12.062-5.523l-12.688,3.322l-11.98,26.127l-0.42,1.757l3.743,10.907c0,0,9.365,4.268,14.047,6.399
			c0.216,3.083,0.695,6.095,1.448,9.003c-3.573,3.024-10.713,9.073-10.713,9.073v13.107l18.572,21.924
			c0,0,10.795,1.273,11.368,0.958c0.59-0.327,1.746-0.958,1.746-0.958s6.784-5.733,10.176-8.618
			c2.861,1.261,5.838,2.359,8.945,3.176c0.339,3.854,1.051,11.56,1.051,11.56l9.26,9.272l28.574-2.616l9.271-9.249
			c0,0-0.899-9.925-1.354-14.894c2.347-1.349,4.606-2.797,6.72-4.438C198.026,285.079,205.453,289.37,205.453,289.37z
			 M155.446,271.487c-15.951,0-28.901-12.927-28.901-28.889c0-15.951,12.95-28.889,28.901-28.889
			c15.962,0,28.913,12.938,28.913,28.889C184.358,258.56,171.408,271.487,155.446,271.487z"/>
		<path d="M294.129,303.12l5.646-1.483l6.399-11.07l-1.495-5.628c0,0-4.25-2.464-6.381-3.696c-0.059-1.244-0.187-2.452-0.427-3.626
			c1.67-1.448,5.045-4.338,5.045-4.338v-5.827l-8.309-9.709h-5.827c0,0-2.773,2.371-4.134,3.55c-1.506-0.724-3.1-1.313-4.758-1.751
			c-0.123-1.652-0.386-4.939-0.386-4.939l-4.127-4.128l-12.734,1.04l-4.11,4.116c0,0,0.333,4.314,0.514,6.492
			c-1.244,0.707-2.417,1.518-3.515,2.406c-1.792-0.817-5.372-2.464-5.372-2.464l-5.652,1.483l-5.359,11.63l-0.193,0.776l1.687,4.846
			c0,0,4.163,1.897,6.23,2.843c0.093,1.378,0.298,2.715,0.648,4.017c-1.582,1.331-4.764,4.04-4.764,4.04v5.815l8.256,9.739
			c0,0,4.805,0.583,5.056,0.444c0.263-0.164,0.776-0.444,0.776-0.444s3.024-2.546,4.531-3.818c1.255,0.572,2.586,1.039,3.97,1.413
			c0.169,1.717,0.479,5.138,0.479,5.138l4.116,4.134l12.711-1.168l4.122-4.134c0,0-0.392-4.402-0.607-6.609
			c1.062-0.619,2.055-1.25,2.978-1.985C290.801,301.205,294.129,303.12,294.129,303.12z M271.884,295.156
			c-7.111,0-12.862-5.751-12.862-12.851c0-7.105,5.751-12.845,12.862-12.845c7.094,0,12.833,5.739,12.833,12.845
			C284.717,289.405,278.978,295.156,271.884,295.156z"/>
		<polygon points="0,415.232 172.506,415.232 172.506,486.124 311.545,486.124 311.545,415.232 342.069,415.232 342.069,362.289 
			52.074,362.289 52.074,123.736 342.069,123.736 342.069,70.804 0,70.804 		"/>
		<rect x="143.08" y="487.501" width="199.013" height="14.573"/>
		<path d="M514.773,393.408c45.611-21.463,59.238-72.516,59.238-102.794c0-25.549-12.833-83.865-64.832-105.596
			c46.65-24.294,61.749-85.36,62.578-121.319l-25.035-0.596c-0.117,4.373-3.667,107.423-82.207,107.423
			c-78.809,0-84.414-103.284-84.612-107.674l-24.989,1.086c1.518,35.744,17.668,96.33,64.271,120.794
			c-44.863,17.924-62.04,62.98-62.04,105.87c0,31.353,12.926,78.938,55.641,100.937c-43.029,25.83-57.077,84.029-57.895,118.78
			l25.035,0.583c0.117-4.391,3.679-107.429,82.207-107.429c78.82,0,84.414,103.284,84.612,107.687l24.989-1.098
			C570.31,476.222,555.83,420.054,514.773,393.408z M382.168,290.614c0-26.758,8.022-88.974,82.23-88.974
			c83.468,0,84.577,88.092,84.577,88.974c0,3.585-0.923,87.847-82.218,87.847C386.256,378.46,382.168,305.269,382.168,290.614z"/>
		<path d="M434.528,356.158h62.11c10.312-4.787,17.691-11.98,23.074-19.828H410.544
			C415.997,344.248,423.716,351.381,434.528,356.158z"/>
		<path d="M532.803,300.341h-134.94c0.643,5.593,1.962,12.553,4.554,19.828h125.553
			C530.701,312.718,532.091,305.759,532.803,300.341z"/>
		<path d="M529.439,266.332h-129.37c-1.739,7.222-2.499,14.158-2.721,19.833H533.34
			C532.943,281.804,531.939,274.593,529.439,266.332z"/>
		<path d="M505.654,230.348h-83.749c-7.263,5.564-12.366,12.506-16.032,19.84h116.736
			C518.592,242.954,513.139,235.994,505.654,230.348z"/>
		<path d="M434.762,147.546h62.1c10.322-4.793,17.702-11.969,23.073-19.828H410.777
			C416.242,135.624,423.938,142.764,434.762,147.546z"/>
		<path d="M528.202,111.569c2.732-7.461,4.134-14.444,4.823-19.839H398.107c0.643,5.582,1.962,12.541,4.555,19.839H528.202z"/>
		<path d="M398.972,471.025c-1.739,7.229-2.499,14.164-2.721,19.84h135.968c-0.373-4.344-1.377-11.572-3.877-19.84H398.972z"/>
		<path d="M504.545,435.048h-83.749c-7.251,5.57-12.354,12.506-16.021,19.839H521.5C517.482,447.66,512.018,440.7,504.545,435.048z"
			/>
	</g>
</g>
<g>
</g>
<g>
</g>
<g>
</g>
<g>
</g>
<g>
</g>
<g>
</g>
<g>
</g>
<g>
</g>
<g>
</g>
<g>
</g>
<g>
</g>
<g>
</g>
<g>
</g>
<g>
</g>
<g>
</g>
</svg>
