<?xml version="1.0" encoding="iso-8859-1"?>
<!-- Generator: Adobe Illustrator 16.0.0, SVG Export Plug-In . SVG Version: 6.00 Build 0)  -->
<!DOCTYPE svg PUBLIC "-//W3C//DTD SVG 1.1//EN" "http://www.w3.org/Graphics/SVG/1.1/DTD/svg11.dtd">
<svg version="1.1" id="Capa_1" xmlns="http://www.w3.org/2000/svg" xmlns:xlink="http://www.w3.org/1999/xlink" x="0px" y="0px"
	 width="580.434px" height="580.434px" viewBox="0 0 580.434 580.434" style="enable-background:new 0 0 580.434 580.434;"
	 xml:space="preserve">
<g>
	<g>
		<path d="M292.214,283.66c0-16.716-28.206-30.279-63.027-30.279s-63.027,13.563-63.027,30.279c0,1.109,0.444,2.178,0.695,3.252
			c-11.123,2.464-18.736,7.223-18.736,12.763c0,8.034,15.91,14.573,35.568,14.573c7.748,0,14.865-1.051,20.698-2.768
			c7.631,1.576,16.003,2.452,24.813,2.452C263.996,313.933,292.214,300.388,292.214,283.66z"/>
		<path d="M351.504,314.692c2.99,0,5.792-0.292,8.338-0.771c3.176,3.947,8.805,7.192,15.869,9.354
			c-2.558,1.167-4.157,2.721-4.157,4.402c0,3.667,7.252,6.644,16.196,6.644c8.956,0,16.208-2.977,16.208-6.644
			c0-0.724-0.351-1.401-0.864-2.056c17.188-1.892,30.08-9.738,30.08-19.162c0-10.831-17.061-19.618-38.114-19.618
			c-5.92,0-11.443,0.747-16.441,1.997c-3.468-3.088-9.878-5.19-17.306-5.19c-11.081,0-20.061,4.612-20.061,10.317
			c0,1.781,0.957,3.445,2.511,4.904c-7.252,1.25-12.343,4.157-12.343,7.579C331.432,311.014,340.411,314.692,351.504,314.692z"/>
		<path d="M272.019,323.742c10.042,0,18.187,3.34,18.187,7.462c0,4.11-8.145,7.461-18.187,7.461
			c-10.043,0-18.188-3.351-18.188-7.461C253.831,327.082,261.976,323.742,272.019,323.742z"/>
		<path d="M568.629,283.672c4.729-10.609,7.286-21.679,7.286-33.11c0-80.999-124.852-144.446-284.227-144.446
			c-159.381,0-284.238,63.447-284.238,144.446c0,10.462,2.125,20.627,6.096,30.396C4.782,295.291,0,310.699,0,326.895
			c0,84.051,124.764,147.423,290.217,147.423c165.447,0,290.217-63.372,290.217-147.423
			C580.422,311.726,576.289,297.229,568.629,283.672z M290.217,424.515c-138.729,0-242.387-51.53-242.387-97.62
			c0-0.386,0.012-0.701,0.012-1.062c49.277,41.78,139.098,69.187,243.847,69.187c102.601,0,190.833-26.32,240.718-66.665
			C530.258,374.059,427.487,424.515,290.217,424.515z M59.536,287.52c40.846-36.217,130.024-62.035,230.681-62.035
			c102.064,0,192.352,26.548,232.393,63.576c-34.693,38.16-118.908,70.074-230.921,70.074
			C178.198,359.135,93.364,326.358,59.536,287.52z M535.792,269.333c-46.439-40.654-137.953-67.762-245.575-67.762
			c-105.905,0-196.198,26.262-243.31,65.841c-2.225-5.611-3.585-11.257-3.585-16.862c0-52.424,99.798-108.562,248.366-108.562
			c148.562,0,248.366,56.138,248.366,108.574C540.043,256.803,538.536,263.091,535.792,269.333z"/>
	</g>
</g>
<g>
</g>
<g>
</g>
<g>
</g>
<g>
</g>
<g>
</g>
<g>
</g>
<g>
</g>
<g>
</g>
<g>
</g>
<g>
</g>
<g>
</g>
<g>
</g>
<g>
</g>
<g>
</g>
<g>
</g>
</svg>
