<?xml version="1.0" encoding="iso-8859-1"?>
<!-- Generator: Adobe Illustrator 16.0.0, SVG Export Plug-In . SVG Version: 6.00 Build 0)  -->
<!DOCTYPE svg PUBLIC "-//W3C//DTD SVG 1.1//EN" "http://www.w3.org/Graphics/SVG/1.1/DTD/svg11.dtd">
<svg version="1.1" id="Capa_1" xmlns="http://www.w3.org/2000/svg" xmlns:xlink="http://www.w3.org/1999/xlink" x="0px" y="0px"
	 width="573.691px" height="573.69px" viewBox="0 0 573.691 573.69" style="enable-background:new 0 0 573.691 573.69;"
	 xml:space="preserve">
<g>
	<path d="M361.982,479.363L342.107,77.086h26.869V21.293h-45.389V0H288.65v21.293h-18.438V0h-34.949v21.293h-48.39v55.793h30.36
		c-9.061,145.053-22.513,348.083-28.048,402.277H25.085v21.695h43.346v72.632h20.925v-72.632h115.557v72.632h20.925v-72.632h124.56
		v72.632h20.926v-72.632h113.595v72.632h20.925v-72.632h42.762v-21.695H361.982z M210.787,53.172v-7.964h134.275v7.964h-4.146
		H218.704H210.787z M239.781,99.588c0.467-7.444,0.935-14.766,1.413-22.502h76.976l1.121,22.502H239.781z M319.875,111.545
		l1.821,37.069l-65.298-37.069H319.875z M311.724,156.689h-75.551c0.863-13.324,1.728-27.015,2.627-41.396L311.724,156.689z
		 M322.701,168.646l2.031,41.337l-73.951-41.337H322.701z M318.707,220.312h-86.645c0.981-14.766,1.985-30.36,3.036-46.738
		L318.707,220.312z M325.83,232.275l2.476,50.48l-83.001-50.48H325.83z M316.172,289.354h-88.688
		c1.074-16.021,2.242-33.257,3.456-51.824L316.172,289.354z M329.24,301.311l2.615,52.745l-93.931-52.745H329.24z M321.672,362.043
		h-99.231c1.144-15.928,2.405-33.781,3.76-53.609L321.672,362.043z M231.105,374h101.73l2.383,48.449L231.105,374z M317.492,427.377
		h-99.979c1.027-12.646,2.148-27.5,3.444-44.91L317.492,427.377z M212.876,479.363c0.958-9.039,2.148-21.813,3.679-40.029H336.07
		l1.985,40.029H212.876z"/>
</g>
<g>
</g>
<g>
</g>
<g>
</g>
<g>
</g>
<g>
</g>
<g>
</g>
<g>
</g>
<g>
</g>
<g>
</g>
<g>
</g>
<g>
</g>
<g>
</g>
<g>
</g>
<g>
</g>
<g>
</g>
</svg>
