<?xml version="1.0" encoding="iso-8859-1"?>
<!-- Generator: Adobe Illustrator 16.0.0, SVG Export Plug-In . SVG Version: 6.00 Build 0)  -->
<!DOCTYPE svg PUBLIC "-//W3C//DTD SVG 1.1//EN" "http://www.w3.org/Graphics/SVG/1.1/DTD/svg11.dtd">
<svg version="1.1" id="Capa_1" xmlns="http://www.w3.org/2000/svg" xmlns:xlink="http://www.w3.org/1999/xlink" x="0px" y="0px"
	 width="564.308px" height="564.308px" viewBox="0 0 564.308 564.308" style="enable-background:new 0 0 564.308 564.308;"
	 xml:space="preserve">
<g>
	<g>
		<polygon points="48.512,104.866 430.068,104.866 430.068,257.369 478.575,257.369 478.575,56.365 0,56.365 0,371.927 
			171.613,371.927 171.613,436.91 301.106,436.91 301.106,371.927 374.169,371.927 374.169,323.433 48.512,323.433 		"/>
		<rect x="101.888" y="438.136" width="268.906" height="13.359"/>
		<path d="M261.257,198.359c11.047,0,20.015-8.968,20.015-20.003c0-11.023-8.968-20.009-20.015-20.009
			c-11.029,0-19.997,8.985-19.997,20.009c0,7.246,3.9,13.534,9.675,17.048l-21.906,40.07c-2.762-1.051-5.774-1.664-8.916-1.664
			c-5.372,0-10.346,1.71-14.421,4.583l-48.897-50.427c3.158-4.192,5.05-9.383,5.05-15.029c0-2.861-0.502-5.582-1.377-8.133
			l24.37-12.927c3.672,4.484,9.184,7.415,15.414,7.415c11.035,0,20.003-8.968,20.003-20.003c0-11.023-8.968-20.003-20.003-20.003
			c-11.023,0-20.003,8.968-20.003,20.003c0,1.997,0.38,3.871,0.917,5.693l-24.37,12.915c-4.578-6.078-11.823-10.036-20.026-10.036
			c-13.837,0-25.077,11.228-25.077,25.076c0,13.849,11.228,25.059,25.077,25.059c5.383,0,10.328-1.705,14.421-4.589l48.893,50.422
			c-3.153,4.198-5.045,9.388-5.045,15.034c0,0.128,0.023,0.263,0.023,0.403l-54.562,9.522c-2.907-7.461-10.13-12.786-18.596-12.786
			c-11.046,0-20.015,8.968-20.015,20.009c0,11.023,8.968,20.002,20.015,20.002c10.86,0,19.682-8.723,19.945-19.512l54.549-9.517
			c3.375,9.85,12.699,16.956,23.705,16.956c13.843,0,25.059-11.222,25.059-25.065c0-7.894-3.661-14.935-9.348-19.53l22.572-41.272
			C259.331,198.213,260.277,198.359,261.257,198.359z M200.239,127.105c6.732,0,12.197,5.477,12.197,12.197
			c0,6.732-5.465,12.197-12.197,12.197c-6.731,0-12.196-5.465-12.196-12.197C188.054,132.582,193.519,127.105,200.239,127.105z
			 M121.903,288.203c-6.731,0-12.208-5.471-12.208-12.191c0-6.732,5.465-12.197,12.208-12.197c6.721,0,12.186,5.465,12.186,12.197
			C134.088,282.743,128.624,288.203,121.903,288.203z M249.073,178.356c0-6.72,5.465-12.197,12.185-12.197
			c6.732,0,12.209,5.477,12.209,12.197c0,6.732-5.465,12.197-12.209,12.197C254.538,190.553,249.073,185.088,249.073,178.356z"/>
		<polygon points="298.934,222.67 316.893,295.034 336.3,279.141 359.515,307.552 372.675,296.797 349.472,268.404 368.903,252.511 
					"/>
		<path d="M398.82,289.557c0,43.825,35.639,79.474,79.463,79.474s79.463-35.649,79.463-79.474c0-5.138-0.537-10.165-1.472-15.041
			H400.291C399.333,279.392,398.82,284.419,398.82,289.557z M466.103,301.993c0-6.738,5.465-12.179,12.18-12.179h0.584
			c6.714,0,12.179,5.465,12.179,12.179v31.68c0,6.715-5.465,12.168-12.179,12.168h-0.584c-6.715,0-12.18-5.453-12.18-12.168V301.993
			z"/>
		<path d="M478.271,380.989c-39.049,0-72.375-24.674-85.453-59.191v42.189v12.798v4.822v16.243v26.309
			c0,46.265,37.507,83.783,83.795,83.783h3.924c46.287,0,83.771-37.53,83.771-83.783v-26.309v-16.243v-4.822v-12.798v-43.812
			C551.697,355.556,517.926,380.989,478.271,380.989z"/>
	</g>
</g>
<g>
</g>
<g>
</g>
<g>
</g>
<g>
</g>
<g>
</g>
<g>
</g>
<g>
</g>
<g>
</g>
<g>
</g>
<g>
</g>
<g>
</g>
<g>
</g>
<g>
</g>
<g>
</g>
<g>
</g>
</svg>
