<?xml version="1.0" encoding="iso-8859-1"?>
<!-- Generator: Adobe Illustrator 16.0.0, SVG Export Plug-In . SVG Version: 6.00 Build 0)  -->
<!DOCTYPE svg PUBLIC "-//W3C//DTD SVG 1.1//EN" "http://www.w3.org/Graphics/SVG/1.1/DTD/svg11.dtd">
<svg version="1.1" id="Capa_1" xmlns="http://www.w3.org/2000/svg" xmlns:xlink="http://www.w3.org/1999/xlink" x="0px" y="0px"
	 width="557.862px" height="557.862px" viewBox="0 0 557.862 557.862" style="enable-background:new 0 0 557.862 557.862;"
	 xml:space="preserve">
<g>
	<g>
		<path d="M127.526,291.25H32.941v-41.775h94.585v-46.083H32.941v-41.746h94.585v-29.14h78.154V93.083h-44.46V68.428H61.258v24.656
			H0v396.351h205.68v-54.019h-78.154V291.25z M51.216,363.134c-10.095,0-18.275-8.197-18.275-18.286
			c0-10.09,8.191-18.275,18.275-18.275c10.077,0,18.269,8.186,18.269,18.275C69.497,354.949,61.305,363.134,51.216,363.134z
			 M114.348,366.953l-11.514-0.782v-44.209l11.525,0.816v44.175H114.348z"/>
		<path d="M217.708,343.038c8.957,0,17.901,0,26.869,0c3.515,0,5.88-2.3,7.077-5.383c4.186-10.754,8.361-21.51,12.547-32.252
			c5.331,10.953,10.662,21.906,15.986,32.859c2.855,5.838,11.905,4.099,13.446-1.752c7.73-29.753,15.484-59.5,23.237-89.248
			c6.598,30.133,13.195,60.266,19.781,90.393c1.705,7.742,11.771,6.236,14.164,0c7.298-19.057,14.585-38.114,21.883-57.177
			c6.049,18.829,12.109,37.653,18.182,56.476c1.845,5.793,10.265,7.614,13.429,1.752c4.063-7.566,8.162-15.133,12.202-22.7
			c2.722,7.217,5.419,14.433,8.116,21.649c1.168,3.083,3.596,5.383,7.1,5.383c22.957,0,45.938,0,68.906,0
			c9.494,0,9.494-14.701,0-14.701c-19.852,0-39.726,0-59.6,0c-2.581,0-4.11,0.373-5.01,0.817c0.07-1.308-0.257-3.562-1.635-7.228
			c-3.223-8.514-6.388-17.038-9.599-25.562c-2.078-5.559-10.171-7.8-13.429-1.752c-3.9,7.24-7.801,14.491-11.688,21.743
			c-6.411-19.968-12.856-39.93-19.279-59.886c-2.347-7.281-11.618-6.708-14.176,0c-6.843,17.913-13.709,35.808-20.552,53.72
			c-7.053-32.124-14.082-64.259-21.112-96.382c-1.588-7.211-12.401-6.866-14.176,0c-8.665,33.227-17.306,66.454-25.958,99.687
			c-4.893-10.007-9.745-20.049-14.649-30.062c-3.059-6.312-11.338-3.562-13.429,1.757c-4.928,12.693-9.855,25.386-14.789,38.079
			c-0.957,2.477-1.687,4.018-2.213,5.068c-7.222,0-14.433,0-21.655,0C208.238,328.336,208.238,343.038,217.708,343.038z"/>
		<path d="M143.681,147.464v273.11h148.526v56.226h112.054v-56.226h153.601v-273.11H143.681z M515.894,378.594H185.648V189.438
			h330.222v189.157H515.894z"/>
		<rect x="231.855" y="477.885" width="232.754" height="11.549"/>
	</g>
</g>
<g>
</g>
<g>
</g>
<g>
</g>
<g>
</g>
<g>
</g>
<g>
</g>
<g>
</g>
<g>
</g>
<g>
</g>
<g>
</g>
<g>
</g>
<g>
</g>
<g>
</g>
<g>
</g>
<g>
</g>
</svg>
