<?xml version="1.0" encoding="iso-8859-1"?>
<!-- Generator: Adobe Illustrator 16.0.0, SVG Export Plug-In . SVG Version: 6.00 Build 0)  -->
<!DOCTYPE svg PUBLIC "-//W3C//DTD SVG 1.1//EN" "http://www.w3.org/Graphics/SVG/1.1/DTD/svg11.dtd">
<svg version="1.1" id="Capa_1" xmlns="http://www.w3.org/2000/svg" xmlns:xlink="http://www.w3.org/1999/xlink" x="0px" y="0px"
	 width="530.271px" height="530.271px" viewBox="0 0 530.271 530.271" style="enable-background:new 0 0 530.271 530.271;"
	 xml:space="preserve">
<g>
	<g>
		<path d="M78.703,302.913c0.572-3.55-0.321-5.138-2.236-5.243c-2.592-0.771-6.779,1.775-10.247,4.426
			C44.408,318.713,1.722,377.109,0.046,424.495c-0.058,1.109-0.035,2.23-0.046,3.34c0.023,1.81,0.023,3.608,0.181,5.384
			c0.187,2.486,0.514,4.916,0.993,7.285c0.164,0.842,0.333,1.682,0.561,2.488c0.683,2.86,1.506,5.675,2.657,8.349
			c1.191,2.791,2.545,5.325,3.97,7.776c0.345,0.572,0.689,1.121,1.028,1.67c1.43,2.301,2.966,4.484,4.624,6.481
			c0.251,0.315,0.549,0.596,0.829,0.911c1.495,1.729,3.083,3.34,4.723,4.846c0.415,0.361,0.812,0.759,1.227,1.133
			c1.868,1.6,3.807,3.059,5.804,4.379c0.14,0.105,0.263,0.233,0.402,0.314c0-0.023,0-0.046,0-0.069
			c38.196,24.767,99.034-0.456,92.78-40.192C111.995,389.195,70.191,356.779,78.703,302.913z M78.464,470.013
			c0,0,11.671-13.452,11.853-29.8c0.163-16.348-4.438-39.621-4.438-39.621s16.214,17.866,14.287,39.049
			C98.263,460.811,78.464,470.013,78.464,470.013z"/>
		<path d="M282.843,225.085c1.424-2.697,3.106-5.15,4.975-7.392c-2.312-2.079-4.893-3.9-7.766-5.418
			c-18.894-9.902-42.266-2.627-52.191,16.29c-9.925,18.905-2.633,42.283,16.26,52.197c15.507,8.139,33.98,4.706,45.611-7.216
			C277.623,260.887,274.277,241.445,282.843,225.085z"/>
		<path d="M339.523,207.406c10.767,5.664,18.029,15.367,20.972,26.273c8.244-3.281,15.438-9.412,19.898-17.913
			c9.925-18.894,2.65-42.283-16.255-52.197c-18.917-9.914-42.306-2.639-52.231,16.266c-4.11,7.835-5.267,16.453-3.842,24.557
			C318.178,201.369,329.446,202.128,339.523,207.406z"/>
		<path d="M323.525,255.703l4.204,6.061c-3.912,3.188-7.252,7.216-9.738,11.958c-0.643,1.214-1.215,2.44-1.717,3.69
			c13.207,1.495,26.588-4.951,33.128-17.411c1.19-2.242,2.055-4.554,2.662-6.89c-7.474,0.023-14.783,2.172-21.019,6.236
			l-4.239-6.119c0.689-0.724,1.296-1.518,1.787-2.429c2.546-4.858,1.261-10.685-2.698-14.118l2.651-4.46
			c7.521,3.842,15.706,4.962,23.471,3.748c-2.323-8.629-8.058-16.29-16.581-20.762c-7.94-4.169-16.862-4.752-24.873-2.382
			c2.932,6.901,7.812,13.008,14.434,17.341l-2.65,4.449c-5.372-2.008-11.514,0.222-14.234,5.418c-0.514,0.98-0.83,2.008-1.052,3.059
			l-6.469,0.035c-0.584-6.714-2.966-13.184-6.843-18.73c-1.121,1.495-2.195,3.071-3.083,4.776
			c-6.562,12.495-4.285,27.278,4.508,37.297c0.42-0.654,0.806-1.308,1.179-1.985c2.884-5.535,4.286-11.42,4.402-17.259l6.201-0.047
			c0.549,3.48,2.65,6.714,6.025,8.478C316.391,257.466,320.291,257.326,323.525,255.703z"/>
		<path d="M370.188,257.442c-3.024-1.588-6.143-2.674-9.318-3.41c-0.771,3.421-1.962,6.796-3.679,10.066
			c-8.489,16.173-26.098,24.452-43.229,21.964c-2.301,15.8,5.349,32.043,20.283,39.866c18.905,9.914,42.295,2.663,52.221-16.255
			C396.367,290.746,389.081,267.356,370.188,257.442z"/>
		<path d="M526.824,271.233L337.935,60.169c-1.307-1.436-2.825-2.51-4.483-3.27c-1.284-0.922-2.826-1.635-4.659-1.997
			c-22.361-4.344-44.712-8.711-67.067-13.079c-13.727-2.686-37.583,28.083-46.084,35.697c-11.396,10.206-22.77,20.4-34.179,30.594
			c-4.396,3.947-12.529,8.991-14.836,14.818c-6.375,16.021,4.473,47.234,6.551,64.049c0.1,0.748,0.263,1.413,0.467,2.079
			l-15.676,14.013c-11.105,3.176-22.228,6.352-33.361,9.528c-0.823,0.233-1.425,0.374-2.009,0.514
			c-2.464-1.553-4.939-3.106-7.415-4.659c-7.602-4.799-15.209-9.563-22.799-14.328c-4.986-3.165-12.016-1.938-15.618,2.148
			c-1.816,1.028-3.048,2.989-2.417,5.652c0.076,0.35,0.17,0.712,0.251,1.086c0.041,0.596-0.035,1.167,0.123,1.798
			c7.882,34.634,15.781,69.222,23.675,103.833c0.333,1.495,1.074,2.803,1.961,4.041c0.193,0.314,0.403,0.607,0.66,0.852
			c4.443,5.209,12.985,6.913,17.311-0.012c4.315-6.842,8.647-13.709,12.961-20.586c2.692-4.263,5.384-8.548,8.046-12.822
			c1.845-2.896,3.316-4.507,3.97-5.231c5.167-1.495,10.311-3.013,15.46-4.507l164.14,183.377c4.997,5.559,13.557,6.037,19.115,1.051
			l183.773-164.46C531.331,285.374,531.798,276.827,526.824,271.233z M188.749,131.47c3.24-2.896,6.481-5.815,9.733-8.711
			c10.363-9.283,20.721-18.566,31.079-27.827c9.575-8.583,19.15-17.142,28.72-25.713c1.676-1.483,3.322-2.966,4.974-4.449
			c13.493,2.616,26.945,5.243,40.421,7.882l-110.016,98.473C192.024,157.907,190.395,144.688,188.749,131.47z M394.405,310.644
			c-12.588,23.962-42.189,33.175-66.139,20.622c-20.015-10.498-29.684-32.859-25.036-53.902
			c-14.456,17.515-39.632,23.144-60.534,12.179c-23.95-12.564-33.181-42.154-20.61-66.116
			c12.564-23.961,42.172-33.187,66.127-20.633c2.499,1.331,4.8,2.849,6.983,4.519c-1.028-9.318,0.642-19.034,5.312-27.967
			c12.576-23.961,42.189-33.175,66.14-20.61c23.949,12.565,33.174,42.155,20.609,66.116c-4.017,7.671-9.809,13.802-16.581,18.216
			c1.039,0.467,2.067,0.911,3.095,1.448C397.745,257.092,406.97,286.705,394.405,310.644z"/>
	</g>
</g>
<g>
</g>
<g>
</g>
<g>
</g>
<g>
</g>
<g>
</g>
<g>
</g>
<g>
</g>
<g>
</g>
<g>
</g>
<g>
</g>
<g>
</g>
<g>
</g>
<g>
</g>
<g>
</g>
<g>
</g>
</svg>
