<?xml version="1.0" encoding="iso-8859-1"?>
<!-- Generator: Adobe Illustrator 16.0.0, SVG Export Plug-In . SVG Version: 6.00 Build 0)  -->
<!DOCTYPE svg PUBLIC "-//W3C//DTD SVG 1.1//EN" "http://www.w3.org/Graphics/SVG/1.1/DTD/svg11.dtd">
<svg version="1.1" id="Capa_1" xmlns="http://www.w3.org/2000/svg" xmlns:xlink="http://www.w3.org/1999/xlink" x="0px" y="0px"
	 width="546.21px" height="546.21px" viewBox="0 0 546.21 546.21" style="enable-background:new 0 0 546.21 546.21;"
	 xml:space="preserve">
<g>
	<g>
		<path d="M81.068,311.986c0.589-3.643-0.333-5.277-2.295-5.383c-2.68-0.806-6.994,1.811-10.556,4.554
			c-22.479,17.107-66.449,77.279-68.171,126.09c-0.058,1.132-0.035,2.276-0.046,3.433c0.023,1.857,0.023,3.713,0.181,5.547
			c0.204,2.557,0.537,5.057,1.027,7.52c0.17,0.865,0.345,1.717,0.572,2.558c0.707,2.954,1.553,5.839,2.738,8.606
			c1.232,2.861,2.634,5.488,4.104,7.998c0.345,0.607,0.701,1.18,1.051,1.74c1.483,2.383,3.059,4.625,4.758,6.668
			c0.263,0.338,0.561,0.619,0.847,0.945c1.547,1.787,3.182,3.445,4.857,4.998c0.433,0.373,0.835,0.794,1.267,1.168
			c1.915,1.646,3.912,3.152,5.967,4.52c0.151,0.093,0.274,0.232,0.432,0.314c0-0.023,0-0.047-0.012-0.07
			c39.352,25.504,102.006-0.467,95.56-41.395C115.352,400.873,72.305,367.488,81.068,311.986z M80.817,484.107
			c0,0,12.022-13.85,12.208-30.688c0.181-16.839-4.565-40.801-4.565-40.801s16.704,18.404,14.719,40.217
			C101.217,474.625,80.817,484.107,80.817,484.107z"/>
		<path d="M345.502,181.833c-44.747,0-81.15,36.409-81.15,81.144c0,44.747,36.403,81.156,81.15,81.156s81.155-36.409,81.155-81.156
			C426.657,218.242,390.249,181.833,345.502,181.833z M345.502,189.353c10.509,0,20.481,2.248,29.52,6.23l-15.437,49.143
			c-3.9-3.071-8.734-4.986-14.083-4.986c-7.298,0-13.744,3.515-17.937,8.886l-29.916-41.483
			C310.506,196.085,327.216,189.353,345.502,189.353z M318.224,331.324c-24.802-9.949-43.018-32.977-45.932-60.546l50.568-10.065
			c-0.047,0.625-0.176,1.208-0.176,1.833c0,10.836,7.602,19.886,17.75,22.198L318.224,331.324z M330.603,262.545
			c0-8.227,6.679-14.9,14.876-14.9c8.232,0,14.9,6.674,14.9,14.9c0,8.232-6.668,14.888-14.9,14.888
			C337.281,277.434,330.603,270.777,330.603,262.545z M419.114,262.977c0,25.538-13.055,48.052-32.836,61.259l-33.863-40.088
			c9.189-2.943,15.893-11.479,15.893-21.614c0-2.335-0.456-4.531-1.109-6.65l51.122-3.094
			C418.787,256.146,419.114,259.521,419.114,262.977z"/>
		<path d="M542.646,279.36L348.071,61.956c-1.32-1.478-2.896-2.592-4.602-3.369c-1.331-0.969-2.919-1.675-4.799-2.055
			c-23.039-4.484-46.066-8.979-69.082-13.463c-14.158-2.773-38.704,28.924-47.479,36.753
			c-11.729,10.509-23.465,21.025-35.207,31.522c-4.53,4.075-12.903,9.254-15.279,15.256c-6.574,16.511,4.601,48.641,6.743,65.993
			c0.094,0.753,0.263,1.448,0.479,2.131l-16.144,14.433c-11.444,3.275-22.911,6.551-34.366,9.814
			c-0.847,0.239-1.471,0.391-2.067,0.537c-2.545-1.617-5.097-3.206-7.643-4.805c-7.83-4.928-15.688-9.832-23.495-14.76
			c-5.144-3.235-12.377-1.997-16.085,2.225c-1.874,1.068-3.141,3.077-2.499,5.815c0.088,0.368,0.181,0.742,0.251,1.098
			c0.035,0.636-0.035,1.22,0.123,1.88c8.127,35.645,16.26,71.307,24.394,106.933c0.344,1.53,1.109,2.908,2.02,4.182
			c0.205,0.314,0.415,0.63,0.683,0.875c4.577,5.348,13.364,7.135,17.837-0.012c4.449-7.064,8.897-14.129,13.347-21.193
			c2.762-4.402,5.547-8.793,8.285-13.207c1.892-2.989,3.409-4.647,4.087-5.395c5.313-1.542,10.62-3.094,15.928-4.636
			l169.084,188.865c5.149,5.734,13.942,6.236,19.676,1.075l189.298-169.399C547.306,293.921,547.796,285.117,542.646,279.36z
			 M194.424,135.399c3.328-2.989,6.685-6.002,10.036-8.991c10.69-9.552,21.34-19.104,32.007-28.65
			c9.867-8.822,19.717-17.662,29.596-26.483c1.723-1.518,3.421-3.06,5.132-4.589c13.879,2.697,27.739,5.401,41.623,8.116
			L199.485,176.234C197.787,162.642,196.111,149.021,194.424,135.399z M345.502,353.089c-49.674,0-90.095-40.426-90.095-90.112
			c0-49.686,40.42-90.1,90.095-90.1c49.675,0,90.101,40.414,90.101,90.1C435.603,312.664,395.177,353.089,345.502,353.089z"/>
	</g>
</g>
<g>
</g>
<g>
</g>
<g>
</g>
<g>
</g>
<g>
</g>
<g>
</g>
<g>
</g>
<g>
</g>
<g>
</g>
<g>
</g>
<g>
</g>
<g>
</g>
<g>
</g>
<g>
</g>
<g>
</g>
</svg>
