<?xml version="1.0" encoding="iso-8859-1"?>
<!-- Generator: Adobe Illustrator 16.0.0, SVG Export Plug-In . SVG Version: 6.00 Build 0)  -->
<!DOCTYPE svg PUBLIC "-//W3C//DTD SVG 1.1//EN" "http://www.w3.org/Graphics/SVG/1.1/DTD/svg11.dtd">
<svg version="1.1" id="Capa_1" xmlns="http://www.w3.org/2000/svg" xmlns:xlink="http://www.w3.org/1999/xlink" x="0px" y="0px"
	 width="525.867px" height="525.867px" viewBox="0 0 525.867 525.867" style="enable-background:new 0 0 525.867 525.867;"
	 xml:space="preserve">
<g>
	<path d="M367.771,418.671c-4.121-1.086-8.267-1.028-12.226-0.187l-47.841-265.573c7.847-10.544,12.658-23.459,12.658-37.594
		c0-28.72-19.35-52.769-45.623-60.482V0h-30.313v53.294c-28.877,5.874-50.673,31.446-50.673,62.035
		c0,15.221,5.623,29.035,14.614,39.959l-38.506,266.676c-13.738-2.429-27.704,6.259-31.242,19.827
		c-1.857,7.053-0.841,14.387,2.832,20.681c3.673,6.294,9.604,10.778,16.657,12.623c1.314,0.339,2.68,0.374,4.017,0.537
		l-1.588,10.977l6.54,6.083l-5.693,33.176h10.02l5.085-24.406l7.876,7.322l48.32-335.057c3.742,1.571,7.678,2.803,11.729,3.637
		v35.277h30.302v-36.83c3.223-0.946,6.364-2.043,9.353-3.468l49.663,275.697c0.093,0.875,0.292,1.74,0.467,2.604l10.369,57.521
		l10.72-13.709l7.766,28.843l2.102-0.525l-4.542-35.125l5.979-7.648l-1.437-7.964c10.533-1.705,19.326-9.459,22.104-20.072
		C391.079,437.4,382.332,422.466,367.771,418.671z M257.043,75.942c21.714,0,39.393,17.673,39.393,39.387
		c0,21.713-17.679,39.398-39.393,39.398s-39.387-17.685-39.387-39.398C217.656,93.615,235.329,75.942,257.043,75.942z
		 M151.779,456.446c-2.066-3.538-2.639-7.66-1.6-11.63c1.758-6.762,7.871-11.479,14.842-11.479c1.302,0,2.616,0.174,3.883,0.502
		c8.203,2.148,13.119,10.544,10.988,18.718c-2.103,8.034-10.557,13.148-18.76,10.977
		C157.175,462.507,153.853,459.984,151.779,456.446z M375.712,448.938c-2.103,8.046-10.533,13.148-18.754,10.988
		c-3.959-1.039-7.286-3.561-9.354-7.1c-2.066-3.538-2.639-7.672-1.6-11.643c1.752-6.748,7.87-11.467,14.842-11.467
		c1.296,0,2.615,0.176,3.877,0.491C372.933,432.368,377.849,440.764,375.712,448.938z"/>
</g>
<g>
</g>
<g>
</g>
<g>
</g>
<g>
</g>
<g>
</g>
<g>
</g>
<g>
</g>
<g>
</g>
<g>
</g>
<g>
</g>
<g>
</g>
<g>
</g>
<g>
</g>
<g>
</g>
<g>
</g>
</svg>
