<?xml version="1.0" encoding="iso-8859-1"?>
<!-- Generator: Adobe Illustrator 16.0.0, SVG Export Plug-In . SVG Version: 6.00 Build 0)  -->
<!DOCTYPE svg PUBLIC "-//W3C//DTD SVG 1.1//EN" "http://www.w3.org/Graphics/SVG/1.1/DTD/svg11.dtd">
<svg version="1.1" id="Capa_1" xmlns="http://www.w3.org/2000/svg" xmlns:xlink="http://www.w3.org/1999/xlink" x="0px" y="0px"
	 width="580.854px" height="580.854px" viewBox="0 0 580.854 580.854" style="enable-background:new 0 0 580.854 580.854;"
	 xml:space="preserve">
<g>
	<g>
		<path d="M450.485,400.642l-25.981-26.998c-29.415,18.684-64.235,29.684-101.673,29.684c-104.93,0-190.016-85.068-190.016-190.021
			c0-80.397,50.019-148.953,120.543-176.715L229.835,0C149.397,35.703,93.236,116.141,93.236,209.791
			c0,115.394,85.231,210.655,196.123,226.909v106.799h-116.03v37.355h272.603v-37.355H344.2V438.323
			C383.296,434.692,419.564,421.368,450.485,400.642z"/>
		<path d="M157.816,215.448c0,91.052,73.84,164.875,164.898,164.875c91.058,0,164.903-73.823,164.903-164.875
			c0-91.081-73.846-164.904-164.903-164.904C231.656,50.544,157.816,124.355,157.816,215.448z M390.325,107.149
			c0,0,1.226-11.765,2.055-18.006c2.861-1.366,6.562,4.974,16.395,15.279c-6.644,24.586-14.211,21.416-14.211,21.416
			s-1.646-1.95-4.238-6.061c-0.841-1.378-5.979-1.401-5.605-3.789L390.325,107.149z M369.306,98.491
			c2.873-1.372,3.69-10.591,13.522-0.251c-6.621,24.598-10.416,10.153-10.416,10.153s-3.923,6.516-6.469,2.406
			C365.056,109.409,368.489,104.744,369.306,98.491z M337.322,235.212c0-67.546,51.8-16.57,51.8-16.57
			c29.578,19.682,33.49-16.301,33.49-16.301l21.661-7.818l1.962-9.879l-3.13-13.75c0,0-34.518-2.75-26.425,9.803
			c0,0-2.698,14.281-9.307,10.585l-14.947-8.057l0.829,10.433l-1.46-0.187l-2.521,1.734l-4.146-0.782l4.146-4.075l-0.152-8.227
			c0,0-5.616-5.342-15.519,4.881c-7.987,8.262-22.957,7.818-27.021-1.892c-4.041-9.709-1.74-17.195,8.617-22.338l9.855-4.77
			c0,0-0.514-3.62,1.448-11.49c1.938-7.871,5.395-0.993,13.288-6.913c7.824-5.868,12.074-2.032,23.892-3.97
			c11.782-1.985,8.081-17.696,15.975-21.626c7.87-3.947,24.545,7.497,24.545,7.497l15.04,21.831c0,0,14.293,55.665,8.875,63.81
			c-3.234-1.448-8.093-0.841-8.093-0.841l-8.629,5.704l0.724,8.11c0,0,5.698,8.355,13.791,7.83
			c-5.313,61.737-56.845,101.41-56.845,101.41c-7.87-7.929-4.099-2.207-4.099-2.207l-2.721,3.854l-6.142,8.524
			c0,0-4.531,8.63-24.207,18.427c-21.171,5.395,5.337-27.757-16.067-26.273C334.474,333.147,337.322,235.212,337.322,235.212z
			 M288.057,84.262c15.671-14.549,40.66-11.56,42.575-8.127c-4.461,7.315-11.374,4.875-12.121,12.255
			c-0.747,7.386-12.518,17.002-11.046,19.968c1.471,2.966,0,15.606-10.346,4.508c-10.328-11.07-20.697-14.824-19.933-22.251
			C277.343,89.143,287.888,86.837,288.057,84.262z M258.712,89.919l3.743,15.484c0,0-8.127,2.201-12.576,0.753
			c-4.414-1.483-6.65-1.483-6.65-1.483l-5.897,8.133c0,0-2.248,5.179-3.001,8.116c-0.712,2.966,1.483,7.356,1.483,7.356
			s10.346,0.753,10.346-2.201s-1.448-4.414-1.448-4.414l-1.471-5.196c0,0,6.65-3.684,24.312-2.242
			c17.778,1.495,11.14,14.03,18.508,17.019c7.415,2.943-5.932,13.271-8.875,19.156c-2.937,5.92-7.362-7.368-7.362-7.368
			s4.426-5.114-2.954-6.644c-7.403-1.448-8.548,12.588-8.548,12.588l7.076,7.643l-4.449,11.514l-11.706,14.135
			c-3.299-2.009-2.113,1.039-1.611,2.078c-2.154-3.9-0.695,14.83-0.695,17.767c0,2.942-8.863-5.19-10.346-12.588
			c-1.477-7.345-10.124-0.935-13.09-0.158c-2.954,0.718-8.32-1.291-9.756-4.975c-1.483-3.708-14.795,7.368-18.526,9.581
			c-3.678,2.236-2.16,8.139,3.731,5.179c5.885-2.942,2.212,7.397,2.954,11.07c0.718,3.696,6.639,7.38,8.075,12.565
			c1.518,5.155,15.554,0.753,19.968-1.472c4.408-2.248,17.002-4.431,18.461,1.472c1.495,5.932,15.484,8.109,20.674,9.581
			c5.19,1.471,15.519,2.224,21.416,8.156c5.897,5.879-4.414,16.955-5.144,20.668c-0.753,3.696-12.576,26.56-16.272,29.502
			c-3.672,3.001-6.072,11.017-6.072,11.017l-0.531,9.669c0,0,1.413,10.357,3.625,14.07c2.212,3.679-7.894,25.654-7.894,25.654
			c-6.404-1.26-9.972-8.723-12.208-14.596c-2.201-5.932-5.138-9.073-4.408-15.682c0.753-6.668-5.728-10.171-7.929-13.85
			c-1.016-1.74-3.603-10.404-10.165-16.897c-7.403-7.327-18.94-12.553-20.09-14.118c-2.248-2.942-4.449-15.507-5.202-20.674
			c-0.73-5.155,2.224-18.426,2.224-18.426s5.956-4.473,2.201-8.122c-3.672-3.696-4.414-13.306-4.414-13.306
			s-11.799-14.754-12.529-18.473c-0.741-3.661,0-5.885,0.73-9.581c0.73-3.719-1.459-10.34-1.459-14.036
			C212.488,105.678,258.712,89.919,258.712,89.919z"/>
	</g>
</g>
<g>
</g>
<g>
</g>
<g>
</g>
<g>
</g>
<g>
</g>
<g>
</g>
<g>
</g>
<g>
</g>
<g>
</g>
<g>
</g>
<g>
</g>
<g>
</g>
<g>
</g>
<g>
</g>
<g>
</g>
</svg>
