<?xml version="1.0" encoding="iso-8859-1"?>
<!-- Generator: Adobe Illustrator 16.0.0, SVG Export Plug-In . SVG Version: 6.00 Build 0)  -->
<!DOCTYPE svg PUBLIC "-//W3C//DTD SVG 1.1//EN" "http://www.w3.org/Graphics/SVG/1.1/DTD/svg11.dtd">
<svg version="1.1" id="Capa_1" xmlns="http://www.w3.org/2000/svg" xmlns:xlink="http://www.w3.org/1999/xlink" x="0px" y="0px"
	 width="538.922px" height="538.922px" viewBox="0 0 538.922 538.922" style="enable-background:new 0 0 538.922 538.922;"
	 xml:space="preserve">
<g>
	<g>
		<path d="M250.678,397.559c93.855,0,170.2-76.346,170.2-170.188s-76.345-170.199-170.2-170.199
			c-93.843,0-170.188,76.345-170.188,170.199S156.835,397.559,250.678,397.559z M314.149,221.316c0-0.491,0.035-1.04,0.035-1.53
			c0-12.862-1.027-27.155-2.569-41.611h37.483c1.95,14.795,3.352,29.882,3.562,43.141H314.149z M352.497,233.273
			c-0.596,12.938-2.395,27.932-4.671,42.832h-38.558c2.125-14.859,3.771-29.543,4.483-42.832H352.497z M310.202,166.206
			c-1.682-13.317-3.713-26.483-5.792-38.563h36.316c2.008,10.288,4.483,23.915,6.679,38.563H310.202z M307.47,288.062h38.441
			c-2.616,15.519-5.535,30.209-7.952,41.653H299.95C302.519,316.823,305.157,302.577,307.47,288.062z M302.181,221.316h-45.763
			c0.374-15.04,0.549-29.52,0.59-43.141h42.545c1.6,14.556,2.674,28.889,2.674,41.611
			C302.215,220.277,302.192,220.826,302.181,221.316z M301.771,233.273c-0.747,13.201-2.44,27.909-4.624,42.832h-42.236
			l1.209-42.832H301.771z M297.521,341.672h37.857c-0.49,2.113-0.887,3.959-1.249,5.477c-12.786,8.944-26.986,15.998-42.318,20.505
			C293.387,360.87,295.349,351.995,297.521,341.672z M355.007,329.715h-4.799c2.452-11.701,5.302-26.285,7.858-41.653h25.538
			C376.493,303.582,366.836,317.665,355.007,329.715z M388.438,276.105h-28.48c2.207-14.836,3.947-29.759,4.496-42.832h32.205
			C396.075,248.244,393.227,262.618,388.438,276.105z M396.659,221.316h-32.041c-0.211-13.411-1.565-28.434-3.457-43.141h27.114
			C393.133,191.75,396.053,206.229,396.659,221.316z M383.395,166.206h-23.88c-2.125-14.503-4.554-28.001-6.598-38.563h4.484
			C368.004,138.981,376.809,151.966,383.395,166.206z M336.989,109.566c0.199,0.922,0.643,2.966,1.309,6.13h-36.013
			c-1.938-10.58-3.807-19.798-5.325-26.986C311.464,93.569,324.892,100.704,336.989,109.566z M298.116,166.206h-41.121
			c-0.064-14.012-0.269-26.951-0.543-38.563h35.779C294.321,139.688,296.399,152.877,298.116,166.206z M283.952,85.039
			c1.518,7.082,3.737,17.843,6.119,30.646h-33.928c-0.432-14.503-0.946-26.244-1.349-34.4
			C264.79,81.576,274.541,82.855,283.952,85.039z M254.59,288.062h40.724c-2.347,14.538-5.009,28.831-7.59,41.653h-34.295
			L254.59,288.062z M253.084,341.672h32.164c-2.65,12.553-4.951,22.7-6.48,29.192c-8.624,1.693-17.504,2.616-26.595,2.71
			L253.084,341.672z M152.748,288.062h38.383c1.816,14.351,3.924,28.574,6.014,41.653h-36.146
			C158.534,318.458,155.498,303.674,152.748,288.062z M150.74,276.105c-2.371-14.789-4.256-29.712-5.021-42.832h40.549
			c0.461,13.096,1.734,27.803,3.438,42.832H150.74z M164.536,345.327c-0.263-1.098-0.525-2.254-0.847-3.654h35.417
			c1.506,9.003,2.942,17.131,4.198,23.938C189.292,360.799,176.266,353.91,164.536,345.327z M240.228,373.119
			c-8.227-0.596-16.261-1.856-24.055-3.749c-1.354-7.274-3.053-16.768-4.893-27.686h29.835L240.228,373.119z M241.447,329.715
			h-32.141c-2.103-13.056-4.233-27.278-6.072-41.653h39.375L241.447,329.715z M242.942,276.105h-41.168
			c-1.746-15.099-3.06-29.847-3.538-42.832h45.903L242.942,276.105z M213.183,86.142c9.541-2.534,19.442-4.116,29.642-4.665
			c0.403,8.022,0.917,19.682,1.36,34.208h-35.872C210.346,102.414,212.167,91.87,213.183,86.142z M206.545,127.654h37.95
			c0.274,11.589,0.479,24.54,0.543,38.563h-43.386C203.1,152.684,204.834,139.518,206.545,127.654z M245.05,178.164
			c-0.029,13.621-0.204,28.101-0.59,43.141h-46.404c0.082-13.353,1.004-28.194,2.394-43.141H245.05z M160.151,112.696
			c12.004-9.505,25.55-17.095,40.164-22.49c-1.098,6.388-2.557,15.175-4.14,25.491h-36.672
			C159.731,114.658,159.959,113.595,160.151,112.696z M157.075,127.654h37.343c-1.693,11.899-3.392,25.053-4.828,38.563h-39.235
			C152.497,151.837,154.973,138.345,157.075,127.654z M148.708,178.164h39.708c-1.349,14.853-2.248,29.654-2.318,43.141h-40.753
			C145.38,208.214,146.77,193.099,148.708,178.164z M143.961,127.654h0.905c-2.125,10.883-4.542,24.323-6.609,38.563h-20.283
			C124.577,151.966,133.364,138.981,143.961,127.654z M113.099,178.164h23.518c-1.874,14.842-3.193,29.882-3.24,43.141h-28.662
			C105.339,206.229,108.229,191.75,113.099,178.164z M104.703,233.273h29.046c0.73,13.219,2.557,28.089,4.864,42.832h-25.684
			C108.147,262.618,105.304,248.244,104.703,233.273z M140.575,288.062c2.68,15.484,5.657,30.116,8.168,41.653h-2.394
			c-11.811-12.051-21.474-26.134-28.597-41.653H140.575z"/>
		<path d="M299.81,428.317c90.848-21.849,158.622-103.564,158.622-201.034c0-85.996-52.851-159.579-127.701-190.716l7.905-27.529
			L307.062,0l-7.579,26.379c-11.093-2.657-22.443-4.578-34.144-5.36v23.915c94.468,7.152,169.178,86.107,169.178,182.361
			c0,100.937-82.113,183.062-183.062,183.062c-39.638,0-76.264-12.786-106.273-34.284l-17.066,17.061
			c33.134,24.697,73.776,39.76,117.916,40.928v59.998H129.178v44.863H415.81v-44.863H299.821v-65.742H299.81z"/>
	</g>
</g>
<g>
</g>
<g>
</g>
<g>
</g>
<g>
</g>
<g>
</g>
<g>
</g>
<g>
</g>
<g>
</g>
<g>
</g>
<g>
</g>
<g>
</g>
<g>
</g>
<g>
</g>
<g>
</g>
<g>
</g>
</svg>
