<?xml version="1.0" encoding="iso-8859-1"?>
<!-- Generator: Adobe Illustrator 16.0.0, SVG Export Plug-In . SVG Version: 6.00 Build 0)  -->
<!DOCTYPE svg PUBLIC "-//W3C//DTD SVG 1.1//EN" "http://www.w3.org/Graphics/SVG/1.1/DTD/svg11.dtd">
<svg version="1.1" id="Capa_1" xmlns="http://www.w3.org/2000/svg" xmlns:xlink="http://www.w3.org/1999/xlink" x="0px" y="0px"
	 width="524.629px" height="524.629px" viewBox="0 0 524.629 524.629" style="enable-background:new 0 0 524.629 524.629;"
	 xml:space="preserve">
<g>
	<g>
		<polygon points="497.726,467.831 479.019,467.831 479.019,450.644 50.136,450.644 50.136,467.831 29.94,467.831 29.94,485.021 
			11.958,485.021 11.958,519.397 517.202,519.397 517.202,485.021 497.726,485.021 		"/>
		<polygon points="452.885,441.675 452.885,199.539 497.726,199.539 497.726,169.645 23.915,169.645 23.915,199.539 70.25,199.539 
			70.25,441.675 116.584,441.675 116.584,199.539 176.371,199.539 176.371,441.675 222.706,441.675 222.706,199.539 
			300.429,199.539 300.429,441.675 346.764,441.675 346.764,199.539 406.55,199.539 406.55,441.675 		"/>
		<polygon points="264.58,5.231 0,155.819 524.629,155.819 		"/>
	</g>
</g>
<g>
</g>
<g>
</g>
<g>
</g>
<g>
</g>
<g>
</g>
<g>
</g>
<g>
</g>
<g>
</g>
<g>
</g>
<g>
</g>
<g>
</g>
<g>
</g>
<g>
</g>
<g>
</g>
<g>
</g>
</svg>
