<?xml version="1.0" encoding="iso-8859-1"?>
<!-- Generator: Adobe Illustrator 16.0.0, SVG Export Plug-In . SVG Version: 6.00 Build 0)  -->
<!DOCTYPE svg PUBLIC "-//W3C//DTD SVG 1.1//EN" "http://www.w3.org/Graphics/SVG/1.1/DTD/svg11.dtd">
<svg version="1.1" id="Capa_1" xmlns="http://www.w3.org/2000/svg" xmlns:xlink="http://www.w3.org/1999/xlink" x="0px" y="0px"
	 width="579.582px" height="579.582px" viewBox="0 0 579.582 579.582" style="enable-background:new 0 0 579.582 579.582;"
	 xml:space="preserve">
<g>
	<g>
		<path d="M478.048,367.315l28.819-255.897h20.493v-1.454V58.223v-1.437l-6.994,1.483l-0.012-0.046L83.847,151.056l-9.651-75.434
			l-7.584,3.871c-0.835,0.432-82.861,43.346-63.716,115.878c17.253,65.433,74.85,68.743,86.224,68.743
			c1.804,0,2.819-0.07,2.819-0.07l6.312-0.467l-10.112-79.025l113.461-24.131v16.862v9.073h-48.221l-32.165,334.152l23.804,2.288
			l5.576-57.906h118.814l3.795,57.533l23.868-1.564l-22.028-334.514h-50.306v-9.073v-16.862v-4.893l249.925-53.137v7.596v1.442
			h20.179l-28.808,255.746l-2.008-0.023l-62.274-22.478l0.023-0.105l-0.163,0.047l-0.223-0.07l-0.059,0.14l-67.481,15.53
			l41.512,55.14l0.023-0.069l61.503,22.186l91.292,73.684l15.624-43.287l-21.393-7.205L544.024,403l20.424,7.672l15.134-42.049
			L478.048,367.315z M64.556,94.608l8.373,65.345l-45.202-31.341C39.614,112.147,55.384,100.517,64.556,94.608z M21.404,138.765
			l46.13,32.001L13.452,187.22C9.902,168.706,13.954,152.445,21.404,138.765z M16.464,198.792l53.476-16.249l-21.13,58.636
			C36.064,233.519,23.698,220.528,16.464,198.792z M59.605,246.493l18-49.984l7.111,55.53
			C78.476,251.666,69.35,250.352,59.605,246.493z M265.093,399.579l3.159,47.854l-102.87-47.854H265.093z M158.026,387.622
			l5.027-52.173l92.891,52.173H158.026z M172.196,326.889h88.116l3.386,51.379L172.196,326.889z M165.021,314.932l4.723-49.073
			l80.712,49.073H165.021z M258.945,306.116l-79.346-48.255h76.182L258.945,306.116z M156.029,408.407l95.747,44.549H151.738
			L156.029,408.407z M254.981,245.891H171.67l3.433-35.621h77.53L254.981,245.891z M467.446,416.838
			c-1.18,0.105-2.405,0-3.597-0.421c-1.284-0.467-2.324-1.261-3.211-2.195C462.518,415.788,464.841,416.838,467.446,416.838z
			 M497.281,452.196l-53.983-18.192l-61.001-22.011l22.303-60.547l57.078,20.61l-0.023,0.059l3.655,1.354l-2.464,21.859
			c-4.087,1.227-7.648,4.064-9.202,8.385c-2.604,7.205,1.156,15.191,8.361,17.783c7.216,2.604,15.203-1.144,17.808-8.36
			c2.16-5.979-0.223-12.319-5.161-15.846l2.206-19.478l32.475,12.191l10.02,3.83L497.281,452.196z"/>
		<path d="M435.182,375.5c-10.381-3.748-21.883,1.646-25.632,12.027c-3.76,10.37,1.646,21.884,12.027,25.644
			c10.381,3.749,21.883-1.658,25.62-12.051C450.969,390.728,445.563,379.238,435.182,375.5z M442.119,399.276
			c-2.721,7.59-11.117,11.537-18.684,8.793c-7.579-2.744-11.514-11.129-8.781-18.695c2.744-7.59,11.116-11.514,18.707-8.77
			C440.916,383.325,444.863,391.709,442.119,399.276z"/>
	</g>
</g>
<g>
</g>
<g>
</g>
<g>
</g>
<g>
</g>
<g>
</g>
<g>
</g>
<g>
</g>
<g>
</g>
<g>
</g>
<g>
</g>
<g>
</g>
<g>
</g>
<g>
</g>
<g>
</g>
<g>
</g>
</svg>
