<?xml version="1.0" encoding="iso-8859-1"?>
<!-- Generator: Adobe Illustrator 16.0.0, SVG Export Plug-In . SVG Version: 6.00 Build 0)  -->
<!DOCTYPE svg PUBLIC "-//W3C//DTD SVG 1.1//EN" "http://www.w3.org/Graphics/SVG/1.1/DTD/svg11.dtd">
<svg version="1.1" id="Capa_1" xmlns="http://www.w3.org/2000/svg" xmlns:xlink="http://www.w3.org/1999/xlink" x="0px" y="0px"
	 width="571.487px" height="571.487px" viewBox="0 0 571.487 571.487" style="enable-background:new 0 0 571.487 571.487;"
	 xml:space="preserve">
<g>
	<g>
		<path d="M91.007,264.572h139.378c0.058,4.688,0.146,8.957,0.263,12.401c-0.134,4.974-12.377,21.678-22.227,35.096
			c-6.16,8.396-12.962,17.667-19.717,27.593c-20.138,29.612-39.615,64.329-47.952,79.159l-2.225,3.936
			c-8.571,15.145-8.682,35.801-0.263,50.234c6.388,10.953,16.622,16.967,28.808,16.967h259.704l0,0
			c12.191,0,22.42-6.037,28.796-16.967c8.407-14.434,8.314-35.102-0.269-50.234l-2.207-3.936
			c-8.338-14.83-27.838-49.547-47.97-79.159c-6.749-9.938-13.545-19.197-19.711-27.593c-9.855-13.429-22.116-30.122-22.222-35.073
			c0.129-3.468,0.199-7.724,0.27-12.436h72.421V222.71h-72.352c-0.069-14.742-0.21-28.101-0.28-34.915h12.856v-22.531H213.559
			v22.555h17.031c-0.088,6.813-0.216,20.184-0.286,34.915H91.007V82.38H49.174v140.353H21.395v41.851h27.779v265.053H21.395v41.851
			h459.33v-41.851H91.007V264.572z M370.353,323.115c6.049,8.232,12.717,17.306,19.326,27.067
			c19.711,28.947,38.92,63.174,47.129,77.77l2.254,4.006c5.289,9.342,5.465,22.934,0.385,31.633
			c-2.989,5.115-7.252,7.707-12.67,7.707H167.072c-5.43,0-9.675-2.592-12.664-7.707c-5.056-8.699-4.916-22.291,0.379-31.633
			l2.254-4.006c8.197-14.607,27.417-48.822,47.123-77.77c6.609-9.75,13.283-18.835,19.32-27.067
			c17.218-23.471,26.186-36.193,25.83-46.743c-0.111-3.24-0.193-7.362-0.251-11.788h95.718c-0.059,4.438-0.129,8.559-0.257,11.788
			C344.173,286.922,353.141,299.645,370.353,323.115z M249.221,192.496h95.407c0.07,7.351,0.176,18.351,0.234,30.238h-95.881
			C249.04,210.834,249.133,199.834,249.221,192.496z"/>
		<path d="M248.537,384.397c-26.046-2.336-44.601-18.672-44.601-18.672c-2.873,3.958-5.874,8.104-8.909,12.564
			c-11.841,17.41-23.319,37.822-28.195,46.533l-1.313,2.324c-5.039,8.897-5.097,21.041-0.158,29.531
			c3.754,6.434,9.768,9.96,16.943,9.96h16.272h60.324h76.071h60.686h15.916c7.17,0,13.172-3.538,16.932-9.96
			c4.939-8.49,4.893-20.646-0.164-29.531l-1.308-2.324c-4.904-8.711-16.348-29.123-28.188-46.533
			c-3.035-4.461-6.025-8.606-8.921-12.564c0,0-15.017,6.224-61.281,7.766C282.378,375.044,274.577,386.709,248.537,384.397z
			 M214.09,427.614c-8.542,0-15.478-6.913-15.478-15.461c0-8.547,6.936-15.473,15.478-15.473c8.548,0,15.46,6.926,15.46,15.473
			C229.562,420.701,222.638,427.614,214.09,427.614z M231.284,454.144c-3.042,0-5.529-2.475-5.529-5.522
			c0-3.071,2.487-5.523,5.529-5.523c3.048,0,5.535,2.476,5.535,5.523C236.831,451.657,234.344,454.144,231.284,454.144z
			 M279.972,419.194c-5.167,0-9.312-4.191-9.312-9.354c0-5.137,4.157-9.33,9.312-9.33c5.155,0,9.335,4.216,9.335,9.33
			C289.308,415.003,285.127,419.194,279.972,419.194z M317.456,450.384c-4.029,0-7.287-3.281-7.287-7.298
			c0-4.052,3.246-7.31,7.287-7.31s7.322,3.258,7.322,7.31C324.789,447.103,321.496,450.384,317.456,450.384z M387.168,448.609
			c0,3.048-2.487,5.523-5.535,5.523c-3.036,0-5.523-2.476-5.523-5.523c0-3.071,2.487-5.523,5.523-5.523
			C384.692,443.086,387.168,445.538,387.168,448.609z M364.421,403.069c9.236,0,16.698,7.473,16.698,16.686
			c0,9.201-7.462,16.676-16.698,16.676c-9.189,0-16.663-7.475-16.663-16.676C347.77,410.53,355.231,403.069,364.421,403.069z"/>
		<path d="M292.361,146.599c2.487,0.28,4.939,0.409,7.368,0.409c14.783,0,28.668-4.975,39.142-13.703
			c8.595,5.967,18.823,9.779,29.776,10.988c32.848,3.708,61.363-17.183,64.505-45.535c1.121-10.019-1.121-20.172-6.247-29.175
			c6.539-6.312,10.708-14.444,11.712-23.301c2.476-22.555-15.997-43.17-41.22-45.967c-15.951-1.769-31.015,4.058-40.473,14.614
			c-3.702-1.098-7.474-1.857-11.327-2.283c-26.332-2.896-50.165,9.972-59.944,30.407c-24.803,4.122-43.731,22.058-46.265,44.969
			C236.206,116.746,259.981,143.014,292.361,146.599z M294.714,66.143l8.717-0.374l2.3-8.419
			c3.434-12.471,16.769-21.177,32.475-21.177c1.564,0,3.152,0.088,4.775,0.263c4.578,0.502,9.085,1.792,13.383,3.819l10.789,5.114
			l5.114-10.795c3.375-7.117,12.717-11.589,22.49-10.463c12.121,1.337,21.124,10.113,20.062,19.536
			c-0.561,5.179-4.216,9.709-9.973,12.448l-15.109,7.175l11.688,11.981c5.943,6.107,8.793,13.522,7.964,20.89
			c-1.693,15.344-18.754,26.519-38.103,24.405c-9.716-1.074-18.403-5.272-24.487-11.806l-9.844-10.591l-8.559,11.671
			c-6.901,9.424-19.676,14.597-33.409,13.02c-19.285-2.131-33.56-16.558-31.843-32.141
			C264.657,77.167,277.929,66.844,294.714,66.143z"/>
		<path d="M544.505,31.486c-4.787-6.86-12.098-11.835-20.598-14.036c-12.635-3.24-25.971,0.502-33.888,8.991
			c-16.441,0.625-29.812,10.58-33.595,25.182c-2.37,9.184-0.455,19.145,5.278,27.336c5.406,7.736,13.686,13.364,23.296,15.852
			c3.503,0.911,7.076,1.366,10.649,1.366c14.562,0,27.336-7.725,33.046-19.326c10.136-3.275,17.959-11.011,20.505-20.914
			C551.325,47.729,549.62,38.819,544.505,31.486z M518.676,54.612l-9.179,0.66l-1.717,9.05c-0.069,0.35-0.116,0.707-0.163,1.062
			c-1.739,5.167-9.33,8.18-16.64,6.282c-4.018-1.039-7.544-3.375-9.669-6.399c-1.004-1.448-2.581-4.367-1.728-7.666
			c1.109-4.28,6.071-7.281,12.073-7.281c0.864,0,1.729,0.059,2.604,0.193l8.536,1.208l3.842-7.73
			c1.494-3.013,6.527-4.601,11.269-3.392c2.942,0.753,5.488,2.429,6.982,4.578c0.782,1.138,1.635,2.896,1.145,4.793
			C525.401,52.487,522.436,54.35,518.676,54.612z"/>
	</g>
</g>
<g>
</g>
<g>
</g>
<g>
</g>
<g>
</g>
<g>
</g>
<g>
</g>
<g>
</g>
<g>
</g>
<g>
</g>
<g>
</g>
<g>
</g>
<g>
</g>
<g>
</g>
<g>
</g>
<g>
</g>
</svg>
