<?xml version="1.0" encoding="iso-8859-1"?>
<!-- Generator: Adobe Illustrator 16.0.0, SVG Export Plug-In . SVG Version: 6.00 Build 0)  -->
<!DOCTYPE svg PUBLIC "-//W3C//DTD SVG 1.1//EN" "http://www.w3.org/Graphics/SVG/1.1/DTD/svg11.dtd">
<svg version="1.1" id="Capa_1" xmlns="http://www.w3.org/2000/svg" xmlns:xlink="http://www.w3.org/1999/xlink" x="0px" y="0px"
	 width="543.243px" height="543.243px" viewBox="0 0 543.243 543.243" style="enable-background:new 0 0 543.243 543.243;"
	 xml:space="preserve">
<g>
	<g>
		<path d="M506.923,15.666c-26.146-20.937-48.32-14.947-49.289-14.649l-1.483,0.479l-56.354,70.332l-38.522-30.875l-40.8,50.918
			l33.863,27.132L222.866,283.1l15.449,27.663l-26.56,33.141l15.77,12.635c-15.221,10.73-42.756,43.637-43.859,70.623
			c-0.035,0.631-0.023,1.261-0.023,1.891c0,1.086,0.012,2.161,0.123,3.212c0.117,1.448,0.356,2.86,0.666,4.239
			c0.123,0.49,0.251,0.98,0.385,1.459c0.467,1.682,1.028,3.316,1.816,4.893c1.051,2.125,2.306,4.029,3.661,5.815
			c0.415,0.549,0.87,1.051,1.302,1.577c1.004,1.19,2.067,2.312,3.194,3.351c0.525,0.491,1.051,0.97,1.6,1.401
			c1.244,1.004,2.522,1.927,3.877,2.779c0.467,0.291,0.893,0.607,1.36,0.887c0.157,0.094,0.286,0.211,0.455,0.281
			c0-0.023-0.012-0.059-0.023-0.082c26.104,14.515,67.681-0.199,63.396-23.471c-4.84-26.402-28.983-44.549-28.731-71.5
			l13.551,10.837l25.912-32.346l27.686,12.378l134.789-168.214l34.518,27.669l40.776-50.901l-38.499-30.851l56.354-70.349
			l0.141-1.542C532.064,59.618,533.628,37.058,506.923,15.666z M242.332,413.148c0,0,11.07,10.45,9.756,22.853
			c-1.302,12.389-14.841,17.783-14.841,17.783s7.975-7.882,8.098-17.445C245.461,426.775,242.332,413.148,242.332,413.148z
			 M297.821,329.704l-27.692-12.379l-23.016,28.715l-6.627-5.312l22.385-27.932l-15.46-27.675l122.878-153.35l52.453,42.02
			L297.821,329.704z"/>
		<path d="M278.286,491.771c-26.904-2.488-118.663-11.432-143.704,6.784c-5.693,4.134-10.078,8.501-13.691,12.798H11.242v31.891
			h405.558v-31.891H310.456C301.09,501.614,289.706,492.833,278.286,491.771z"/>
	</g>
</g>
<g>
</g>
<g>
</g>
<g>
</g>
<g>
</g>
<g>
</g>
<g>
</g>
<g>
</g>
<g>
</g>
<g>
</g>
<g>
</g>
<g>
</g>
<g>
</g>
<g>
</g>
<g>
</g>
<g>
</g>
</svg>
