<?xml version="1.0" encoding="iso-8859-1"?>
<!-- Generator: Adobe Illustrator 16.0.0, SVG Export Plug-In . SVG Version: 6.00 Build 0)  -->
<!DOCTYPE svg PUBLIC "-//W3C//DTD SVG 1.1//EN" "http://www.w3.org/Graphics/SVG/1.1/DTD/svg11.dtd">
<svg version="1.1" id="Capa_1" xmlns="http://www.w3.org/2000/svg" xmlns:xlink="http://www.w3.org/1999/xlink" x="0px" y="0px"
	 width="477.853px" height="477.852px" viewBox="0 0 477.853 477.852" style="enable-background:new 0 0 477.853 477.852;"
	 xml:space="preserve">
<g>
	<path d="M411.103,19.975c-33.326-26.7-61.597-19.057-62.846-18.677l-1.893,0.601l-71.86,89.692l-49.108-39.363l-52.01,64.913
		l43.176,34.593L48.908,360.999l19.705,35.254L34.75,438.523l49.108,39.329l33.052-41.244l35.312,15.787l171.864-214.496
		l44.011,35.276l51.998-64.907l-49.079-39.34l71.861-89.703l0.175-1.974C443.145,76.031,445.165,47.264,411.103,19.975z
		 M144.479,420.423l-35.306-15.787l-29.344,36.607l-8.454-6.761l28.544-35.615l-19.711-35.266l156.689-195.573l66.893,53.586
		L144.479,420.423z"/>
</g>
<g>
</g>
<g>
</g>
<g>
</g>
<g>
</g>
<g>
</g>
<g>
</g>
<g>
</g>
<g>
</g>
<g>
</g>
<g>
</g>
<g>
</g>
<g>
</g>
<g>
</g>
<g>
</g>
<g>
</g>
</svg>
