<?xml version="1.0" encoding="iso-8859-1"?>
<!-- Generator: Adobe Illustrator 16.0.0, SVG Export Plug-In . SVG Version: 6.00 Build 0)  -->
<!DOCTYPE svg PUBLIC "-//W3C//DTD SVG 1.1//EN" "http://www.w3.org/Graphics/SVG/1.1/DTD/svg11.dtd">
<svg version="1.1" id="Capa_1" xmlns="http://www.w3.org/2000/svg" xmlns:xlink="http://www.w3.org/1999/xlink" x="0px" y="0px"
	 width="564.634px" height="564.634px" viewBox="0 0 564.634 564.634" style="enable-background:new 0 0 564.634 564.634;"
	 xml:space="preserve">
<g>
	<g>
		<path d="M548.608,146.693c-0.409,0.128-41.209,12.53-79.393,12.53c-20.996,0-36.748-3.673-46.802-10.918
			c-13.943-10.03-34.074-15.122-59.857-15.122c-41.488,0-84.151,12.961-85.943,13.51l-7.882,2.411v189.275l14.625-4.788
			c0.333-0.093,34.336-11.069,72.427-11.069c21.743,0,40.38,3.572,55.373,10.579c17.994,8.407,39.795,12.681,64.831,12.681
			c41.594,0,77.816-11.677,79.357-12.19l7.695-2.499V142.245L548.608,146.693z M540.714,314.604
			c-12.203,3.223-37.414,8.852-64.727,8.852c-21.743,0-40.379-3.562-55.373-10.58c-17.982-8.407-39.795-12.681-64.831-12.681
			c-26.11,0-50.095,4.601-64.727,8.162V165.85c13.768-3.614,43.416-10.357,71.499-10.357c21.02,0,36.76,3.672,46.825,10.918
			c13.919,10.042,34.062,15.14,59.834,15.14c27.348,0,55.186-5.646,71.511-9.64v142.694H540.714z"/>
		<path d="M244.197,144.375c5.628-4.688,9.289-11.683,9.289-19.577c0-14.124-11.456-25.567-25.579-25.567
			c-14.106,0-25.562,11.443-25.562,25.567c0,7.905,3.673,14.9,9.301,19.588v346.856h17.282h15.256V144.375H244.197z"/>
		<path d="M1.594,564.634h446.112c0,0-74.009-73.391-218.765-73.391C84.186,491.244,1.594,564.634,1.594,564.634z"/>
		<polygon points="109.256,102.186 136.96,87.625 164.694,102.186 159.392,71.324 181.812,49.47 150.821,44.968 136.96,16.885 
			123.118,44.968 92.132,49.47 114.552,71.324 		"/>
		<polygon points="399.549,396.834 387.545,372.5 375.542,396.834 348.731,400.711 368.138,419.639 363.56,446.357 387.545,433.757 
			411.553,446.357 406.953,419.639 426.383,400.711 		"/>
		<polygon points="413.842,73.857 437.85,61.258 461.859,73.857 457.257,47.134 476.666,28.206 449.832,24.323 437.85,0 
			425.846,24.323 399.012,28.206 418.419,47.134 		"/>
		<polygon points="74.196,345.793 92.132,336.382 110.068,345.793 106.641,325.838 121.144,311.685 101.1,308.79 92.132,290.62 
			83.164,308.79 63.126,311.685 77.629,325.838 		"/>
	</g>
</g>
<g>
</g>
<g>
</g>
<g>
</g>
<g>
</g>
<g>
</g>
<g>
</g>
<g>
</g>
<g>
</g>
<g>
</g>
<g>
</g>
<g>
</g>
<g>
</g>
<g>
</g>
<g>
</g>
<g>
</g>
</svg>
