<?xml version="1.0" encoding="iso-8859-1"?>
<!-- Generator: Adobe Illustrator 16.0.0, SVG Export Plug-In . SVG Version: 6.00 Build 0)  -->
<!DOCTYPE svg PUBLIC "-//W3C//DTD SVG 1.1//EN" "http://www.w3.org/Graphics/SVG/1.1/DTD/svg11.dtd">
<svg version="1.1" id="Capa_1" xmlns="http://www.w3.org/2000/svg" xmlns:xlink="http://www.w3.org/1999/xlink" x="0px" y="0px"
	 width="481.739px" height="481.739px" viewBox="0 0 481.739 481.739" style="enable-background:new 0 0 481.739 481.739;"
	 xml:space="preserve">
<g>
	<path d="M331.542,252.541c-24.09-17.772-49.009-36.146-49.009-50.667c0-36.193-2.102-114.932-2.942-145.246h19.501V0H240.87h-58.21
		v56.616h19.507c-0.853,30.314-2.943,109.052-2.943,145.246c0,14.521-24.919,32.895-49.015,50.667
		c-35.965,26.542-76.742,56.611-76.742,99.221c0,83.456,59.465,129.545,167.403,129.989
		c107.943-0.444,167.403-46.557,167.403-129.989C408.272,309.14,367.496,279.071,331.542,252.541z M206.574,23.915h34.295h34.295
		v8.787H240.87h-34.295V23.915z M240.87,457.847c-65.847-0.291-143.488-19.068-143.488-106.098
		c0-30.524,35.609-56.786,67.021-79.977c30.202-22.269,58.735-43.316,58.735-69.911c0-36.135,2.114-115.458,2.954-145.246h14.778
		h14.783c0.84,29.788,2.943,109.111,2.943,145.246c0,26.595,28.539,47.631,58.735,69.911c31.411,23.19,67.026,49.452,67.026,79.977
		C384.357,438.779,306.717,457.556,240.87,457.847z"/>
</g>
<g>
</g>
<g>
</g>
<g>
</g>
<g>
</g>
<g>
</g>
<g>
</g>
<g>
</g>
<g>
</g>
<g>
</g>
<g>
</g>
<g>
</g>
<g>
</g>
<g>
</g>
<g>
</g>
<g>
</g>
</svg>
