<?xml version="1.0" encoding="iso-8859-1"?>
<!-- Generator: Adobe Illustrator 16.0.0, SVG Export Plug-In . SVG Version: 6.00 Build 0)  -->
<!DOCTYPE svg PUBLIC "-//W3C//DTD SVG 1.1//EN" "http://www.w3.org/Graphics/SVG/1.1/DTD/svg11.dtd">
<svg version="1.1" id="Capa_1" xmlns="http://www.w3.org/2000/svg" xmlns:xlink="http://www.w3.org/1999/xlink" x="0px" y="0px"
	 width="551.474px" height="551.474px" viewBox="0 0 551.474 551.474" style="enable-background:new 0 0 551.474 551.474;"
	 xml:space="preserve">
<g>
	<g>
		<path d="M342.537,309.098c0,54.556,44.35,98.905,98.904,98.905c54.556,0,98.905-44.373,98.905-98.905
			c0-38.26-21.859-71.458-53.703-87.899v-51.187h26.975v-23.985h-50.971v66.519c-0.023,0-0.047-0.018-0.07-0.018v24.744
			c31.062,9.149,53.808,37.88,53.808,71.837c0,41.325-33.618,74.933-74.943,74.933s-74.92-33.607-74.92-74.933
			c0-33.945,22.7-62.665,53.715-71.826v-24.738l0,0v-65.765h-50.959v23.973h26.974v50.457
			C364.396,237.64,342.537,270.85,342.537,309.098z"/>
		<path d="M372.664,309.916c0,38.254,31.002,69.257,69.256,69.257c38.255,0,69.246-31.026,69.246-69.257
			c-25.479,8.314-47.281-14.199-74.979-0.164C408.488,323.789,395.188,325.996,372.664,309.916z M486.69,322.935
			c5.687,0,10.311,4.613,10.311,10.312c0,5.687-4.624,10.287-10.311,10.287s-10.299-4.601-10.299-10.287
			C476.391,327.548,481.003,322.935,486.69,322.935z M462.775,356.998c1.857,0,3.352,1.494,3.352,3.352
			c0,1.833-1.494,3.328-3.352,3.328c-1.845,0-3.34-1.495-3.34-3.328C459.423,358.492,460.93,356.998,462.775,356.998z
			 M456.341,326.263c1.705,0,3.082,1.401,3.082,3.095c0,1.716-1.377,3.095-3.082,3.095s-3.083-1.379-3.083-3.095
			C453.258,327.665,454.636,326.263,456.341,326.263z M439.386,355.48c3.97,0,7.217,3.246,7.217,7.193
			c0,3.97-3.247,7.216-7.217,7.216c-3.982,0-7.217-3.246-7.217-7.216C432.193,358.703,435.404,355.48,439.386,355.48z
			 M432.461,339.623c1.717,0,3.083,1.377,3.083,3.082c0,1.717-1.39,3.095-3.083,3.095c-1.717,0-3.083-1.378-3.083-3.095
			C429.367,340.988,430.745,339.623,432.461,339.623z M409.89,338.828c0,3.504-2.861,6.376-6.388,6.376
			c-3.515,0-6.364-2.86-6.364-6.376c0-3.525,2.85-6.375,6.364-6.375C407.041,332.453,409.89,335.302,409.89,338.828z"/>
		<path d="M33.578,408.027h248.903h0.023c11.665,0,21.462-5.78,27.593-16.278c8.057-13.837,7.964-33.63-0.257-48.133l-2.125-3.784
			c-7.987-14.223-26.659-47.479-45.967-75.871c-6.481-9.517-12.985-18.403-18.905-26.449c-9.447-12.868-21.188-28.877-21.299-33.625
			c0.719-20.867,0.24-70.226,0.064-85.47h12.325V96.809H78.131v21.62h16.331c-0.193,15.244-0.654,64.592,0.058,85.447
			c-0.128,4.77-11.87,20.779-21.316,33.647c-5.885,8.045-12.424,16.932-18.894,26.449c-19.285,28.381-37.962,61.648-45.949,75.871
			l-2.131,3.772c-8.227,14.503-8.297,34.296-0.251,48.133C12.091,402.235,21.906,408.027,33.578,408.027z M21.813,352.42
			l2.137-3.854c7.882-13.989,26.297-46.778,45.202-74.523c6.323-9.354,12.71-18.059,18.508-25.952
			c16.488-22.49,25.089-34.687,24.762-44.788c-0.666-18.584-0.31-61.749-0.105-80.403h91.438
			c0.193,18.654,0.549,61.818-0.082,80.403c-0.362,10.101,8.238,22.297,24.738,44.788c5.798,7.905,12.186,16.61,18.532,25.952
			c18.871,27.745,37.285,60.534,45.173,74.523l2.125,3.854c5.079,8.944,5.243,21.987,0.374,30.313
			c-2.849,4.928-6.936,7.403-12.132,7.403H33.578c-5.19,0-9.266-2.476-12.139-7.403C16.599,374.408,16.739,361.365,21.813,352.42z"
			/>
		<path d="M48.162,385.654H63.78h57.825h72.883h58.193h15.25c6.849,0,12.611-3.398,16.226-9.553
			c4.711-8.15,4.665-19.781-0.158-28.316l-1.255-2.23c-4.7-8.338-15.677-27.896-27.021-44.584c-2.896-4.285-5.792-8.255-8.553-12.05
			c0,0-14.387,5.956-58.736,7.45c-44.338,1.495-51.811,12.681-76.776,10.44c-24.954-2.23-42.744-17.89-42.744-17.89
			c-2.75,3.795-5.623,7.766-8.542,12.05c-11.344,16.688-22.344,36.246-27.021,44.584l-1.244,2.23
			c-4.834,8.535-4.893,20.166-0.157,28.316C35.562,382.255,41.302,385.654,48.162,385.654z M244.53,368.359
			c0,2.932-2.371,5.29-5.301,5.29c-2.914,0-5.284-2.358-5.284-5.29c0-2.919,2.371-5.289,5.284-5.289
			C242.16,363.07,244.53,365.44,244.53,368.359z M222.729,324.722c8.852,0,15.986,7.17,15.986,15.975
			c0,8.828-7.135,15.974-15.986,15.974c-8.811,0-15.951-7.146-15.951-15.974C206.778,331.892,213.93,324.722,222.729,324.722z
			 M177.72,356.064c3.876,0,7.024,3.129,7.024,7.006c0,3.854-3.147,6.982-7.024,6.982c-3.859,0-6.995-3.129-6.995-6.982
			C170.725,359.193,173.86,356.064,177.72,356.064z M141.801,322.27c4.916,0,8.933,4.04,8.933,8.944
			c0,4.951-4.017,8.969-8.933,8.969c-4.951,0-8.945-4.018-8.945-8.969C132.856,326.31,136.85,322.27,141.801,322.27z
			 M100.429,368.359c0,2.932-2.377,5.29-5.296,5.29s-5.296-2.358-5.296-5.29c0-2.919,2.377-5.289,5.296-5.289
			S100.429,365.44,100.429,368.359z M78.657,318.603c8.18,0,14.824,6.633,14.824,14.83s-6.645,14.807-14.824,14.807
			c-8.191,0-14.841-6.609-14.841-14.807S70.465,318.603,78.657,318.603z"/>
		<rect y="424.771" width="551.474" height="29.895"/>
	</g>
</g>
<g>
</g>
<g>
</g>
<g>
</g>
<g>
</g>
<g>
</g>
<g>
</g>
<g>
</g>
<g>
</g>
<g>
</g>
<g>
</g>
<g>
</g>
<g>
</g>
<g>
</g>
<g>
</g>
<g>
</g>
</svg>
