<?xml version="1.0" encoding="iso-8859-1"?>
<!-- Generator: Adobe Illustrator 16.0.0, SVG Export Plug-In . SVG Version: 6.00 Build 0)  -->
<!DOCTYPE svg PUBLIC "-//W3C//DTD SVG 1.1//EN" "http://www.w3.org/Graphics/SVG/1.1/DTD/svg11.dtd">
<svg version="1.1" id="Capa_1" xmlns="http://www.w3.org/2000/svg" xmlns:xlink="http://www.w3.org/1999/xlink" x="0px" y="0px"
	 width="554.591px" height="554.592px" viewBox="0 0 554.591 554.592" style="enable-background:new 0 0 554.591 554.592;"
	 xml:space="preserve">
<g>
	<g>
		<path d="M521.042,117.916l32.159-61.311l-0.129-1.179c-0.094-0.73-2.195-17.983-25.479-30.18
			c-22.759-11.958-38.604-4.174-39.281-3.807l-1.074,0.566L455.09,83.322l-33.571-17.626l-23.272,44.373l29.52,15.46L352.729,268.55
			l15.717,18.59l-15.145,28.889l33.571,17.586l14.748-28.188l22.7,5.255l76.93-146.601l30.092,15.793l23.249-44.361L521.042,117.916
			z M416.077,292.688l-22.688-5.267l-13.137,25.024l-5.758-3.024l12.74-24.347l-15.694-18.59l70.109-133.662l45.692,23.979
			L416.077,292.688z"/>
		<path d="M382.809,451.145c-9.926-17.689-33.163-59.074-57.171-94.396c-8.058-11.83-16.173-22.876-23.518-32.895
			c-11.718-16.01-26.344-35.908-26.49-41.805c0.887-25.97,0.28-87.368,0.076-106.343h15.314v-26.904H97.205v26.904h20.318
			c-0.239,18.976-0.817,80.362,0.07,106.297c-0.146,5.943-14.754,25.841-26.507,41.851c-7.333,10.03-15.437,21.076-23.524,32.895
			c-23.984,35.322-47.216,76.707-57.165,94.396l-2.645,4.695c-10.224,18.064-10.34,42.68-0.321,59.902
			c7.613,13.044,19.822,20.237,34.331,20.237H351.41h0.046c14.504,0,26.706-7.193,34.308-20.237
			c10.042-17.211,9.914-41.838-0.304-59.902L382.809,451.145z M366.532,504.521c-3.551,6.107-8.618,9.213-15.11,9.213H41.773
			c-6.446,0-11.52-3.094-15.092-9.213c-6.025-10.357-5.833-26.577,0.467-37.705l2.668-4.776c9.78-17.411,32.69-58.21,56.208-92.728
			c7.87-11.643,15.811-22.455,23.033-32.287c20.528-27.979,31.219-43.159,30.798-55.735c-0.788-23.103-0.367-76.818-0.116-100.015
			h113.764c0.24,23.197,0.701,76.912-0.099,100.015c-0.444,12.564,10.246,27.745,30.78,55.735
			c7.199,9.832,15.157,20.645,23.051,32.287c23.471,34.518,46.382,75.316,56.19,92.728l2.639,4.776
			C372.393,477.944,372.581,494.164,366.532,504.521z"/>
		<path d="M351.76,458.279c-5.851-10.381-19.501-34.703-33.631-55.466c-3.631-5.337-7.205-10.265-10.661-14.981
			c0,0-17.883,7.415-73.04,9.248c-55.157,1.869-64.463,15.775-95.513,13.008c-31.056-2.79-53.178-22.268-53.178-22.268
			c-3.433,4.717-7.029,9.645-10.632,14.981c-14.118,20.774-27.798,45.097-33.619,55.478l-1.571,2.779
			c-6.002,10.604-6.072,25.083-0.163,35.219c4.496,7.648,11.63,11.863,20.184,11.863h19.401h71.96h90.661h72.398h18.964
			c8.524,0,15.706-4.227,20.201-11.887c5.839-10.124,5.804-24.604-0.222-35.207L351.76,458.279z M97.865,461.619
			c-10.188,0-18.474-8.256-18.474-18.438c0-10.206,8.285-18.45,18.474-18.45c10.188,0,18.426,8.244,18.426,18.45
			C116.291,453.363,108.053,461.619,97.865,461.619z M118.37,493.241c-3.644,0-6.609-2.942-6.609-6.598
			c0-3.644,2.966-6.586,6.609-6.586c3.625,0,6.592,2.954,6.592,6.586S121.995,493.241,118.37,493.241z M176.399,451.577
			c-6.148,0-11.123-4.997-11.123-11.163c0-6.107,4.974-11.117,11.123-11.117c6.125,0,11.122,4.998,11.122,11.117
			C187.521,446.592,182.523,451.577,176.399,451.577z M221.11,488.758c-4.811,0-8.717-3.9-8.717-8.712
			c0-4.823,3.894-8.711,8.717-8.711c4.817,0,8.729,3.888,8.729,8.711S225.916,488.758,221.11,488.758z M257.257,452.23
			c0-10.965,8.869-19.885,19.845-19.885c11.006,0,19.898,8.909,19.898,19.885c0,10.977-8.892,19.887-19.898,19.887
			C266.125,472.105,257.257,463.207,257.257,452.23z M297.613,493.241c-3.625,0-6.592-2.942-6.592-6.598
			c0-3.644,2.966-6.586,6.592-6.586c3.644,0,6.609,2.954,6.609,6.586S301.256,493.241,297.613,493.241z"/>
	</g>
</g>
<g>
</g>
<g>
</g>
<g>
</g>
<g>
</g>
<g>
</g>
<g>
</g>
<g>
</g>
<g>
</g>
<g>
</g>
<g>
</g>
<g>
</g>
<g>
</g>
<g>
</g>
<g>
</g>
<g>
</g>
</svg>
