<?xml version="1.0" encoding="iso-8859-1"?>
<!-- Generator: Adobe Illustrator 16.0.0, SVG Export Plug-In . SVG Version: 6.00 Build 0)  -->
<!DOCTYPE svg PUBLIC "-//W3C//DTD SVG 1.1//EN" "http://www.w3.org/Graphics/SVG/1.1/DTD/svg11.dtd">
<svg version="1.1" id="Capa_1" xmlns="http://www.w3.org/2000/svg" xmlns:xlink="http://www.w3.org/1999/xlink" x="0px" y="0px"
	 width="463.942px" height="463.943px" viewBox="0 0 463.942 463.943" style="enable-background:new 0 0 463.942 463.943;"
	 xml:space="preserve">
<g>
	<g>
		<path d="M259.254,319.507l75.458,41.454l-21.836,39.749l35.335,19.407l41.22-75.095l-98.006-53.82
			c0.047-0.047,0.059-0.082,0.105-0.129l-36.468-20.014c-38.616,38.359-99.36,48.635-149.42,21.135
			c-60.884-33.431-83.223-110.196-49.779-171.081C89.306,60.218,166.06,37.891,226.956,71.323
			c50.048,27.505,73.951,84.215,62.356,137.334l36.468,20.026c0-0.012,0-0.012,0-0.035l96.908,53.224l41.255-75.084l-35.335-19.407
			L406.76,227.13l-74.348-40.823c1.564-60.266-29.672-119.334-86.049-150.319C165.978-8.158,64.679,21.304,20.516,101.707
			C-23.635,182.086,5.838,283.39,86.235,327.519C142.624,358.498,209.241,353.173,259.254,319.507z"/>
		<path d="M54.578,210.782c17.948,61.749,82.569,97.247,144.317,79.299c18.894-5.512,40.216-20.119,53.411-32.929
			c4.904-4.753,135.571,74.746,141.83,81.459c6.247,6.726,3.234,38.079,3.234,48.589c0,7.309,41.688,28.947,32.416,12.692
			c-9.248-16.231-8.232-23.576-13.417-39.177c-5.173-15.612-12.845-32.73-21.404-40.402
			c-8.548-7.684-120.099-97.481-130.795-106.828c-16.395-14.352-56.739-26.618-82.347-27.984
			C156.204,184.141,114.389,187.849,54.578,210.782z M222.156,244.471c3.001-0.864,6.107,0.853,6.972,3.83
			c0.864,2.978-0.829,6.096-3.83,6.959c-2.978,0.888-6.096-0.829-6.972-3.807S219.179,245.335,222.156,244.471z M182.664,249.574
			c8.326-2.417,17.049,2.382,19.466,10.696c2.429,8.313-2.37,17.036-10.696,19.454c-8.291,2.405-17.001-2.383-19.431-10.696
			C169.598,260.726,174.385,251.967,182.664,249.574z M165.044,230.668c2.732-0.788,5.628,0.8,6.445,3.526
			c0.806,2.738-0.782,5.658-3.538,6.446c-2.756,0.8-5.64-0.776-6.422-3.538C160.723,234.335,162.312,231.457,165.044,230.668z
			 M128.237,239.981c1.646,5.669-1.611,11.625-7.31,13.271c-5.675,1.658-11.619-1.623-13.242-7.31
			c-1.67-5.675,1.577-11.578,7.298-13.254C120.636,231.036,126.579,234.3,128.237,239.981z"/>
	</g>
	<path d="M434.948,419.627c-0.993-21.065-20.318-46.813-30.127-54.077c-1.553-1.168-3.444-2.288-4.577-1.902
		c-0.841,0.046-1.227,0.746-0.97,2.323c4.075,23.915-14.339,38.581-17.516,60.593c-2.558,17.714,24.639,28.574,41.501,17.316
		c-0.012,0.035-0.012,0.047-0.012,0.07c0.104-0.047,0.198-0.164,0.292-0.222c0.292-0.222,0.571-0.479,0.876-0.688
		c0.863-0.643,1.692-1.367,2.498-2.148c0.351-0.328,0.701-0.725,1.039-1.086c0.713-0.795,1.391-1.67,2.044-2.57
		c0.269-0.408,0.572-0.77,0.829-1.202c0.864-1.39,1.67-2.837,2.336-4.46c0.49-1.191,0.84-2.465,1.132-3.749
		c0.094-0.351,0.164-0.735,0.245-1.098c0.176-1.074,0.339-2.137,0.397-3.234c0.047-0.806,0.047-1.635,0.035-2.44
		C434.972,420.609,434.972,420.129,434.948,419.627z M390.481,426.902c-0.957-9.4,6.154-17.434,6.154-17.434
		s-1.915,10.369-1.752,17.633c0.164,7.286,5.431,13.184,5.431,13.184S391.451,436.314,390.481,426.902z"/>
</g>
<g>
</g>
<g>
</g>
<g>
</g>
<g>
</g>
<g>
</g>
<g>
</g>
<g>
</g>
<g>
</g>
<g>
</g>
<g>
</g>
<g>
</g>
<g>
</g>
<g>
</g>
<g>
</g>
<g>
</g>
</svg>
