<?xml version="1.0" encoding="iso-8859-1"?>
<!-- Generator: Adobe Illustrator 16.0.0, SVG Export Plug-In . SVG Version: 6.00 Build 0)  -->
<!DOCTYPE svg PUBLIC "-//W3C//DTD SVG 1.1//EN" "http://www.w3.org/Graphics/SVG/1.1/DTD/svg11.dtd">
<svg version="1.1" id="Capa_1" xmlns="http://www.w3.org/2000/svg" xmlns:xlink="http://www.w3.org/1999/xlink" x="0px" y="0px"
	 width="521.49px" height="521.49px" viewBox="0 0 521.49 521.49" style="enable-background:new 0 0 521.49 521.49;"
	 xml:space="preserve">
<g>
	<g>
		<polygon points="322.856,428.177 322.856,428.166 322.762,428.714 		"/>
		<path d="M473.911,302.287l-111.68-65.199l-91.864-76.625l-21.06,36.625l32.924,83.351l-207.368-2.873l-2.137,55.396l157.775,5.267
			l-183.342,8.478l2.703,56.167l188.591-5.64L74.588,413.768l2.704,53.038l169.47-14.316l-105.847,21.019l7.38,47.981
			l150.296-22.747l0,0l75.107-24.978l100.633-33.63L473.911,302.287z M295.064,480.912l-131.572,19.933l-1.997-12.915l88.822-17.644
			c8.571-1.705,14.608-9.261,14.608-17.784c0-0.853-0.047-1.693-0.175-2.558c-1.354-9.528-9.926-16.371-19.507-15.542L94.452,447.13
			l-0.853-17.025l146.67-14.795c9.33-0.923,16.336-8.793,16.336-18.041c0-0.397-0.012-0.795-0.035-1.215
			c-0.637-9.75-8.887-17.259-18.678-16.967L67.15,384.19l-0.981-20.213l165.167-7.613c9.709-0.444,17.329-8.442,17.329-18.135
			c0-0.035,0-0.069,0-0.14c-0.07-9.728-7.794-17.691-17.556-18.006l-139.53-4.66l0.753-19.453l209.902,2.674l-5.231-32.872
			l-30.15-64.247l9.003-16.512c0,0,70.856,66.396,72.9,68.545c2.032,2.137,107.032,58.56,107.032,58.56l0.362,114.926
			L295.064,480.912z"/>
		<path d="M200.655,225.44c-0.012,0.059-0.023,0.123-0.035,0.193c0.286-0.181,0.537-0.432,0.823-0.625
			c0.864-0.572,1.652-1.267,2.487-1.874c2.464-1.798,4.811-3.743,7.07-5.897c1.004-0.958,1.974-1.974,2.925-3.001
			c2.061-2.213,3.982-4.589,5.815-7.129c0.788-1.109,1.623-2.16,2.376-3.346c2.464-3.789,4.735-7.847,6.662-12.354
			c1.425-3.334,2.452-6.837,3.311-10.387c0.251-1.033,0.49-2.061,0.707-3.112c0.561-2.966,0.993-5.967,1.232-9.026
			c0.192-2.248,0.204-4.531,0.216-6.813c0-1.354,0.012-2.703-0.047-4.058c-2.055-58.958-55.186-131.659-82.341-152.333
			c-4.35-3.287-9.563-6.469-12.78-5.5c-2.371,0.128-3.48,2.102-2.797,6.516c10.591,67.044-41.407,107.376-51.058,168.862
			C77.42,225.02,153.135,256.314,200.655,225.44z M127.369,128.263c0,0-5.716,28.936-5.5,49.266
			c0.216,20.347,14.731,37.092,14.731,37.092s-24.633-11.455-26.998-37.799C107.197,150.467,127.369,128.263,127.369,128.263z"/>
	</g>
</g>
<g>
</g>
<g>
</g>
<g>
</g>
<g>
</g>
<g>
</g>
<g>
</g>
<g>
</g>
<g>
</g>
<g>
</g>
<g>
</g>
<g>
</g>
<g>
</g>
<g>
</g>
<g>
</g>
<g>
</g>
</svg>
