<?xml version="1.0" encoding="iso-8859-1"?>
<!-- Generator: Adobe Illustrator 16.0.0, SVG Export Plug-In . SVG Version: 6.00 Build 0)  -->
<!DOCTYPE svg PUBLIC "-//W3C//DTD SVG 1.1//EN" "http://www.w3.org/Graphics/SVG/1.1/DTD/svg11.dtd">
<svg version="1.1" id="Capa_1" xmlns="http://www.w3.org/2000/svg" xmlns:xlink="http://www.w3.org/1999/xlink" x="0px" y="0px"
	 width="49.229px" height="49.229px" viewBox="0 0 49.229 49.229" style="enable-background:new 0 0 49.229 49.229;"
	 xml:space="preserve">
<g>
	<path d="M44.348,19.999h-9.781l-4.416-7.637H19.145l-4.417,7.637h-9.85L0,28.431l4.878,8.436h11.005l4.417-7.637h8.627l4.419,7.637
		H44.35l4.879-8.436L44.348,19.999z M14.729,34.864H6.031l-3.72-6.436l3.723-6.434h8.696l3.723,6.434L14.729,34.864z M20.298,27.231
		v-0.002l-3.721-6.435l3.721-6.433h8.698l3.721,6.434l-3.721,6.436H20.298z M43.193,34.864h-8.695l-3.723-6.436l3.723-6.434h8.695
		l3.724,6.434L43.193,34.864z M8.095,23.627l-3.35,5.935L3.874,29.07l3.351-5.936L8.095,23.627z M6.755,32.442h7.25v1h-7.25V32.442z
		 M45.459,28.871l-0.873,0.487l-3.316-5.93l0.873-0.488L45.459,28.871z M35.688,23.136l0.873,0.488l-3.314,5.932l-0.872-0.486
		L35.688,23.136z"/>
</g>
<g>
</g>
<g>
</g>
<g>
</g>
<g>
</g>
<g>
</g>
<g>
</g>
<g>
</g>
<g>
</g>
<g>
</g>
<g>
</g>
<g>
</g>
<g>
</g>
<g>
</g>
<g>
</g>
<g>
</g>
</svg>
