<?xml version="1.0" encoding="iso-8859-1"?>
<!-- Generator: Adobe Illustrator 16.0.0, SVG Export Plug-In . SVG Version: 6.00 Build 0)  -->
<!DOCTYPE svg PUBLIC "-//W3C//DTD SVG 1.1//EN" "http://www.w3.org/Graphics/SVG/1.1/DTD/svg11.dtd">
<svg version="1.1" id="Capa_1" xmlns="http://www.w3.org/2000/svg" xmlns:xlink="http://www.w3.org/1999/xlink" x="0px" y="0px"
	 width="44.805px" height="44.805px" viewBox="0 0 44.805 44.805" style="enable-background:new 0 0 44.805 44.805;"
	 xml:space="preserve">
<g>
	<path d="M17.05,21.816l6.958,6.504L15.333,37.6l-6.957-6.505l1.823-1.95l1.722,1.609l0.853-0.913l-1.721-1.61l2.732-2.922
		l1.653,1.545l0.854-0.912l-1.653-1.545L17.05,21.816z M24.363,17.586l-1.683-1.574l-0.854,0.913l1.681,1.573L24.363,17.586z
		 M27.508,14.036l-1.683-1.574l-0.854,0.913l1.684,1.573L27.508,14.036z M37.416,9.345L35.2,11.714l4.914,4.594L15.601,42.525
		l-5.161-4.822L4.69,43.85l-4.333,0.955l8.246-8.82l-5.059-4.729L28.059,5.038l5.465,5.109l2.214-2.367l-4.784-4.469L34.051,0
		l10.396,9.711l-3.098,3.311L37.416,9.345z M33.832,13.176l-9.92,10.61l2.329,2.176l-1.321,1.412l-6.96-6.504l1.322-1.412
		l2.956,2.762l9.92-10.611l-4.006-3.744L6.372,31.162l9.133,8.536l21.781-23.296L33.832,13.176z"/>
</g>
<g>
</g>
<g>
</g>
<g>
</g>
<g>
</g>
<g>
</g>
<g>
</g>
<g>
</g>
<g>
</g>
<g>
</g>
<g>
</g>
<g>
</g>
<g>
</g>
<g>
</g>
<g>
</g>
<g>
</g>
</svg>
