<?xml version="1.0" encoding="iso-8859-1"?>
<!-- Generator: Adobe Illustrator 16.0.0, SVG Export Plug-In . SVG Version: 6.00 Build 0)  -->
<!DOCTYPE svg PUBLIC "-//W3C//DTD SVG 1.1//EN" "http://www.w3.org/Graphics/SVG/1.1/DTD/svg11.dtd">
<svg version="1.1" id="Capa_1" xmlns="http://www.w3.org/2000/svg" xmlns:xlink="http://www.w3.org/1999/xlink" x="0px" y="0px"
	 width="582.291px" height="582.291px" viewBox="0 0 582.291 582.291" style="enable-background:new 0 0 582.291 582.291;"
	 xml:space="preserve">
<g>
	<g>
		<path d="M517.272,81.203H65.083v298.163h452.19V81.203z M471.428,333.545H110.927V127.023h360.489v206.521H471.428z"/>
		<polygon points="517.202,393.215 297.585,393.215 284.717,393.215 65.083,393.215 0,480.186 0,501.088 582.291,501.088 
			582.291,480.186 		"/>
		<path d="M205.044,238.225c-1.196-4.793-1.22-8.88-0.082-12.244c1.145-3.369,3.97-5.546,8.513-6.516
			c2.657-0.572,5.044-0.345,7.199,0.66c2.148,1.004,3.608,3.322,4.385,6.936c0.315,1.431,0.228,2.797-0.251,4.087
			c-0.461,1.291-1.156,2.511-2.055,3.644c-0.893,1.162-1.886,2.242-2.978,3.258c-1.086,1.016-2.055,1.933-2.902,2.762
			c-2.178,2.032-4.414,4.122-6.731,6.229c-2.324,2.102-4.537,4.28-6.615,6.516c-2.102,2.224-3.994,4.554-5.728,6.971
			c-1.746,2.44-3.206,4.951-4.379,7.578c-1.384,3.077-2.248,6.341-2.569,9.809c-0.321,3.468,0.035,7.111,1.104,10.918l68.358-14.661
			l-4.128-19.267l-35.714,7.654l-0.035-0.117c3.229-3.065,6.662-6.09,10.27-9.091c3.637-3.001,6.866-6.16,9.721-9.494
			c2.838-3.333,4.986-6.971,6.422-10.93c1.448-3.935,1.624-8.442,0.538-13.51c-0.882-4.163-2.429-7.643-4.665-10.439
			c-2.225-2.796-4.963-4.916-8.238-6.346c-3.264-1.437-6.995-2.254-11.192-2.417c-4.181-0.181-8.665,0.251-13.429,1.279
			c-5.272,1.139-9.908,2.919-13.844,5.331c-3.946,2.429-7.094,5.418-9.412,8.945c-2.318,3.562-3.743,7.596-4.268,12.138
			c-0.537,4.542-0.07,9.505,1.401,14.876L205.044,238.225z"/>
		<polygon points="264.878,252.325 284.822,248.033 289.119,268.013 306.454,264.293 302.18,244.326 322.125,240.046 
			318.423,222.706 298.455,226.974 294.188,207.018 276.823,210.748 281.115,230.705 261.17,234.972 		"/>
		<path d="M347.908,200.367c-0.444-1.635-0.491-3.129-0.199-4.46c0.315-1.326,0.853-2.522,1.67-3.562
			c0.817-1.04,1.846-1.915,3.13-2.616c1.261-0.718,2.662-1.244,4.169-1.559c1.144-0.251,2.347-0.368,3.678-0.368
			c1.285,0,2.499,0.152,3.597,0.479c1.098,0.31,2.056,0.858,2.896,1.624c0.829,0.782,1.378,1.775,1.635,2.978
			c0.327,1.518,0.258,2.814-0.233,3.9c-0.479,1.098-1.19,2.021-2.125,2.762c-0.946,0.765-2.021,1.337-3.246,1.757
			c-1.215,0.42-2.429,0.753-3.632,1.016c-1.518,0.327-2.791,0.537-3.818,0.66c-1.074,0.093-2.008,0.216-2.85,0.298l3.293,15.414
			c0.795-0.309,1.658-0.648,2.593-0.969c0.911-0.297,2.219-0.648,3.865-1.004c1.284-0.263,2.604-0.456,3.923-0.537
			c1.32-0.082,2.534,0.07,3.655,0.455c1.098,0.391,2.079,1.063,2.919,1.997c0.818,0.917,1.425,2.248,1.799,3.994
			c0.701,3.24,0.257,5.739-1.366,7.461c-1.611,1.734-4.04,2.955-7.274,3.643c-1.962,0.42-3.807,0.538-5.559,0.351
			c-1.74-0.181-3.281-0.794-4.612-1.845c-2.64-1.588-4.333-4.496-5.08-8.752l-21.556,4.619c0.152,1.004,0.42,2.44,0.888,4.326
			c0.42,1.862,1.226,3.9,2.347,6.061c1.156,2.178,2.65,4.285,4.566,6.375c1.914,2.079,4.379,3.824,7.402,5.237
			c3.06,1.401,6.727,2.283,11.07,2.668c4.355,0.368,9.481-0.087,15.367-1.343c6.434-1.372,11.607-3.369,15.507-5.99
			c3.9-2.616,6.843-5.424,8.852-8.489c1.997-3.024,3.199-6.095,3.597-9.184c0.408-3.094,0.35-5.833-0.176-8.273
			c-0.63-2.942-1.471-5.342-2.545-7.21c-1.074-1.862-2.23-3.357-3.445-4.484c-1.237-1.109-2.487-1.915-3.783-2.388
			c-1.272-0.479-2.429-0.806-3.479-1.033c-1.028-0.21-1.868-0.31-2.569-0.345c-0.666,0-1.016-0.082-1.051-0.251l-0.047-0.228
			c-0.023-0.082,0.49-0.333,1.553-0.8c1.04-0.456,2.091-1.343,3.142-2.703c1.051-1.326,1.915-3.241,2.522-5.693
			c0.631-2.464,0.49-5.774-0.397-9.937c-0.362-1.658-1.296-3.55-2.825-5.675c-1.519-2.131-3.69-3.994-6.527-5.623
			c-2.838-1.588-6.353-2.727-10.568-3.345c-4.227-0.648-9.201-0.351-14.936,0.87c-4.46,0.969-8.535,2.406-12.237,4.35
			c-3.689,1.927-6.808,4.321-9.353,7.176c-2.546,2.896-4.31,6.253-5.313,10.025c-1.017,3.777-1.062,8.022-0.129,12.705
			L347.908,200.367z"/>
	</g>
</g>
<g>
</g>
<g>
</g>
<g>
</g>
<g>
</g>
<g>
</g>
<g>
</g>
<g>
</g>
<g>
</g>
<g>
</g>
<g>
</g>
<g>
</g>
<g>
</g>
<g>
</g>
<g>
</g>
<g>
</g>
</svg>
