<?xml version="1.0" encoding="iso-8859-1"?>
<!-- Generator: Adobe Illustrator 16.0.0, SVG Export Plug-In . SVG Version: 6.00 Build 0)  -->
<!DOCTYPE svg PUBLIC "-//W3C//DTD SVG 1.1//EN" "http://www.w3.org/Graphics/SVG/1.1/DTD/svg11.dtd">
<svg version="1.1" id="Capa_1" xmlns="http://www.w3.org/2000/svg" xmlns:xlink="http://www.w3.org/1999/xlink" x="0px" y="0px"
	 width="582.291px" height="582.291px" viewBox="0 0 582.291 582.291" style="enable-background:new 0 0 582.291 582.291;"
	 xml:space="preserve">
<g>
	<g>
		<path d="M517.272,81.208H65.083v298.163h452.19V81.208z M471.428,333.551H110.927V127.029h360.489v206.521H471.428z"/>
		<polygon points="517.202,393.221 297.585,393.221 284.717,393.221 65.083,393.221 0,480.191 0,501.082 582.291,501.082 
			582.291,480.191 		"/>
		<polygon points="196.123,257.159 159.475,257.159 159.475,248.611 191.808,248.611 191.808,232.316 159.475,232.316 
			159.475,223.762 195.061,223.762 195.061,206.212 138.345,206.212 138.345,274.727 196.123,274.727 		"/>
		<rect x="205.044" y="231.54" width="48.466" height="14.689"/>
		<rect x="205.044" y="254.66" width="48.466" height="14.695"/>
		<path d="M282.107,247.765c0-2.622,0.455-4.758,1.39-6.434c0.922-1.664,2.592-2.487,5.021-2.487c1.413,0,2.534,0.239,3.351,0.718
			c0.835,0.479,1.495,1.133,1.933,1.974c0.444,0.834,0.73,1.78,0.806,2.878c0.094,1.092,0.152,2.213,0.152,3.363v26.962h18.98
			v-26.962c0-2.622,0.491-4.758,1.401-6.434c0.935-1.664,2.627-2.487,5.045-2.487c1.424,0,2.522,0.239,3.362,0.718
			c0.818,0.479,1.472,1.133,1.916,1.973c0.443,0.835,0.724,1.781,0.816,2.878c0.094,1.092,0.129,2.213,0.129,3.363v26.962h19.021
			v-34.162c0-1.985-0.303-3.982-0.863-5.99c-0.584-2.008-1.542-3.842-2.873-5.465c-1.354-1.641-3.129-2.954-5.277-3.947
			c-2.184-0.993-4.882-1.483-8.069-1.483c-3.071,0-5.663,0.385-7.766,1.15c-2.113,0.765-3.795,1.623-5.091,2.546
			c-1.285,0.934-2.23,1.804-2.873,2.645c-0.642,0.823-1.051,1.302-1.25,1.431c-1.156-2.487-3.024-4.408-5.582-5.751
			c-2.557-1.337-5.173-2.008-7.858-2.008c-3.456,0-6.551,0.583-9.301,1.769c-2.75,1.185-5.097,3.217-7.006,6.089h-0.205v-6.626
			h-18.321v49.803h19.011V247.765z"/>
		<path d="M361.453,269.204c2.499,2.213,5.465,3.895,8.875,5.033c3.421,1.162,7.123,1.734,11.093,1.734
			c2.814,0,5.559-0.327,8.209-0.958c2.675-0.648,5.126-1.6,7.392-2.896c2.266-1.279,4.251-2.902,5.99-4.887
			c1.74-1.997,3.083-4.333,4.029-7.006h-17.656c-0.759,1.22-1.915,2.102-3.434,2.674c-1.518,0.59-3.035,0.876-4.577,0.876
			c-3.013,0-5.336-0.899-6.959-2.691c-1.589-1.792-2.522-4.122-2.779-7.006h36.468c0-4.858-0.549-9.184-1.635-12.95
			c-1.086-3.766-2.768-6.959-5.104-9.54c-2.288-2.598-5.23-4.56-8.816-5.909c-3.584-1.354-7.835-2.008-12.739-2.008
			c-3.97,0-7.578,0.695-10.813,2.067c-3.234,1.378-5.979,3.252-8.29,5.658c-2.289,2.399-4.075,5.179-5.325,8.343
			c-1.237,3.17-1.868,6.568-1.868,10.211c0,4.163,0.712,7.859,2.125,11.087C356.992,264.288,358.978,267.002,361.453,269.204z
			 M374.812,238.02c1.589-1.448,3.83-2.166,6.727-2.166c2.405,0,4.413,0.812,5.99,2.452c1.576,1.623,2.347,3.597,2.347,5.903
			h-18.146C372.173,241.523,373.2,239.462,374.812,238.02z"/>
		<path d="M447.817,224.148h-18.264v-0.047c1.892-1.174,3.889-2.289,5.968-3.375c2.09-1.086,4.005-2.283,5.732-3.62
			c1.74-1.331,3.165-2.896,4.298-4.665c1.098-1.769,1.682-3.97,1.682-6.557c0-2.125-0.409-3.994-1.215-5.593
			c-0.771-1.6-1.892-2.931-3.339-3.97c-1.448-1.04-3.2-1.816-5.221-2.341c-2.031-0.514-4.262-0.776-6.69-0.776
			c-2.721,0-5.161,0.379-7.333,1.156c-2.195,0.776-4.041,1.915-5.535,3.398c-1.506,1.495-2.639,3.322-3.363,5.477
			c-0.747,2.16-1.027,4.624-0.864,7.415h10.896c-0.082-2.476,0.338-4.472,1.249-5.99s2.522-2.289,4.834-2.289
			c1.354,0,2.499,0.362,3.457,1.08c0.934,0.718,1.413,1.997,1.413,3.848c0,0.729-0.199,1.401-0.549,1.973
			c-0.374,0.572-0.818,1.098-1.379,1.565c-0.571,0.467-1.167,0.887-1.798,1.272c-0.63,0.38-1.226,0.724-1.728,1.04
			c-1.262,0.765-2.593,1.553-3.924,2.341c-1.354,0.8-2.674,1.629-3.924,2.487c-1.249,0.87-2.429,1.804-3.526,2.808
			c-1.121,1.004-2.09,2.084-2.942,3.24c-1.004,1.355-1.752,2.861-2.289,4.525c-0.514,1.67-0.724,3.474-0.607,5.448h34.973v-9.85
			H447.817z"/>
	</g>
</g>
<g>
</g>
<g>
</g>
<g>
</g>
<g>
</g>
<g>
</g>
<g>
</g>
<g>
</g>
<g>
</g>
<g>
</g>
<g>
</g>
<g>
</g>
<g>
</g>
<g>
</g>
<g>
</g>
<g>
</g>
</svg>
