<?xml version="1.0" encoding="iso-8859-1"?>
<!-- Generator: Adobe Illustrator 16.0.0, SVG Export Plug-In . SVG Version: 6.00 Build 0)  -->
<!DOCTYPE svg PUBLIC "-//W3C//DTD SVG 1.1//EN" "http://www.w3.org/Graphics/SVG/1.1/DTD/svg11.dtd">
<svg version="1.1" id="Capa_1" xmlns="http://www.w3.org/2000/svg" xmlns:xlink="http://www.w3.org/1999/xlink" x="0px" y="0px"
	 width="562.59px" height="562.59px" viewBox="0 0 562.59 562.59" style="enable-background:new 0 0 562.59 562.59;"
	 xml:space="preserve">
<g>
	<g>
		<path d="M372.819,344.498v90.918h103.974v-84.938v-5.979V166.282C476.793,99.436,424.748,0,281.301,0
			C133.591,0,85.785,112.03,85.785,166.282v178.216v5.979v84.938h103.874v-84.938h0.058V166.363
			c0.023-0.625,4.151-62.443,91.584-62.443c90.538,0,91.577,59.81,91.577,62.361v178.216H372.819z M171.723,417.479h-68.002v-55.045
			h68.002V417.479z M390.756,362.434h68.101v55.045h-68.101V362.434z"/>
		<polygon points="148.549,459.961 126.631,459.961 126.631,500.317 86.275,500.317 86.275,522.235 126.631,522.235 126.631,562.59 
			148.549,562.59 148.549,522.235 188.905,522.235 188.905,500.317 148.549,500.317 		"/>
		<rect x="374.175" y="500.317" width="102.63" height="21.918"/>
	</g>
</g>
<g>
</g>
<g>
</g>
<g>
</g>
<g>
</g>
<g>
</g>
<g>
</g>
<g>
</g>
<g>
</g>
<g>
</g>
<g>
</g>
<g>
</g>
<g>
</g>
<g>
</g>
<g>
</g>
<g>
</g>
</svg>
