<?xml version="1.0" encoding="iso-8859-1"?>
<!-- Generator: Adobe Illustrator 16.0.0, SVG Export Plug-In . SVG Version: 6.00 Build 0)  -->
<!DOCTYPE svg PUBLIC "-//W3C//DTD SVG 1.1//EN" "http://www.w3.org/Graphics/SVG/1.1/DTD/svg11.dtd">
<svg version="1.1" id="Capa_1" xmlns="http://www.w3.org/2000/svg" xmlns:xlink="http://www.w3.org/1999/xlink" x="0px" y="0px"
	 width="526.778px" height="526.778px" viewBox="0 0 526.778 526.778" style="enable-background:new 0 0 526.778 526.778;"
	 xml:space="preserve">
<g>
	<g>
		<path d="M273.215,351.061c-9.879-0.094-20.832-0.305-32.562-0.631c0.648,12.214,1.313,24.358,1.997,36.246
			c10.883,0.326,21.129,0.572,30.564,0.7V351.061z"/>
		<path d="M228.854,350.056c-11.338-0.362-23.22-0.806-35.428-1.319c0.765,12.18,1.588,24.312,2.435,36.188
			c12.022,0.537,23.751,1.004,34.991,1.378C230.156,374.438,229.485,362.293,228.854,350.056z"/>
		<path d="M180.878,336.406c-0.63-10.462-1.22-20.89-1.745-31.189c-12.699-0.362-25.649-0.747-38.61-1.19
			c0.706,10.088,1.471,20.294,2.306,30.547C155.569,335.227,168.349,335.845,180.878,336.406z"/>
		<path d="M184.038,384.411c-0.841-11.888-1.664-24.008-2.429-36.188c-12.46-0.572-25.135-1.18-37.799-1.834
			c1.027,12.191,2.143,24.301,3.264,36.223C159.439,383.243,171.829,383.85,184.038,384.411z"/>
		<path d="M380.89,304.983c-0.42,10.275-0.923,20.832-1.472,31.574c12.705-0.584,25.667-1.214,38.628-1.867
			c0.736-10.51,1.378-20.867,1.915-30.945C406.907,304.166,393.805,304.586,380.89,304.983z"/>
		<path d="M333.714,206.971c0.327,12.792,0.514,25.17,0.514,36.777c0,0.076,0,0.169,0,0.257h36.293
			c-0.012-11.409-0.257-23.512-0.654-36.03C357.594,207.602,345.473,207.269,333.714,206.971z"/>
		<path d="M366.971,348.854c-12.354,0.514-24.347,0.957-35.756,1.319c-0.549,12.19-1.167,24.476-1.821,36.666
			c11.175-0.315,23.051-0.735,35.347-1.226C365.535,373.387,366.282,361.056,366.971,348.854z"/>
		<path d="M284.962,194.214c11.385,0.152,23.693,0.379,36.631,0.689c-0.338-10.521-0.759-21.258-1.249-32.089
			c-12.564-0.432-24.464-0.759-35.394-0.958v32.357H284.962z"/>
		<path d="M333.376,195.183c11.723,0.297,23.82,0.642,36.082,1.016c-0.409-10.322-0.923-20.844-1.507-31.464
			c-12.214-0.561-24.218-1.074-35.79-1.506C332.64,174.03,333.048,184.708,333.376,195.183z"/>
		<path d="M379.769,165.29c0.572,10.544,1.074,21.019,1.471,31.277c13.044,0.409,26.157,0.835,39.061,1.291
			c-0.525-10.042-1.18-20.277-1.95-30.623C405.541,166.568,392.59,165.908,379.769,165.29z"/>
		<path d="M178.538,293.422c-0.625-12.961-1.139-25.59-1.518-37.653h-39.247c0.502,11.695,1.162,23.92,1.973,36.462
			C152.754,292.652,165.763,293.061,178.538,293.422z"/>
		<path d="M188.224,195.049c12.71-0.31,24.896-0.572,36.251-0.742c0.146-10.346,0.42-21.095,0.765-32.083
			c-11.367,0.31-23.471,0.718-36.064,1.22C188.749,174.269,188.411,184.849,188.224,195.049z"/>
		<path d="M237.034,161.961c-0.362,11.023-0.636,21.801-0.794,32.165c7.689-0.082,14.935-0.14,21.527-0.14
			c4.805,0,10.019,0.035,15.449,0.082v-32.393c-3.386-0.023-6.673-0.046-9.797-0.046
			C255.46,161.641,246.551,161.746,237.034,161.961z"/>
		<path d="M317.6,387.143c0.653-12.191,1.261-24.452,1.821-36.619c-12.576,0.326-24.171,0.537-34.459,0.561v36.432
			c1.191,0,2.44,0.012,3.585,0.012C297.258,387.516,307.044,387.376,317.6,387.143z"/>
		<path d="M194.903,70.057c-0.847,11-1.682,22.239-2.435,33.577c12.302-0.49,24.189-0.899,35.405-1.232
			c0.619-11.455,1.29-22.84,1.985-33.98C218.806,68.848,207.065,69.403,194.903,70.057z"/>
		<path d="M189.707,151.657c12.553-0.491,24.627-0.899,35.954-1.197c0.443-11.945,0.992-24.107,1.6-36.257
			c-11.263,0.327-23.196,0.759-35.557,1.25C190.938,127.572,190.267,139.711,189.707,151.657z"/>
		<path d="M142.712,105.882c12.78-0.636,25.514-1.232,37.927-1.746c0.753-11.274,1.565-22.455,2.417-33.42
			c-12.161,0.718-24.633,1.506-37.162,2.353C144.779,83.848,143.716,94.836,142.712,105.882z"/>
		<path d="M239.054,113.881c-0.613,12.174-1.162,24.324-1.617,36.292c9.365-0.192,18.128-0.297,25.97-0.297
			c3.124,0,6.411,0.023,9.797,0.046v-36.444c-0.957,0-1.974-0.012-2.896-0.012C261.019,113.466,250.457,113.606,239.054,113.881z"/>
		<path d="M102.426,81.646c-0.87,8.764-1.699,17.609-2.476,26.495c10.188-0.561,20.522-1.121,30.897-1.658
			c0.981-10.982,2.032-21.883,3.135-32.596c-9.266,0.654-18.538,1.313-27.692,2.008C104.948,77.77,103.693,79.72,102.426,81.646z"/>
		<path d="M116.573,63.349c6.207-0.456,12.437-0.894,18.678-1.314c0.648-6.083,1.313-12.08,1.985-17.924
			C129.75,49.932,122.861,56.366,116.573,63.349z"/>
		<path d="M284.962,150.086c10.767,0.205,22.479,0.531,34.845,0.934c-0.596-12.278-1.261-24.58-1.985-36.684
			c-11.735-0.356-22.793-0.625-32.859-0.753V150.086z"/>
		<path d="M425.999,119.13c1.203,12.208,2.301,24.586,3.281,36.935c10.51,0.578,20.832,1.162,30.886,1.752
			c-0.957-12.343-2.031-24.732-3.223-36.987C446.831,120.269,436.473,119.679,425.999,119.13z"/>
		<path d="M430.191,167.905c0.747,10.247,1.39,20.412,1.915,30.384c10.497,0.385,20.785,0.753,30.733,1.133
			c-0.49-9.745-1.086-19.699-1.798-29.771C451.023,169.067,440.689,168.478,430.191,167.905z"/>
		<path d="M463.937,255.77h-30.5c-0.141,11.169-0.514,23.173-1.074,35.785c10.299-0.351,20.493-0.724,30.454-1.098
			C463.376,278.266,463.774,266.635,463.937,255.77z"/>
		<path d="M331.613,151.452c11.537,0.42,23.482,0.922,35.65,1.471c-0.748-12.319-1.576-24.656-2.476-36.806
			c-12.074-0.525-23.856-1.004-35.148-1.39C330.339,126.843,331.017,139.162,331.613,151.452z"/>
		<path d="M382.233,255.77c-0.116,11.648-0.433,24.248-0.899,37.419c12.962-0.362,26.122-0.783,39.224-1.238
			c0.596-12.751,0.981-24.919,1.121-36.182H382.233z"/>
		<path d="M379.08,153.484c12.752,0.613,25.62,1.255,38.348,1.938c-0.992-12.354-2.102-24.726-3.305-36.923
			c-12.529-0.66-25.094-1.285-37.494-1.857C377.515,128.804,378.356,141.159,379.08,153.484z"/>
		<path d="M179.886,115.925c-12.518,0.543-25.339,1.162-38.202,1.792c-1.016,12.139-1.915,24.253-2.668,36.176
			c13.143-0.648,26.174-1.244,38.873-1.757C178.45,140.201,179.122,128.063,179.886,115.925z"/>
		<path d="M376.57,385.146c10.719-0.456,21.672-0.97,32.695-1.507c1.729-2.137,3.562-4.46,5.547-7.006
			c0.853-10.065,1.658-20.131,2.405-30.127c-12.903,0.654-25.783,1.262-38.417,1.822
			C378.099,360.542,377.364,372.874,376.57,385.146z"/>
		<path d="M486.019,243.993c2.954-10.404,5.196-20.99,6.586-31.645c-5.617-0.222-11.455-0.449-17.445-0.689
			c0.432,11.193,0.665,21.988,0.665,32.2c0,0.047,0,0.082,0,0.134H486.019z"/>
		<path d="M429.035,345.899c-0.304,4.285-0.631,8.571-0.98,12.881c2.966-4.182,6.025-8.618,9.143-13.301
			C434.476,345.596,431.767,345.759,429.035,345.899z"/>
		<path d="M375.798,396.928c-0.759,11.35-1.553,22.549-2.347,33.455c8.104-0.467,16.359-0.969,24.674-1.506l-1.53-30.291
			c0,0,0.876-0.957,2.383-2.686C391.166,396.274,383.413,396.625,375.798,396.928z"/>
		<path d="M176.266,214.322c0-2.365,0.023-4.793,0.035-7.211c-12.845,0.327-26.069,0.73-39.422,1.139
			c-0.029,2.546-0.064,5.068-0.064,7.543c0,8.781,0.193,18.275,0.514,28.2h39.341C176.407,233.531,176.266,223.541,176.266,214.322z
			"/>
		<path d="M334.169,255.77c-0.116,12.051-0.396,25.065-0.805,38.681c11.618-0.257,23.739-0.561,36.187-0.911
			c0.479-13.312,0.806-26.04,0.935-37.77H334.169z"/>
		<path d="M433.484,243.993h30.57c0-0.053,0-0.087,0-0.134c0-10.346-0.257-21.311-0.7-32.644
			c-9.938-0.374-20.202-0.753-30.711-1.138C433.157,221.842,433.437,233.215,433.484,243.993z"/>
		<path d="M50.913,289.008c-0.14-2.289-0.286-4.589-0.426-6.843c-1.687,2.254-3.305,4.461-4.87,6.633
			C47.386,288.868,49.108,288.938,50.913,289.008z"/>
		<path d="M451.058,65.38c-0.479-4.076-0.958-8.081-1.425-12.004c-6.481-6.434-14.13-12.564-23.098-18.245
			c-3.34-0.251-6.69-0.479-10.065-0.73c1.133,8.991,2.324,18.607,3.491,28.65C430.448,63.815,440.852,64.592,451.058,65.38z"/>
		<path d="M83.795,255.77H69.508c-2.499,3.871-5.214,7.783-8.069,11.683c0.379,7.205,0.812,14.561,1.291,22.035
			c7.438,0.269,15.127,0.572,22.957,0.853C84.934,278.476,84.286,266.875,83.795,255.77z"/>
		<path d="M84.578,156.783c0.689-11.87,1.542-23.985,2.522-36.135c-1.057,0.047-2.108,0.111-3.159,0.181
			c-3.55,11.35-5.99,23.482-7.187,36.397C79.352,157.086,81.945,156.929,84.578,156.783z"/>
		<path d="M69.929,378.268c7.438,0.443,15.122,0.888,23.004,1.354c-1.121-11.911-2.213-24.02-3.241-36.175
			c-5.855-0.328-11.612-0.678-17.241-1.005c-1.354,2.86-3.146,6.878-4.746,11.257C68.411,361.967,69.164,370.153,69.929,378.268z"/>
		<path d="M83.941,168.612c-2.668,0.158-5.318,0.298-7.952,0.455c-0.31,9.429,0.023,19.25,1.016,29.461
			c1.961-0.07,3.923-0.146,5.896-0.228C83.095,188.726,83.439,178.8,83.941,168.612z"/>
		<path d="M96.389,156.129c10.177-0.555,20.481-1.104,30.815-1.629c0.742-11.922,1.624-24.043,2.628-36.17
			c-10.375,0.525-20.71,1.086-30.886,1.652C97.954,132.138,97.095,144.242,96.389,156.129z"/>
		<path d="M228.241,338.274c-0.525-10.685-1.027-21.346-1.494-31.891c-11.42-0.232-23.448-0.514-35.837-0.852
			c0.543,10.381,1.138,20.867,1.774,31.388C204.951,337.468,216.874,337.901,228.241,338.274z"/>
		<path d="M273.215,306.967c-10.334-0.012-22.005-0.151-34.663-0.35c0.467,10.579,0.969,21.311,1.506,32.042
			c11.958,0.327,23.127,0.561,33.157,0.642V306.967z"/>
		<path d="M226.268,294.613c-0.525-13.358-0.981-26.384-1.302-38.844h-36.181c0.379,12.185,0.911,24.925,1.53,38.003
			C202.75,294.088,214.812,294.38,226.268,294.613z"/>
		<path d="M369.096,305.309c-12.425,0.352-24.522,0.666-36.105,0.912c-0.362,10.509-0.771,21.24-1.25,32.146
			c11.433-0.339,23.46-0.806,35.86-1.32C368.173,326.258,368.675,315.656,369.096,305.309z"/>
		<path d="M321.22,306.465c-13.09,0.246-25.352,0.421-36.246,0.49v32.369c10.439-0.047,22.21-0.244,34.984-0.584
			C320.438,327.776,320.846,316.987,321.22,306.465z"/>
		<path d="M236.123,205.902c-0.012,2.324-0.023,4.677-0.023,6.948c0,9.663,0.128,20.137,0.355,31.143h36.76v-38.149
			c-5.418-0.047-10.632-0.082-15.449-0.082C251.14,205.762,243.859,205.821,236.123,205.902z"/>
		<path d="M420.861,209.651c-12.962-0.444-26.11-0.899-39.212-1.308c0.397,12.378,0.631,24.359,0.654,35.65h39.422
			C421.69,233.087,421.375,221.585,420.861,209.651z"/>
		<path d="M125.301,196.853c0.24-9.85,0.66-20.084,1.221-30.536c-10.334,0.526-20.628,1.063-30.781,1.624
			c-0.514,10.287-0.87,20.294-1.062,29.952C104.808,197.536,115.067,197.191,125.301,196.853z"/>
		<path d="M177.387,163.923c-12.757,0.537-25.876,1.15-39.065,1.792c-0.572,10.539-1.004,20.832-1.244,30.757
			c13.335-0.42,26.548-0.8,39.364-1.15C176.634,185.193,176.956,174.672,177.387,163.923z"/>
		<path d="M224.324,212.851c0-2.219,0.011-4.508,0.023-6.779c-11.374,0.181-23.559,0.444-36.281,0.753
			c-0.012,2.522-0.035,5.044-0.035,7.508c0,9.219,0.152,19.197,0.421,29.671h36.239
			C224.452,232.987,224.324,222.501,224.324,212.851z"/>
		<path d="M238.062,294.835c12.851,0.222,24.691,0.338,35.154,0.362V255.77H236.73C237.069,268.299,237.524,281.407,238.062,294.835
			z"/>
		<path d="M284.962,243.993h37.507c0-0.087,0-0.181,0-0.257c0-11.701-0.21-24.166-0.537-37.075
			c-13.055-0.304-25.479-0.555-36.97-0.707V243.993z"/>
		<path d="M322.4,255.77h-37.438v39.428c11-0.07,23.39-0.245,36.631-0.514C322.014,280.975,322.283,267.879,322.4,255.77z"/>
		<path d="M199.34,17.854c11.887-0.625,23.319-1.139,34.068-1.53c0.309-4.262,0.625-8.442,0.934-12.5
			c-11.911,1.962-23.424,4.665-34.453,8.133C199.714,13.908,199.521,15.869,199.34,17.854z"/>
		<path d="M241.669,68.013c-0.706,11.193-1.372,22.613-1.997,34.103c11.169-0.251,21.498-0.409,30.647-0.409
			c0.922,0,1.938,0.012,2.896,0.012V67.535c-0.958-0.012-1.974-0.023-2.896-0.023C261.725,67.511,252.085,67.692,241.669,68.013z"/>
		<path d="M288.547,506.436c6.645,0,13.954-0.117,21.72-0.304c0.455-6.562,0.934-13.615,1.436-21.065
			c-8.29,0.234-16.091,0.351-23.155,0.351c-1.145,0-2.394-0.012-3.573-0.023v21.019
			C286.154,506.413,287.403,506.436,288.547,506.436z"/>
		<path d="M400.764,480.688c-10.614,0.678-21.101,1.32-31.329,1.881c-0.596,7.402-1.191,14.479-1.752,21.1
			c11.141-0.619,22.561-1.296,34.133-2.055L400.764,480.688z"/>
		<path d="M408.028,62.192c-1.191-10.083-2.382-19.67-3.515-28.65c-11.76-0.817-23.541-1.605-35.102-2.3
			c0.841,8.933,1.729,18.514,2.615,28.58C383.891,60.552,395.965,61.352,408.028,62.192z"/>
		<path d="M368.244,19.396c10.439,0.63,21.042,1.313,31.668,2.043c-9.68-4.017-20.493-7.614-32.521-10.726
			C367.671,13.499,367.963,16.406,368.244,19.396z"/>
		<path d="M312.462,473.285c0.596-9.073,1.202-18.602,1.81-28.469c-9.271,0.245-17.947,0.409-25.736,0.409
			c-1.145,0-2.394-0.023-3.573-0.023v28.422c1.191,0,2.429,0.023,3.573,0.023C295.81,473.647,303.891,473.506,312.462,473.285z"/>
		<path d="M150.116,34.938c-1.005,8.478-1.985,17.271-2.966,26.273c12.448-0.841,24.808-1.629,36.853-2.312
			c0.788-9.814,1.6-19.367,2.411-28.55c-10.486,0.595-21.211,1.243-32.042,1.961C152.947,33.181,151.499,34.056,150.116,34.938z"/>
		<path d="M325.868,57.288c11,0.502,22.479,1.121,34.284,1.804c-0.899-10.078-1.775-19.659-2.64-28.58
			c-11.63-0.677-22.934-1.25-33.747-1.74C324.443,37.711,325.167,47.257,325.868,57.288z"/>
		<path d="M273.215,445.049c-8.407-0.163-17.434-0.408-27.003-0.806c0.671,10.206,1.308,19.758,1.915,28.504
			c8.874,0.339,17.229,0.596,25.088,0.759V445.049z"/>
		<path d="M270.308,27.325c-7.83,0-16.582,0.163-25.935,0.415c-0.66,9.172-1.302,18.677-1.95,28.486
			c10.095-0.304,19.489-0.479,27.885-0.479c0.934,0,1.938,0.012,2.896,0.023V27.348C272.258,27.336,271.242,27.325,270.308,27.325z"
			/>
		<path d="M195.849,58.234c12.103-0.648,23.774-1.208,34.763-1.617c0.63-9.792,1.29-19.32,1.938-28.492
			c-10.825,0.391-22.327,0.934-34.284,1.564C197.466,38.873,196.649,48.414,195.849,58.234z"/>
		<path d="M234.389,443.73c-10.965-0.49-22.443-1.074-34.231-1.763c0.776,9.75,1.529,18.998,2.248,27.569
			c1.109-1.074,1.541-1.752,1.541-1.752l0.677,2.85c10.895,0.618,21.515,1.167,31.668,1.611
			C235.691,463.464,235.061,453.936,234.389,443.73z"/>
		<path d="M76.252,243.993h7.082c-0.385-10.971-0.601-21.393-0.601-31.02c0-0.946,0.012-1.938,0.023-2.896
			c-1.472,0.064-2.914,0.111-4.373,0.158c0.765,5.331,1.699,10.725,2.819,16.26C81.203,231.89,79.265,237.833,76.252,243.993z"/>
		<path d="M357.571,483.21c-11.911,0.618-23.343,1.121-34.062,1.495c-0.503,7.426-0.97,14.502-1.426,21.053
			c10.615-0.35,21.93-0.84,33.736-1.459C356.391,497.69,356.963,490.649,357.571,483.21z"/>
		<path d="M354.815,516.139c-11.747,0.596-23.004,1.074-33.56,1.426c-0.223,3.234-0.444,6.293-0.643,9.213h33.291
			C354.196,523.415,354.5,519.888,354.815,516.139z"/>
		<path d="M284.962,55.91c8.991,0.169,18.742,0.456,29.088,0.875c-0.725-10.054-1.437-19.611-2.125-28.503
			c-9.563-0.386-18.579-0.648-26.951-0.794V55.91H284.962z"/>
		<path d="M309.438,517.903c-7.45,0.199-14.468,0.292-20.891,0.292c-1.145,0-2.394-0.012-3.573-0.023v8.606h23.845
			C309.017,523.975,309.228,521.021,309.438,517.903z"/>
		<path d="M239.48,516.946c-7.736-0.339-15.758-0.736-23.996-1.18l2.645,10.988h22.093
			C240.128,525.469,239.877,522.095,239.48,516.946z"/>
		<path d="M322.843,16.955c10.731,0.491,21.965,1.063,33.525,1.734c-0.374-3.79-0.736-7.362-1.086-10.819
			c-5.991-1.285-12.156-2.499-18.707-3.556c-4.986-0.789-9.949-1.472-14.9-2.043C322.049,6.866,322.434,11.753,322.843,16.955z"/>
		<path d="M248.629,526.778h24.574v-8.746c-6.89-0.129-14.205-0.327-21.895-0.619c0.42,5.605,0.672,8.852,0.695,9.097
			L248.629,526.778z"/>
		<path d="M400.905,513.465c-11.607,0.748-23.074,1.425-34.226,2.056c-0.327,3.923-0.666,7.718-0.97,11.233h33.63
			C399.831,522.644,400.344,518.183,400.905,513.465z"/>
		<path d="M187.47,18.497c0.07-0.765,0.141-1.564,0.21-2.318c-2.33,0.87-4.659,1.757-6.942,2.727
			C183.01,18.748,185.234,18.643,187.47,18.497z"/>
		<path d="M245.231,15.963c9.021-0.251,17.487-0.409,25.089-0.409c0.934,0,1.938,0.012,2.896,0.023V0.146
			c-9.149,0.263-18.141,0.928-26.939,1.979C245.926,6.598,245.582,11.216,245.231,15.963z"/>
		<path d="M284.962,0v15.711c8.127,0.158,16.815,0.397,26.052,0.753c-0.432-5.465-0.853-10.591-1.249-15.367
			C301.404,0.409,293.16,0.07,284.962,0z"/>
		<path d="M34.88,321.354c2.832,3.129,6.101,5.512,9.447,7.59c3.106,0.188,6.288,0.386,9.528,0.584
			c-0.776-9.645-1.494-19.221-2.148-28.702c-4.677-0.187-9.23-0.374-13.656-0.537C32.836,309.163,30.588,316.636,34.88,321.354z"/>
		<path d="M237.116,484.063c-9.494-0.42-19.431-0.923-29.619-1.494l5.121,21.275c8.927,0.479,17.621,0.922,25.993,1.272
			C238.178,499.103,237.676,492.049,237.116,484.063z"/>
		<path d="M273.215,485.243c-7.607-0.152-15.7-0.362-24.265-0.713c0.566,8.011,1.08,15.122,1.506,21.089
			c8.017,0.28,15.618,0.502,22.759,0.642V485.243z"/>
		<path d="M88.7,331.606c-0.788-9.891-1.53-19.746-2.225-29.473c-7.841-0.291-15.495-0.584-22.957-0.863
			c0.671,9.574,1.39,19.243,2.178,28.971C73.146,330.684,80.835,331.139,88.7,331.606z"/>
		<path d="M105.953,392.153c1.068,10.906,2.154,21.544,3.229,31.75c9.984,0.77,20.172,1.541,30.437,2.288
			c-1.092-10.416-2.189-21.264-3.27-32.368C126.078,393.286,115.913,392.713,105.953,392.153z"/>
		<path d="M157.297,479.416c0.193,1.657,0.374,3.292,0.566,4.881c7.713-0.958,14.206-2.195,19.606-3.538
			C170.778,480.327,164.046,479.882,157.297,479.416z"/>
		<path d="M146.145,485.347c-0.263-2.207-0.514-4.437-0.776-6.772c-8.705-0.607-17.364-1.238-25.911-1.893
			C125.383,482.323,133.925,485.931,146.145,485.347z"/>
		<path d="M152.778,438.907c1.092,10.113,2.154,19.746,3.159,28.645c11.648,0.794,23.255,1.564,34.675,2.254
			c-0.742-8.863-1.519-18.45-2.318-28.551C176.599,440.531,164.688,439.737,152.778,438.907z"/>
		<path d="M231.528,398.108c-11.175-0.386-22.846-0.83-34.827-1.344c0.835,11.514,1.682,22.666,2.51,33.373
			c11.847,0.689,23.378,1.285,34.401,1.811C232.929,421.135,232.235,409.796,231.528,398.108z"/>
		<path d="M148.212,394.429c1.098,11.21,2.213,22.128,3.311,32.603c12.01,0.841,24.026,1.658,35.849,2.383
			c-0.823-10.65-1.675-21.767-2.499-33.199C172.775,395.667,160.479,395.072,148.212,394.429z"/>
		<path d="M130.982,333.942c-0.812-10.171-1.565-20.295-2.259-30.313c-10.235-0.339-20.423-0.7-30.407-1.052
			c0.677,9.81,1.43,19.734,2.248,29.707C110.536,332.844,120.712,333.393,130.982,333.942z"/>
		<path d="M273.215,399.147c-9.23-0.117-19.25-0.351-29.87-0.666c0.707,11.736,1.413,23.133,2.102,33.969
			c9.855,0.386,19.145,0.678,27.768,0.841V399.147z"/>
		<path d="M127.935,291.834c-0.794-12.401-1.448-24.493-1.927-36.065H95.578c0.502,11.251,1.156,23.01,1.933,35.014
			C107.5,291.134,117.67,291.484,127.935,291.834z"/>
		<path d="M125.05,215.793c0-2.341,0.023-4.758,0.047-7.158c-10.235,0.321-20.47,0.677-30.588,1.028
			c0,1.098-0.023,2.236-0.023,3.311c0,9.627,0.216,20.049,0.602,31.02h30.454C125.243,234.079,125.05,224.586,125.05,215.793z"/>
		<path d="M135.204,381.958c-1.127-11.887-2.225-24.008-3.24-36.175c-10.258-0.537-20.423-1.098-30.419-1.682
			c1.027,12.19,2.137,24.288,3.264,36.198C114.769,380.883,124.934,381.42,135.204,381.958z"/>
		<path d="M140.855,438.067c-10.247-0.748-20.417-1.506-30.419-2.277c1.092,10.136,2.155,19.758,3.159,28.656
			c9.996,0.77,20.184,1.529,30.407,2.253C142.999,457.754,141.947,448.167,140.855,438.067z"/>
		<path d="M94.071,391.475c-3.59-0.223-7.152-0.408-10.655-0.619c-4.577,4.637-9.062,10.463-9.062,15.612
			s7.602,11.128,15.361,15.893c2.499,0.21,4.998,0.397,7.532,0.607C96.185,412.809,95.122,402.276,94.071,391.475z"/>
		<path d="M472.018,158.505c6.621,0.386,13.102,0.777,19.349,1.174c-1.81-10.655-3.246-23.459-6.188-37.174
			c-5.337-0.327-10.802-0.648-16.359-0.969C469.998,133.779,471.06,146.18,472.018,158.505z"/>
		<path d="M455.787,108.982c-1.086-10.801-2.219-21.416-3.374-31.703c-10.183-0.788-20.575-1.577-31.062-2.341
			c1.18,10.462,2.359,21.293,3.491,32.346C435.293,107.833,445.663,108.404,455.787,108.982z"/>
		<path d="M482.224,110.524c-2.967-10.55-7.088-21.346-13.184-31.925c-1.553-0.134-3.141-0.257-4.718-0.374
			c1.156,10.211,2.266,20.732,3.34,31.446C472.602,109.946,477.471,110.244,482.224,110.524z"/>
		<path d="M315.007,433.022c0.666-11.094,1.32-22.502,1.962-34.108c-10.299,0.233-19.862,0.351-28.41,0.351
			c-1.145,0-2.394,0-3.585,0v34.154c1.191,0.012,2.429,0.023,3.573,0.023C296.511,433.454,305.433,433.291,315.007,433.022z"/>
		<path d="M328.916,102.917c11.244,0.397,22.98,0.846,34.984,1.377c-0.876-11.443-1.799-22.624-2.721-33.361
			c-11.864-0.707-23.413-1.313-34.471-1.833C327.467,79.994,328.203,91.344,328.916,102.917z"/>
		<path d="M474.646,199.877c6.574,0.251,12.984,0.502,19.127,0.753c0.653-9.721,0.49-19.413-0.607-29.064
			c-6.539-0.397-13.312-0.788-20.283-1.22C473.572,180.318,474.178,190.208,474.646,199.877z"/>
		<path d="M375.741,104.843c12.308,0.561,24.767,1.174,37.203,1.804c-1.145-11.146-2.336-22.046-3.526-32.562
			c-12.168-0.858-24.358-1.682-36.352-2.423C373.965,82.365,374.876,93.47,375.741,104.843z"/>
		<path d="M284.962,101.819c9.879,0.128,20.681,0.368,32.147,0.741c-0.724-11.66-1.472-23.033-2.242-33.963
			c-10.638-0.438-20.668-0.753-29.905-0.917V101.819z"/>
		<path d="M475.72,255.77c-0.094,6.183-0.258,12.6-0.503,19.238c2.593-6.3,4.998-12.723,7.193-19.238H475.72z"/>
		<path d="M358.529,471.381c0.724-9.119,1.471-18.637,2.207-28.527c-12.086,0.643-23.705,1.18-34.635,1.576
			c-0.607,9.867-1.227,19.408-1.811,28.48C335.069,472.526,346.559,472.012,358.529,471.381z"/>
		<path d="M363.97,397.418c-12.262,0.49-24.09,0.911-35.207,1.215c-0.631,11.561-1.284,22.934-1.961,34.004
			c10.976-0.397,22.676-0.958,34.809-1.6C362.417,420.073,363.199,408.815,363.97,397.418z"/>
		<path d="M398.733,440.624c-8.84,0.584-17.586,1.098-26.157,1.588c-0.735,9.855-1.482,19.408-2.207,28.539
			c9.739-0.537,19.699-1.145,29.777-1.798L398.733,440.624z"/>
		<path d="M431.779,303.336c-0.525,9.996-1.168,20.283-1.892,30.723c5.056-0.246,10.112-0.537,15.146-0.807
			c5.814-9.354,11.63-19.453,17.13-30.139c0.012-0.279,0.035-0.583,0.047-0.863C452.249,302.624,442.078,302.986,431.779,303.336z"
			/>
	</g>
</g>
<g>
</g>
<g>
</g>
<g>
</g>
<g>
</g>
<g>
</g>
<g>
</g>
<g>
</g>
<g>
</g>
<g>
</g>
<g>
</g>
<g>
</g>
<g>
</g>
<g>
</g>
<g>
</g>
<g>
</g>
</svg>
