<?xml version="1.0" encoding="iso-8859-1"?>
<!-- Generator: Adobe Illustrator 16.0.0, SVG Export Plug-In . SVG Version: 6.00 Build 0)  -->
<!DOCTYPE svg PUBLIC "-//W3C//DTD SVG 1.1//EN" "http://www.w3.org/Graphics/SVG/1.1/DTD/svg11.dtd">
<svg version="1.1" id="Capa_1" xmlns="http://www.w3.org/2000/svg" xmlns:xlink="http://www.w3.org/1999/xlink" x="0px" y="0px"
	 width="535.416px" height="535.417px" viewBox="0 0 535.416 535.417" style="enable-background:new 0 0 535.416 535.417;"
	 xml:space="preserve">
<g>
	<path d="M500.364,167.693c-9.108-44.77-3.293-138.514-158.318-163.234C187.062-20.285,47.397,58.361,82.528,230.248
		c0,31.33-62.035,79.965-47.088,96.406c14.946,16.441,40.31,17.083,40.31,17.083s-16.488,31.33-9.073,39.982
		c7.409,8.653,28.025,4.951,28.025,4.951s-19.156,13.803-19.156,24.511c0,10.72,32.345,24.954,32.345,24.954
		s-5.932,59.285,42.64,55.174c48.57-4.109,56.75-17.83,56.75-17.83l14.41,59.938H409.68l-6.609-130.27
		C403.07,405.159,518.511,279.829,500.364,167.693z"/>
</g>
<g>
</g>
<g>
</g>
<g>
</g>
<g>
</g>
<g>
</g>
<g>
</g>
<g>
</g>
<g>
</g>
<g>
</g>
<g>
</g>
<g>
</g>
<g>
</g>
<g>
</g>
<g>
</g>
<g>
</g>
</svg>
