<?xml version="1.0" encoding="iso-8859-1"?>
<!-- Generator: Adobe Illustrator 16.0.0, SVG Export Plug-In . SVG Version: 6.00 Build 0)  -->
<!DOCTYPE svg PUBLIC "-//W3C//DTD SVG 1.1//EN" "http://www.w3.org/Graphics/SVG/1.1/DTD/svg11.dtd">
<svg version="1.1" id="Capa_1" xmlns="http://www.w3.org/2000/svg" xmlns:xlink="http://www.w3.org/1999/xlink" x="0px" y="0px"
	 width="535.416px" height="535.417px" viewBox="0 0 535.416 535.417" style="enable-background:new 0 0 535.416 535.417;"
	 xml:space="preserve">
<g>
	<g>
		<path d="M314.769,238.27V80.605h-49.826v154.745l-3.328,2.207c-13.283,8.758-21.223,23.471-21.223,39.352
			c0,25.982,21.141,47.117,47.123,47.117c25.994,0,47.129-21.135,47.129-47.117c0-14.152-6.259-27.406-17.188-36.397L314.769,238.27
			z M288.145,312.127c-20.026,0-36.275-16.23-36.275-36.269c0-15.846,10.247-29.181,24.417-34.121V129.883h27.599v113.455
			c12.097,5.874,20.517,18.181,20.517,32.521C324.402,295.897,308.159,312.127,288.145,312.127z"/>
		<path d="M500.364,167.693c-9.108-44.77-3.293-138.514-158.318-163.234C187.062-20.285,47.397,58.361,82.528,230.248
			c0,31.33-62.035,79.965-47.088,96.406c14.946,16.441,40.31,17.083,40.31,17.083s-16.488,31.33-9.073,39.982
			c7.409,8.653,28.025,4.951,28.025,4.951s-19.156,13.803-19.156,24.511c0,10.72,32.345,24.954,32.345,24.954
			s-5.932,59.285,42.64,55.174c48.57-4.109,56.75-17.83,56.75-17.83l14.41,59.938H409.68l-6.609-130.27
			C403.07,405.159,518.511,279.829,500.364,167.693z M366.265,106.284h28.924V80.605h14.352v25.678h24.3v14.351h-24.3v27.535
			h-14.352v-27.535h-28.924V106.284z M287.514,338.833c-34.149,0-61.935-27.791-61.935-61.935c0-19.512,9.096-37.659,24.545-49.371
			V65.787h79.451v165.617c12.681,11.724,19.897,28.106,19.897,45.494C349.473,311.053,321.682,338.833,287.514,338.833z
			 M366.265,206.473h67.563v14.351h-67.563V206.473z"/>
	</g>
</g>
<g>
</g>
<g>
</g>
<g>
</g>
<g>
</g>
<g>
</g>
<g>
</g>
<g>
</g>
<g>
</g>
<g>
</g>
<g>
</g>
<g>
</g>
<g>
</g>
<g>
</g>
<g>
</g>
<g>
</g>
</svg>
