<?xml version="1.0" encoding="iso-8859-1"?>
<!-- Generator: Adobe Illustrator 16.0.0, SVG Export Plug-In . SVG Version: 6.00 Build 0)  -->
<!DOCTYPE svg PUBLIC "-//W3C//DTD SVG 1.1//EN" "http://www.w3.org/Graphics/SVG/1.1/DTD/svg11.dtd">
<svg version="1.1" id="Capa_1" xmlns="http://www.w3.org/2000/svg" xmlns:xlink="http://www.w3.org/1999/xlink" x="0px" y="0px"
	 width="44.869px" height="44.87px" viewBox="0 0 44.869 44.87" style="enable-background:new 0 0 44.869 44.87;"
	 xml:space="preserve">
<g>
	<g>
		<polygon points="2.909,25.887 7.364,25.887 7.364,23.639 2.909,23.639 2.909,22.462 7.814,22.462 7.814,20.042 0,20.042 0,29.483 
			7.959,29.483 7.959,27.063 2.909,27.063 		"/>
		<rect x="9.189" y="26.719" width="6.677" height="2.022"/>
		<rect x="9.189" y="23.534" width="6.677" height="2.021"/>
		<polygon points="22.74,25.596 22.714,25.596 21.365,20.042 17.227,20.042 17.227,29.483 19.977,29.483 19.977,23.428 
			20.004,23.428 21.643,29.483 23.812,29.483 25.451,23.428 25.477,23.428 25.477,29.483 28.227,29.483 28.227,20.042 
			24.089,20.042 		"/>
		<path d="M35.505,26.403c-0.073,0.193-0.172,0.361-0.291,0.502c-0.118,0.141-0.264,0.252-0.437,0.33
			c-0.172,0.08-0.381,0.119-0.629,0.119c-0.344,0-0.629-0.074-0.858-0.228c-0.229-0.147-0.412-0.349-0.547-0.594
			c-0.138-0.248-0.236-0.522-0.3-0.834c-0.062-0.31-0.092-0.621-0.092-0.938c0-0.316,0.03-0.629,0.092-0.938s0.162-0.588,0.3-0.832
			c0.135-0.248,0.317-0.446,0.547-0.598c0.229-0.148,0.517-0.225,0.858-0.225c0.302,0,0.545,0.059,0.733,0.172
			c0.188,0.115,0.343,0.247,0.455,0.396c0.115,0.15,0.195,0.303,0.238,0.455c0.045,0.154,0.073,0.277,0.092,0.365h2.83
			c-0.123-1.189-0.539-2.108-1.25-2.756c-0.709-0.648-1.718-0.977-3.021-0.985c-0.73,0-1.393,0.119-1.979,0.357
			c-0.586,0.238-1.088,0.573-1.506,1.005c-0.422,0.432-0.74,0.952-0.967,1.559c-0.225,0.609-0.338,1.285-0.338,2.025
			c0,0.694,0.105,1.346,0.316,1.948c0.212,0.604,0.523,1.125,0.934,1.565c0.41,0.438,0.91,0.789,1.5,1.045
			c0.59,0.255,1.27,0.384,2.035,0.384c0.688,0,1.301-0.112,1.838-0.345c0.537-0.229,0.99-0.53,1.354-0.905
			c0.367-0.375,0.646-0.795,0.834-1.263c0.188-0.467,0.283-0.938,0.283-1.416h-2.854C35.641,26.001,35.582,26.208,35.505,26.403z"/>
		<path d="M41.891,20.223v-0.01c0.312-0.189,0.635-0.372,0.978-0.549c0.342-0.177,0.651-0.374,0.938-0.592
			c0.283-0.218,0.518-0.473,0.699-0.763c0.186-0.291,0.273-0.647,0.273-1.07c0-0.348-0.062-0.652-0.193-0.914
			c-0.129-0.262-0.312-0.479-0.549-0.649c-0.236-0.17-0.521-0.298-0.854-0.383c-0.332-0.086-0.697-0.128-1.095-0.128
			c-0.442,0-0.842,0.063-1.198,0.189c-0.354,0.126-0.658,0.311-0.904,0.554c-0.245,0.243-0.43,0.542-0.549,0.896
			s-0.166,0.758-0.142,1.212h1.781c-0.015-0.404,0.055-0.73,0.202-0.98c0.147-0.249,0.412-0.374,0.791-0.374
			c0.222,0,0.41,0.059,0.563,0.176c0.154,0.116,0.232,0.326,0.232,0.63c0,0.119-0.031,0.227-0.093,0.321
			c-0.06,0.095-0.135,0.181-0.228,0.256c-0.092,0.076-0.188,0.146-0.293,0.209s-0.198,0.12-0.28,0.17
			c-0.207,0.127-0.422,0.255-0.644,0.384c-0.222,0.13-0.435,0.266-0.64,0.407c-0.207,0.143-0.397,0.295-0.578,0.46
			c-0.18,0.164-0.34,0.341-0.479,0.53c-0.164,0.221-0.289,0.467-0.373,0.738c-0.086,0.271-0.118,0.568-0.101,0.891h5.711v-1.61
			L41.891,20.223L41.891,20.223z"/>
	</g>
</g>
<g>
</g>
<g>
</g>
<g>
</g>
<g>
</g>
<g>
</g>
<g>
</g>
<g>
</g>
<g>
</g>
<g>
</g>
<g>
</g>
<g>
</g>
<g>
</g>
<g>
</g>
<g>
</g>
<g>
</g>
</svg>
