<?xml version="1.0" encoding="iso-8859-1"?>
<!-- Generator: Adobe Illustrator 16.0.0, SVG Export Plug-In . SVG Version: 6.00 Build 0)  -->
<!DOCTYPE svg PUBLIC "-//W3C//DTD SVG 1.1//EN" "http://www.w3.org/Graphics/SVG/1.1/DTD/svg11.dtd">
<svg version="1.1" id="Capa_1" xmlns="http://www.w3.org/2000/svg" xmlns:xlink="http://www.w3.org/1999/xlink" x="0px" y="0px"
	 width="563.234px" height="563.233px" viewBox="0 0 563.234 563.233" style="enable-background:new 0 0 563.234 563.233;"
	 xml:space="preserve">
<g>
	<g>
		<path d="M478.924,427.854c39.246-17.376,90.999-61.095,83.596-139.775c-7.053-75.008-57.895-110.465-96.207-123.17
			c-1.624-5.862-3.9-11.625-7.428-16.961c-1.155-1.734-2.568-3.153-3.864-4.735l7.625-4.531l7.987,13.44l29.355-17.445
			L426.225,10.584L396.857,28.03l7.229,12.15L194.148,164.991l9.832,16.535l-22.542,13.405l36.929,62.128l22.548-13.399l11.8,19.833
			l101.79-60.517c1.459,3.567,3.246,7.047,5.453,10.381c18.053,27.313,54.848,34.821,82.16,16.751
			c6.947-4.589,12.576-10.416,16.873-16.955c21.218,8.81,51.251,29.893,55.898,79.41c6.306,67.026-49.277,89.938-63.523,94.666
			H232.881v47.83h198.213v60.779h-46.335v47.829h147.973v-47.829h-53.808V427.854z M258.133,242.188l-42.674-71.779l21.918-13.026
			l41.167,72.678L258.133,242.188z M291.915,222.098l-41.167-72.678l29.975-17.813l42.721,71.744L291.915,222.098z M424.018,202.714
			c-12.203,8.063-28.621,4.711-36.666-7.474c-1.974-2.978-3.223-6.206-3.877-9.493c-1.437-7.351,0.385-14.994,4.939-20.996h-0.012
			c1.764-2.33,3.854-4.472,6.434-6.171c3.352-2.213,7.007-3.491,10.743-4.028c1.799-0.263,3.608-0.321,5.407-0.216
			c0.104,0,0.222,0.023,0.314,0.035c1.729,0.123,3.41,0.409,5.068,0.864c0.094,0.023,0.175,0.046,0.257,0.07
			c1.693,0.491,3.352,1.139,4.928,1.95c0.012,0.012,0.035,0.023,0.059,0.035c1.611,0.835,3.141,1.851,4.577,3.024
			c1.985,1.641,3.83,3.479,5.324,5.728C439.56,178.239,436.208,194.657,424.018,202.714z M443.309,132.108
			c-19.361-13.487-45.705-14.719-66.584-0.923c-19.185,12.676-28.316,34.57-25.98,55.951l-13.932,8.285l-42.726-71.744
			L409.97,54.794l42.657,71.779L443.309,132.108z"/>
		<path d="M154.371,376.147c-0.023-0.023-0.053-0.047-0.064-0.047l-9.657,22.374c24.499,20.411,33.864,55.279,20.587,85.99
			c-16.138,37.366-59.676,54.649-97.042,38.511c-37.367-16.148-54.649-59.693-38.505-97.06
			c13.259-30.711,45.033-47.806,76.66-43.976l9.675-22.374c0,0,0,0-0.012,0l25.684-59.471l-46.084-19.91l-9.4,21.696l24.405,10.533
			l-19.705,45.633c-35.242,2.406-67.978,23.916-82.925,58.515c-21.305,49.324,1.495,106.799,50.819,128.098
			c49.335,21.312,106.804-1.495,128.098-50.819c14.946-34.599,8.156-73.168-14.252-100.492l20.003-46.3l24.405,10.532l9.365-21.695
			l-46.083-19.91L154.371,376.147z"/>
		<path d="M92.441,453.73c-30.542,1.88-43.416-1.331-57.516-24.661c-14.947,34.587,0.992,74.732,35.586,89.68
			c34.593,14.946,74.745-0.992,89.68-35.592C133.883,480.728,122.97,451.862,92.441,453.73z M57.287,469.729
			c-1.378,3.199-5.056,4.659-8.238,3.281c-3.193-1.366-4.653-5.056-3.275-8.256c1.372-3.177,5.068-4.647,8.25-3.258
			C57.205,462.862,58.659,466.552,57.287,469.729z M78.13,504.339c-0.829,1.928-3.065,2.803-4.975,1.974
			c-1.915-0.829-2.802-3.06-1.973-4.974c0.823-1.916,3.047-2.791,4.962-1.975C78.066,500.206,78.954,502.425,78.13,504.339z
			 M78.989,483.286c-0.671,1.541-2.464,2.241-4.005,1.576c-1.542-0.678-2.248-2.453-1.588-3.994
			c0.654-1.541,2.464-2.266,3.994-1.588C78.942,479.935,79.66,481.732,78.989,483.286z M119.059,489.206
			c1.851-4.273,6.802-6.225,11.069-4.379c4.274,1.833,6.23,6.784,4.402,11.059c-1.851,4.273-6.802,6.234-11.07,4.39
			C119.175,498.431,117.219,493.479,119.059,489.206z M100.2,478.136c0.671-1.541,2.476-2.266,4.005-1.6
			c1.547,0.666,2.248,2.464,1.582,4.006c-0.671,1.541-2.464,2.253-3.993,1.588C100.258,481.464,99.546,479.677,100.2,478.136z
			 M99.745,511.171c-0.729,1.67-2.662,2.439-4.326,1.716c-1.676-0.724-2.44-2.662-1.723-4.32c0.719-1.682,2.668-2.452,4.344-1.728
			C99.698,507.562,100.475,509.501,99.745,511.171z"/>
	</g>
</g>
<g>
</g>
<g>
</g>
<g>
</g>
<g>
</g>
<g>
</g>
<g>
</g>
<g>
</g>
<g>
</g>
<g>
</g>
<g>
</g>
<g>
</g>
<g>
</g>
<g>
</g>
<g>
</g>
<g>
</g>
</svg>
