<?xml version="1.0" encoding="iso-8859-1"?>
<!-- Generator: Adobe Illustrator 16.0.0, SVG Export Plug-In . SVG Version: 6.00 Build 0)  -->
<!DOCTYPE svg PUBLIC "-//W3C//DTD SVG 1.1//EN" "http://www.w3.org/Graphics/SVG/1.1/DTD/svg11.dtd">
<svg version="1.1" id="Capa_1" xmlns="http://www.w3.org/2000/svg" xmlns:xlink="http://www.w3.org/1999/xlink" x="0px" y="0px"
	 width="533.072px" height="533.072px" viewBox="0 0 533.072 533.072" style="enable-background:new 0 0 533.072 533.072;"
	 xml:space="preserve">
<g>
	<g>
		<path d="M373.114,417.27c39.246-17.376,90.999-61.095,83.607-139.775c-7.064-75.008-57.906-110.465-96.219-123.17
			c-1.623-5.862-3.889-11.625-7.427-16.961c-1.156-1.734-2.581-3.153-3.854-4.735l7.648-4.531l7.987,13.44l29.356-17.445L320.438,0
			l-29.356,17.446l7.217,12.15L88.351,154.406l9.826,16.535L75.64,184.335l36.935,62.128l22.543-13.399l11.8,19.833l101.795-60.517
			c1.46,3.567,3.24,7.042,5.465,10.381c18.059,27.313,54.842,34.821,82.154,16.751c6.937-4.589,12.576-10.416,16.862-16.955
			c21.193,8.81,51.25,29.893,55.921,79.41c6.282,67.015-49.277,89.926-63.535,94.666H127.077v47.83h198.207v60.779H278.95v47.829
			h147.972v-47.829h-53.808V417.27z M152.335,231.604l-42.674-71.779l21.918-13.026l41.167,72.678L152.335,231.604z
			 M186.111,211.513l-41.168-72.678l29.981-17.813l42.721,71.744L186.111,211.513z M318.22,192.129
			c-12.19,8.063-28.608,4.711-36.666-7.474c-1.962-2.978-3.234-6.206-3.877-9.493c-1.424-7.351,0.397-14.994,4.951-20.996h-0.023
			c1.764-2.33,3.842-4.472,6.423-6.171c3.352-2.213,7.029-3.491,10.73-4.028c1.811-0.263,3.62-0.321,5.407-0.216
			c0.116,0,0.222,0.023,0.327,0.035c1.717,0.123,3.409,0.409,5.067,0.864c0.07,0.023,0.175,0.046,0.257,0.07
			c1.705,0.491,3.352,1.139,4.916,1.95c0.023,0.012,0.047,0.023,0.07,0.035c1.623,0.835,3.164,1.851,4.577,3.024
			c1.985,1.641,3.83,3.479,5.325,5.728C333.762,167.654,330.411,184.072,318.22,192.129z M337.487,121.524
			c-19.36-13.487-45.692-14.719-66.571-0.923c-19.18,12.676-28.306,34.57-25.97,55.951l-13.942,8.285l-42.715-71.744L304.16,44.209
			l42.669,71.779L337.487,121.524z"/>
		<polygon points="126.855,336.487 126.855,370.573 311.202,370.573 311.202,336.487 299.244,336.487 299.244,358.616 
			138.813,358.616 138.813,336.487 		"/>
	</g>
</g>
<g>
</g>
<g>
</g>
<g>
</g>
<g>
</g>
<g>
</g>
<g>
</g>
<g>
</g>
<g>
</g>
<g>
</g>
<g>
</g>
<g>
</g>
<g>
</g>
<g>
</g>
<g>
</g>
<g>
</g>
</svg>
