<?xml version="1.0" encoding="iso-8859-1"?>
<!-- Generator: Adobe Illustrator 16.0.0, SVG Export Plug-In . SVG Version: 6.00 Build 0)  -->
<!DOCTYPE svg PUBLIC "-//W3C//DTD SVG 1.1//EN" "http://www.w3.org/Graphics/SVG/1.1/DTD/svg11.dtd">
<svg version="1.1" id="Capa_1" xmlns="http://www.w3.org/2000/svg" xmlns:xlink="http://www.w3.org/1999/xlink" x="0px" y="0px"
	 width="533.037px" height="533.037px" viewBox="0 0 533.037 533.037" style="enable-background:new 0 0 533.037 533.037;"
	 xml:space="preserve">
<g>
	<path d="M420.404,348.445c8.104-33.571,12.354-73.916,8.314-108.603c-5.582-47.864-39.118-80.426-54.497-85.517
		c-1.623-5.862-3.889-11.625-7.427-16.973c-1.156-1.734-2.58-3.153-3.854-4.723l7.648-4.531l7.987,13.429l29.356-17.446L334.158,0
		l-29.357,17.446l7.217,12.15L102.069,154.395l9.826,16.535l-22.537,13.405l36.935,62.116l22.542-13.399l11.8,19.833l101.795-60.528
		c1.46,3.573,3.241,7.053,5.465,10.393c18.059,27.301,54.841,34.81,82.154,16.739c6.937-4.577,12.577-10.404,16.862-16.955
		c8.559,3.55,25.607,36.976,24.954,69.175c-0.572,28.346-8.852,57.842-17.131,76.712h-83.526l-5.161,19.944H141.807l-2.505,27.885
		h139.53l-21.305,82.207H89.359v54.579H243.38h49.289h99.197h23.914h27.897V348.445H420.404z M166.054,231.592l-42.674-71.779
		l21.918-13.038l41.168,72.678L166.054,231.592z M199.83,211.513l-41.168-72.678l29.981-17.813l42.721,71.744L199.83,211.513z
		 M331.939,192.129c-12.191,8.063-28.609,4.711-36.666-7.485c-1.963-2.978-3.235-6.207-3.877-9.494
		c-1.424-7.351,0.397-14.994,4.952-21.007l-0.023,0.012c1.763-2.33,3.842-4.472,6.422-6.183c3.352-2.212,7.029-3.491,10.731-4.028
		c1.81-0.263,3.62-0.327,5.406-0.228c0.117,0.011,0.222,0.023,0.327,0.035c1.717,0.123,3.41,0.409,5.068,0.858
		c0.069,0.029,0.175,0.053,0.256,0.076c1.705,0.491,3.352,1.145,4.916,1.962c0.023,0,0.047,0.023,0.07,0.035
		c1.623,0.835,3.165,1.851,4.578,3.024c1.984,1.641,3.83,3.479,5.324,5.739C347.481,167.654,344.13,184.072,331.939,192.129z
		 M351.206,121.512c-19.36-13.487-45.692-14.708-66.571-0.911c-19.18,12.676-28.305,34.57-25.97,55.939l-13.942,8.285
		l-42.715-71.744l115.872-68.9l42.668,71.785L351.206,121.512z"/>
</g>
<g>
</g>
<g>
</g>
<g>
</g>
<g>
</g>
<g>
</g>
<g>
</g>
<g>
</g>
<g>
</g>
<g>
</g>
<g>
</g>
<g>
</g>
<g>
</g>
<g>
</g>
<g>
</g>
<g>
</g>
</svg>
