<?xml version="1.0" encoding="iso-8859-1"?>
<!-- Generator: Adobe Illustrator 16.0.0, SVG Export Plug-In . SVG Version: 6.00 Build 0)  -->
<!DOCTYPE svg PUBLIC "-//W3C//DTD SVG 1.1//EN" "http://www.w3.org/Graphics/SVG/1.1/DTD/svg11.dtd">
<svg version="1.1" id="Capa_1" xmlns="http://www.w3.org/2000/svg" xmlns:xlink="http://www.w3.org/1999/xlink" x="0px" y="0px"
	 width="519.643px" height="519.643px" viewBox="0 0 519.643 519.643" style="enable-background:new 0 0 519.643 519.643;"
	 xml:space="preserve">
<g>
	<path d="M334.398,467.832v-57.791h49.067v-20.925H246.458v20.925h49.078v57.791h-85.201
		c-34.477-44.361-105.333-156.883-84.741-232.825c19.717-72.736,101.48-59.938,124.309-54.894v95.723h50.749v-15.215h35.218v-20.184
		h35.195V46.539h-33.677V29.894h25.911V0H257.673v29.894h28.906v16.646h-36.666v71.721c-12.892-2.294-36.829-5.039-65.479-1.004
		c-59.57,8.402-100.96,44.671-116.537,102.117c-23.652,87.14,31.493,190.892,69.269,248.46H96.728v51.811h360.723v-51.811H334.398z
		 M355.51,179.36l-90.089,32.322v-25.544l90.089-32.334V179.36z M319.135,245.091h-18.496v-29.526l18.496-6.632V245.091z
		 M285.097,260.312h-19.676v-32.106l19.676-7.053v23.938v7.771V260.312z M334.678,224.907v-21.562l20.832-7.474v29.035H334.678z
		 M286.556,62.07v6.183h50.819V62.07h18.135v75.224l-90.089,32.334V62.07H286.556z"/>
</g>
<g>
</g>
<g>
</g>
<g>
</g>
<g>
</g>
<g>
</g>
<g>
</g>
<g>
</g>
<g>
</g>
<g>
</g>
<g>
</g>
<g>
</g>
<g>
</g>
<g>
</g>
<g>
</g>
<g>
</g>
</svg>
