<?xml version="1.0" encoding="iso-8859-1"?>
<!-- Generator: Adobe Illustrator 16.0.0, SVG Export Plug-In . SVG Version: 6.00 Build 0)  -->
<!DOCTYPE svg PUBLIC "-//W3C//DTD SVG 1.1//EN" "http://www.w3.org/Graphics/SVG/1.1/DTD/svg11.dtd">
<svg version="1.1" id="Capa_1" xmlns="http://www.w3.org/2000/svg" xmlns:xlink="http://www.w3.org/1999/xlink" x="0px" y="0px"
	 width="526.556px" height="526.555px" viewBox="0 0 526.556 526.555" style="enable-background:new 0 0 526.556 526.555;"
	 xml:space="preserve">
<g>
	<path d="M424.959,400.034c-3.748,0-7.345,0.479-10.906,1.098l-54.848-91.969c7.59-5.301,14.246-12.19,19.08-20.82
		c15.298-27.482,7.73-61.334-16.277-80.163l37.857-83.725c4.928,1.244,9.972,2.079,15.273,2.079
		c34.868,0,63.243-28.387,63.243-63.267S450.007,0,415.139,0c-34.891,0-63.267,28.375-63.267,63.255
		c0,21.054,10.439,39.615,26.309,51.105l-37.413,82.744c-27.641-8.069-58.176,3.556-72.807,29.8
		c-4.688,8.39-7.047,17.399-7.654,26.402h-96.494c-5.074-29.847-30.938-52.71-62.216-52.71c-34.879,0-63.255,28.375-63.255,63.255
		c0,34.873,28.375,63.249,63.255,63.249c30.291,0,55.624-21.416,61.795-49.885h99.903c4.77,14.573,14.661,27.511,29.105,35.558
		c14.211,7.904,30.115,9.527,44.806,6.153l54.228,90.941c-17.795,11.21-29.729,30.897-29.729,53.435
		c0,34.879,28.376,63.254,63.255,63.254c34.88,0,63.255-28.375,63.255-63.254C488.214,428.421,459.839,400.034,424.959,400.034z
		 M375.787,63.255c0-21.69,17.655-39.34,39.352-39.34c21.685,0,39.328,17.65,39.328,39.34c0,21.69-17.644,39.352-39.328,39.352
		C393.442,102.607,375.787,84.945,375.787,63.255z M101.597,303.184c-21.69,0-39.34-17.644-39.34-39.334s17.649-39.34,39.34-39.34
		c21.702,0,39.363,17.65,39.363,39.34S123.299,303.184,101.597,303.184z M424.959,502.641c-21.685,0-39.34-17.645-39.34-39.34
		c0-21.696,17.655-39.352,39.34-39.352s39.34,17.655,39.34,39.352C464.299,484.997,446.644,502.641,424.959,502.641z"/>
</g>
<g>
</g>
<g>
</g>
<g>
</g>
<g>
</g>
<g>
</g>
<g>
</g>
<g>
</g>
<g>
</g>
<g>
</g>
<g>
</g>
<g>
</g>
<g>
</g>
<g>
</g>
<g>
</g>
<g>
</g>
</svg>
