<?xml version="1.0" encoding="iso-8859-1"?>
<!-- Generator: Adobe Illustrator 16.0.0, SVG Export Plug-In . SVG Version: 6.00 Build 0)  -->
<!DOCTYPE svg PUBLIC "-//W3C//DTD SVG 1.1//EN" "http://www.w3.org/Graphics/SVG/1.1/DTD/svg11.dtd">
<svg version="1.1" id="Capa_1" xmlns="http://www.w3.org/2000/svg" xmlns:xlink="http://www.w3.org/1999/xlink" x="0px" y="0px"
	 width="48.361px" height="48.361px" viewBox="0 0 48.361 48.361" style="enable-background:new 0 0 48.361 48.361;"
	 xml:space="preserve">
<g>
	<path d="M46.289,26.874l-0.06-4.936c1.219-0.595,2.076-1.828,2.097-3.265c0.015-0.988-0.358-1.923-1.05-2.632
		c-0.688-0.708-1.613-1.105-2.647-1.118c-1.107,0-2.1,0.507-2.778,1.29l-4.045-2.325c0.151-0.607,0.166-1.243-0.003-1.864
		c-0.258-0.955-0.871-1.752-1.729-2.244c-0.561-0.32-1.195-0.49-1.841-0.49c-1.321,0-2.553,0.711-3.211,1.855
		c-0.325,0.567-0.467,1.186-0.475,1.796l-4.213,2.39c-0.614-0.443-1.353-0.694-2.161-0.704c-1.108,0-2.098,0.507-2.777,1.29
		l-4.044-2.325c0.153-0.607,0.166-1.243-0.002-1.865c-0.259-0.954-0.873-1.751-1.729-2.242c-0.561-0.321-1.196-0.493-1.84-0.493
		c-1.323,0-2.555,0.713-3.211,1.857c-0.325,0.566-0.468,1.184-0.475,1.796l-4.354,2.468c-0.601-0.396-1.31-0.627-2.047-0.627
		c-0.67,0-1.326,0.183-1.904,0.528c-1.747,1.053-2.313,3.331-1.264,5.077c0.463,0.771,1.193,1.33,2.029,1.604l0.076,4.643
		c-0.782,0.301-1.456,0.857-1.884,1.604c-0.493,0.857-0.622,1.855-0.364,2.812c0.258,0.953,0.872,1.75,1.729,2.242
		c0.561,0.32,1.196,0.49,1.841,0.49c0.807,0,1.576-0.269,2.205-0.73l4.226,2.426c-0.02,0.385,0.005,0.775,0.108,1.158
		c0.258,0.955,0.872,1.75,1.729,2.242c0.562,0.32,1.197,0.492,1.842,0.492c1.322,0,2.553-0.713,3.21-1.855
		c0.42-0.73,0.548-1.543,0.444-2.32l4.044-2.27c0.644,0.57,1.476,0.938,2.399,0.947h0.055c0.788,0,1.516-0.258,2.119-0.686
		l4.501,2.586c-0.021,0.387,0.005,0.774,0.107,1.157c0.258,0.955,0.872,1.752,1.729,2.242c0.562,0.321,1.197,0.494,1.843,0.494
		c1.321,0,2.552-0.714,3.21-1.857c0.42-0.729,0.547-1.543,0.443-2.319l4.043-2.271c0.665,0.595,1.502,0.938,2.4,0.949h0.056
		c2.011,0,3.668-1.64,3.693-3.65C48.384,28.758,47.537,27.488,46.289,26.874z M44.648,16.923L44.648,16.923
		c0.454,0.006,0.879,0.188,1.195,0.514c0.315,0.326,0.486,0.755,0.48,1.209c-0.014,0.925-0.773,1.677-1.697,1.677v0.94h-0.001
		l-0.021-0.94c-0.938-0.013-1.688-0.785-1.68-1.723C42.939,17.675,43.702,16.923,44.648,16.923z M32.757,12.141
		c0.303-0.526,0.867-0.853,1.478-0.853c0.296,0,0.586,0.077,0.845,0.226c0.396,0.228,0.678,0.593,0.795,1.031
		c0.119,0.438,0.062,0.896-0.166,1.29c-0.449,0.78-1.53,1.08-2.321,0.627C32.57,13.996,32.289,12.955,32.757,12.141z M24.198,16.625
		L24.198,16.625c0.454,0.006,0.88,0.188,1.196,0.514c0.316,0.325,0.487,0.755,0.48,1.209c-0.014,0.925-0.773,1.677-1.698,1.677v0.94
		h-0.001l-0.021-0.94c-0.938-0.013-1.69-0.786-1.68-1.724C22.49,17.377,23.251,16.625,24.198,16.625z M12.305,11.843
		c0.302-0.526,0.868-0.854,1.478-0.854c0.294,0,0.585,0.078,0.843,0.228c0.395,0.227,0.677,0.593,0.796,1.031
		c0.118,0.438,0.06,0.896-0.167,1.29c-0.45,0.78-1.531,1.081-2.322,0.627C12.12,13.697,11.839,12.656,12.305,11.843z M2.244,19.059
		c-0.483-0.803-0.223-1.85,0.58-2.333c0.265-0.158,0.565-0.242,0.873-0.242c0.604,0,1.149,0.309,1.46,0.824
		c0.233,0.389,0.303,0.846,0.192,1.287c-0.109,0.439-0.385,0.812-0.772,1.046C3.791,20.113,2.71,19.839,2.244,19.059z M3.113,31.258
		c-0.395-0.225-0.676-0.592-0.795-1.028c-0.117-0.438-0.059-0.896,0.168-1.293c0.303-0.521,0.867-0.853,1.477-0.853
		c0.294,0,0.586,0.078,0.844,0.228c0.813,0.467,1.094,1.51,0.627,2.319C4.983,31.413,3.9,31.713,3.113,31.258z M15.542,36.219
		c-0.449,0.781-1.527,1.08-2.321,0.625c-0.394-0.227-0.676-0.592-0.794-1.028c-0.119-0.438-0.06-0.896,0.167-1.291
		c0.302-0.523,0.868-0.854,1.478-0.854c0.295,0,0.588,0.078,0.844,0.226C15.726,34.363,16.009,35.406,15.542,36.219z M15.91,32.161
		c-0.562-0.32-1.196-0.49-1.841-0.49c-1.21,0-2.338,0.603-3.024,1.58l-3.662-2.104c0.668-1.681,0.032-3.644-1.581-4.566
		c-0.363-0.209-0.761-0.35-1.169-0.426l-0.071-4.377c0.366-0.088,0.721-0.225,1.046-0.421c0.848-0.51,1.444-1.317,1.685-2.276
		c0.204-0.818,0.108-1.656-0.234-2.412l3.593-2.037c0.312,0.507,0.735,0.953,1.286,1.27c0.562,0.322,1.198,0.492,1.843,0.492
		c0.979,0,1.905-0.392,2.59-1.061l4.172,2.397c-0.029,0.18-0.061,0.359-0.063,0.546c-0.021,1.646,1.049,3.042,2.53,3.541
		l0.074,4.558c-1.465,0.479-2.545,1.836-2.566,3.453c-0.005,0.387,0.067,0.756,0.174,1.106l-3.757,2.109
		C16.653,32.702,16.316,32.394,15.91,32.161z M24.219,31.575v1l-0.027-1c-0.937-0.015-1.688-0.785-1.677-1.726
		c0.012-0.924,0.774-1.676,1.723-1.676c0.938,0.014,1.689,0.785,1.678,1.723C25.902,30.822,25.142,31.575,24.219,31.575z
		 M35.992,36.515c-0.447,0.779-1.524,1.082-2.32,0.625c-0.396-0.225-0.677-0.592-0.794-1.029c-0.119-0.438-0.062-0.895,0.167-1.289
		c0.304-0.522,0.867-0.854,1.478-0.854c0.295,0,0.587,0.078,0.845,0.227C36.179,34.663,36.459,35.706,35.992,36.515z M36.36,32.461
		c-0.561-0.321-1.195-0.492-1.84-0.492c-1.21,0-2.337,0.603-3.023,1.578l-3.88-2.229c0.186-0.432,0.291-0.899,0.298-1.396
		c0.021-1.463-0.827-2.731-2.075-3.348l-0.06-4.935c1.219-0.595,2.077-1.828,2.098-3.266c0.007-0.511-0.094-1.004-0.28-1.461
		l3.505-1.987c0.312,0.507,0.735,0.953,1.287,1.27c0.561,0.322,1.197,0.492,1.841,0.492c0.979,0,1.905-0.392,2.59-1.061l4.172,2.396
		c-0.028,0.182-0.061,0.361-0.062,0.549c-0.022,1.92,1.437,3.507,3.308,3.708l0.052,4.23c-1.836,0.193-3.296,1.729-3.318,3.613
		c-0.006,0.383,0.062,0.752,0.172,1.105l-3.757,2.108C37.103,32.999,36.768,32.693,36.36,32.461z M44.671,31.872v1l-0.026-1
		c-0.454-0.006-0.879-0.188-1.195-0.515c-0.315-0.323-0.486-0.754-0.48-1.209c0.013-0.924,0.773-1.676,1.724-1.676
		c0.938,0.012,1.688,0.785,1.678,1.725C46.353,31.122,45.593,31.872,44.671,31.872z"/>
</g>
<g>
</g>
<g>
</g>
<g>
</g>
<g>
</g>
<g>
</g>
<g>
</g>
<g>
</g>
<g>
</g>
<g>
</g>
<g>
</g>
<g>
</g>
<g>
</g>
<g>
</g>
<g>
</g>
<g>
</g>
</svg>
