<?xml version="1.0" encoding="iso-8859-1"?>
<!-- Generator: Adobe Illustrator 16.0.0, SVG Export Plug-In . SVG Version: 6.00 Build 0)  -->
<!DOCTYPE svg PUBLIC "-//W3C//DTD SVG 1.1//EN" "http://www.w3.org/Graphics/SVG/1.1/DTD/svg11.dtd">
<svg version="1.1" id="Capa_1" xmlns="http://www.w3.org/2000/svg" xmlns:xlink="http://www.w3.org/1999/xlink" x="0px" y="0px"
	 width="549.069px" height="549.069px" viewBox="0 0 549.069 549.069" style="enable-background:new 0 0 549.069 549.069;"
	 xml:space="preserve">
<g>
	<path d="M487.834,123.62c-33.759,0-61.234,27.464-61.234,61.235c0,22.169,11.945,41.43,29.624,52.179l-67.072,122.651
		c-8.49-3.247-17.68-5.091-27.302-5.091c-16.441,0-31.668,5.219-44.14,14.023L168.021,214.27
		c9.651-12.833,15.438-28.72,15.438-46.025c0-8.729-1.519-17.072-4.204-24.896l74.6-39.533
		c11.239,13.732,28.101,22.688,47.181,22.688c33.771,0,61.235-27.471,61.235-61.235c0-33.77-27.465-61.223-61.224-61.223
		c-33.752,0-61.229,27.465-61.229,61.235c0,6.084,1.168,11.858,2.832,17.422l-74.611,39.539
		c-14.007-18.613-36.211-30.705-61.299-30.705c-42.376,0-76.73,34.354-76.73,76.73c0,42.376,34.354,76.73,76.73,76.73
		c16.441,0,31.656-5.226,44.14-14.024l149.665,154.342c-9.645,12.833-15.437,28.737-15.437,46.02c0,0.421,0.07,0.841,0.07,1.249
		l-166.994,29.111c-8.88-22.84-30.991-39.142-56.949-39.142C27.464,422.554,0,450.019,0,483.789
		c0,33.77,27.464,61.234,61.234,61.234c33.263,0,60.289-26.693,61.077-59.764l166.953-29.146
		c10.323,30.174,38.861,51.917,72.551,51.917c42.376,0,76.729-34.354,76.729-76.741c0-24.16-11.187-45.682-28.655-59.764
		l69.128-126.347c2.92,0.432,5.792,0.899,8.816,0.899c33.771,0,61.235-27.47,61.235-61.234
		C549.069,151.073,521.604,123.62,487.834,123.62z M301.047,27.961c20.587,0,37.32,16.739,37.32,37.32
		c0,20.575-16.733,37.32-37.32,37.32c-20.575,0-37.314-16.745-37.314-37.32C263.733,44.7,280.472,27.961,301.047,27.961z
		 M61.234,521.109c-20.581,0-37.32-16.746-37.32-37.32c0-20.576,16.739-37.32,37.32-37.32c20.575,0,37.32,16.744,37.32,37.32
		C98.555,504.363,81.81,521.109,61.234,521.109z M487.834,222.175c-20.575,0-37.319-16.745-37.319-37.32
		c0-20.581,16.744-37.32,37.319-37.32c20.587,0,37.32,16.739,37.32,37.32C525.154,205.43,508.421,222.175,487.834,222.175z"/>
</g>
<g>
</g>
<g>
</g>
<g>
</g>
<g>
</g>
<g>
</g>
<g>
</g>
<g>
</g>
<g>
</g>
<g>
</g>
<g>
</g>
<g>
</g>
<g>
</g>
<g>
</g>
<g>
</g>
<g>
</g>
</svg>
