<?xml version="1.0" encoding="iso-8859-1"?>
<!-- Generator: Adobe Illustrator 16.0.0, SVG Export Plug-In . SVG Version: 6.00 Build 0)  -->
<!DOCTYPE svg PUBLIC "-//W3C//DTD SVG 1.1//EN" "http://www.w3.org/Graphics/SVG/1.1/DTD/svg11.dtd">
<svg version="1.1" id="Capa_1" xmlns="http://www.w3.org/2000/svg" xmlns:xlink="http://www.w3.org/1999/xlink" x="0px" y="0px"
	 width="578.277px" height="578.277px" viewBox="0 0 578.277 578.277" style="enable-background:new 0 0 578.277 578.277;"
	 xml:space="preserve">
<g>
	<path d="M553.482,422.853l-0.712-59.017c14.562-7.111,24.825-21.859,25.071-39.036c0.163-11.817-4.298-22.992-12.554-31.47
		c-8.243-8.472-19.29-13.218-31.668-13.37c-13.254,0-25.105,6.06-33.233,15.425l-48.366-27.803
		c1.833-7.257,1.985-14.865-0.023-22.292c-2.172-8.034-6.551-15.052-12.472-20.61c0.234,0.046,0.409,0.14,0.643,0.175
		c-3.444-3.427-7.392-6.381-11.828-8.571l-0.701-59.022c14.562-7.117,24.825-21.859,25.059-39.042
		c0.176-11.812-4.285-22.992-12.541-31.47c-8.244-8.466-19.302-13.213-31.668-13.37c-13.254,0-25.105,6.066-33.233,15.425
		l-48.378-27.774c1.821-7.257,1.985-14.865-0.023-22.292c-3.083-11.415-10.428-20.949-20.674-26.828
		c-6.697-3.854-14.31-5.885-22-5.885c-15.811,0-30.53,8.5-38.395,22.192c-3.9,6.779-5.587,14.17-5.669,21.475l-50.375,28.568
		c-7.345-5.295-16.155-8.296-25.83-8.419c-13.248,0-27.955,7.678-33.204,15.426c-3.625,4.881-14.731,14.252-11.193,37.799
		c3.539,23.541,21.054,29.607,30.431,32.749l0.882,54.491c-0.251,0.082-0.461,0.216-0.712,0.286l1.956,0.362
		c-10.702,3.217-20.003,10.352-25.684,20.266c-3.882,6.767-5.582,14.158-5.663,21.474l-52.062,29.514
		c-7.176-4.747-15.653-7.502-24.481-7.502c-7.999,0-15.852,2.178-22.765,6.317C0.525,293.61-6.242,320.854,6.3,341.732
		c5.535,9.213,14.281,15.903,24.276,19.185l0.905,55.489c-9.348,3.621-17.411,10.276-22.525,19.186
		c-5.897,10.253-7.438,22.176-4.355,33.596c3.089,11.42,10.428,20.949,20.674,26.834c6.708,3.842,14.316,5.873,22.017,5.873
		c9.651,0,18.841-3.199,26.367-8.77l50.526,29.029c-0.233,4.602,0.064,9.248,1.296,13.826c3.083,11.42,10.428,20.949,20.674,26.834
		c6.708,3.842,14.311,5.885,22.023,5.885c15.811,0,30.518-8.512,38.383-22.197c5.009-8.723,6.539-18.438,5.307-27.734l48.361-27.16
		c7.683,6.843,17.632,11.222,28.685,11.35h0.653c9.412,0,18.129-3.07,25.328-8.174l53.819,30.922
		c-0.245,4.623,0.059,9.248,1.284,13.849c3.095,11.42,10.439,20.937,20.681,26.811c6.702,3.854,14.328,5.886,22.022,5.886
		c15.812,0,30.513-8.502,38.383-22.188c5.021-8.734,6.539-18.449,5.313-27.744l48.343-27.149c7.953,7.1,17.96,11.222,28.703,11.339
		h0.665c24.043,0,43.859-19.571,44.163-43.626C578.519,445.4,568.406,430.232,553.482,422.853z M533.854,303.886L533.854,303.886
		c5.43,0.07,10.51,2.242,14.305,6.142c3.783,3.9,5.826,9.038,5.757,14.456c-0.163,11.07-9.26,20.062-20.307,20.062v11.233h-0.012
		l-0.257-11.233c-11.198-0.163-20.189-9.411-20.073-20.61C513.431,312.877,522.551,303.886,533.854,303.886z M426.926,266.963
		c-5.383,9.335-18.309,12.909-27.768,7.497c-9.727-5.587-13.078-18.035-7.496-27.756c3.607-6.288,10.381-10.2,17.655-10.2
		c3.526,0,7.006,0.934,10.101,2.703c4.718,2.715,8.092,7.088,9.505,12.331C430.324,256.787,429.624,262.263,426.926,266.963z
		 M408.722,97.318L408.722,97.318c5.43,0.076,10.51,2.253,14.305,6.148c3.771,3.9,5.815,9.026,5.745,14.456
		c-0.152,11.064-9.248,20.056-20.295,20.056h-0.269c-11.198-0.158-20.189-9.4-20.073-20.604
		C388.287,106.315,397.395,97.318,408.722,97.318z M266.518,40.141c3.608-6.3,10.375-10.2,17.662-10.2
		c3.526,0,7.006,0.934,10.089,2.703c4.724,2.715,8.098,7.088,9.505,12.325c1.424,5.237,0.718,10.714-1.985,15.425
		c-5.378,9.342-18.304,12.915-27.763,7.497C264.305,62.31,260.931,49.862,266.518,40.141z M143.604,113.8
		c0.158-11.052,9.26-20.043,20.581-20.043h0.012c5.43,0.07,10.51,2.248,14.299,6.148c3.783,3.883,5.827,9.026,5.757,14.456
		c-0.158,11.059-9.26,20.05-20.307,20.05h-0.263C152.468,134.259,143.465,125.005,143.604,113.8z M183.797,212.735l-0.707-59.01
		c14.573-7.117,24.837-21.86,25.077-39.054c0.082-6.095-1.115-12.004-3.363-17.469l41.909-23.757
		c3.742,6.061,8.804,11.391,15.39,15.186c6.697,3.848,14.328,5.879,22.029,5.879c11.706,0,22.788-4.688,30.962-12.687l49.873,28.662
		c-0.339,2.166-0.712,4.32-0.747,6.568c-0.28,22.957,17.165,41.92,39.55,44.338l0.853,51.461c0.047,0.012,0.082,0.023,0.129,0.035
		c-14.024,1.471-26.729,9.534-33.829,21.895c-3.899,6.784-5.581,14.17-5.663,21.474l-50.375,28.568
		c-7.339-5.295-16.155-8.296-25.83-8.419c-13.248,0-25.082,6.066-33.204,15.425l-48.355-27.797
		c1.827-7.263,1.985-14.865-0.023-22.303c-2.621-9.634-8.384-17.767-16.237-23.664l1.017,0.192
		C189.63,216.145,186.856,214.241,183.797,212.735z M309.396,320.924c-0.158,11.058-9.254,20.049-20.307,20.049v11.245h-0.012
		l-0.251-11.245c-11.216-0.152-20.207-9.389-20.073-20.609c0.152-11.047,9.254-20.05,20.575-20.05h0.012
		c5.43,0.082,10.516,2.254,14.305,6.154C307.423,310.355,309.466,315.493,309.396,320.924z M147.137,243.142
		c3.608-6.288,10.375-10.212,17.656-10.212c3.521,0,7,0.934,10.083,2.715c4.724,2.715,8.092,7.088,9.517,12.325
		c1.413,5.237,0.719,10.714-1.996,15.426c-5.378,9.341-18.304,12.926-27.763,7.497C144.913,265.323,141.55,252.875,147.137,243.142z
		 M26.822,329.424c-5.78-9.598-2.657-22.128,6.93-27.896c3.17-1.892,6.773-2.896,10.439-2.896c7.222,0,13.755,3.69,17.458,9.855
		c2.802,4.647,3.625,10.113,2.312,15.39c-1.319,5.256-4.606,9.716-9.242,12.507C45.318,342.047,32.392,338.754,26.822,329.424z
		 M64.954,467.798c-5.372,9.33-18.321,12.927-27.745,7.497c-4.712-2.697-8.069-7.088-9.494-12.32
		c-1.407-5.23-0.707-10.719,2.008-15.448c3.614-6.271,10.369-10.194,17.65-10.194c3.515,0,7.006,0.934,10.095,2.709
		C67.167,445.623,70.523,458.094,64.954,467.798z M185.829,534.603c-5.371,9.342-18.257,12.915-27.75,7.485
		c-4.711-2.721-8.086-7.076-9.5-12.32c-1.419-5.23-0.712-10.707,1.997-15.425c3.614-6.294,10.381-10.206,17.661-10.206
		c3.527,0,7.036,0.923,10.095,2.686C188.042,512.439,191.411,524.887,185.829,534.603z M245.295,458.164
		c-0.064,4.647,0.8,9.038,2.078,13.266l-44.921,25.223c-3.328-4.111-7.357-7.766-12.208-10.58c-6.708-3.818-14.305-5.85-22.006-5.85
		c-14.468,0-27.955,7.182-36.169,18.881l-43.789-25.164c7.987-20.096,0.385-43.566-18.905-54.637
		c-4.338-2.499-9.096-4.146-13.978-5.068l-0.858-52.312c4.374-1.062,8.606-2.697,12.506-5.045
		c10.13-6.084,17.265-15.74,20.137-27.207c2.44-9.786,1.302-19.805-2.797-28.843l42.96-24.358
		c3.73,6.061,8.787,11.391,15.378,15.186c6.708,3.848,14.322,5.879,22.023,5.879c11.706,0,22.794-4.688,30.974-12.687l49.885,28.673
		c-0.351,2.16-0.718,4.296-0.753,6.527c-0.251,19.688,12.542,36.387,30.25,42.342l0.888,54.485
		C258.455,422.596,245.546,438.826,245.295,458.164z M289.58,479.066v11.957l-0.321-11.957c-11.205-0.141-20.196-9.389-20.05-20.599
		c0.14-11.046,9.254-20.038,20.587-20.038c11.216,0.152,20.207,9.389,20.067,20.599C309.706,470.074,300.621,479.066,289.58,479.066
		z M430.359,538.176c-5.359,9.318-18.239,12.938-27.756,7.461c-4.718-2.697-8.081-7.064-9.494-12.295
		c-1.425-5.244-0.724-10.721,1.997-15.414c3.62-6.294,10.381-10.218,17.655-10.218c3.527,0,7.019,0.935,10.09,2.698
		C432.578,515.989,435.941,528.461,430.359,538.176z M489.819,461.737c-0.059,4.577,0.759,9.003,2.056,13.253l-44.91,25.211
		c-3.328-4.109-7.346-7.753-12.215-10.556c-6.691-3.83-14.293-5.862-22-5.862c-14.468,0-27.943,7.193-36.152,18.871l-46.404-26.647
		c2.219-5.161,3.479-10.79,3.573-16.698c0.222-17.516-9.902-32.673-24.826-40.029l-0.707-59.016
		c14.579-7.111,24.832-21.859,25.077-39.049c0.082-6.096-1.121-12.004-3.363-17.469l41.909-23.763
		c3.748,6.06,8.805,11.396,15.391,15.192c6.702,3.842,14.327,5.874,22.022,5.874c11.712,0,22.794-4.683,30.968-12.688l49.873,28.662
		c-0.339,2.16-0.713,4.32-0.748,6.574c-0.279,22.957,17.166,41.92,39.551,44.326l0.619,50.573
		C507.557,420.844,490.1,439.224,489.819,461.737z M534.122,482.616v11.957l-0.327-11.957c-5.43-0.07-10.509-2.242-14.305-6.143
		c-3.771-3.876-5.814-9.015-5.744-14.444c0.14-11.059,9.248-20.05,20.598-20.05c11.211,0.163,20.201,9.4,20.05,20.622
		C554.242,473.648,545.146,482.616,534.122,482.616z"/>
</g>
<g>
</g>
<g>
</g>
<g>
</g>
<g>
</g>
<g>
</g>
<g>
</g>
<g>
</g>
<g>
</g>
<g>
</g>
<g>
</g>
<g>
</g>
<g>
</g>
<g>
</g>
<g>
</g>
<g>
</g>
</svg>
