<?xml version="1.0" encoding="iso-8859-1"?>
<!-- Generator: Adobe Illustrator 16.0.0, SVG Export Plug-In . SVG Version: 6.00 Build 0)  -->
<!DOCTYPE svg PUBLIC "-//W3C//DTD SVG 1.1//EN" "http://www.w3.org/Graphics/SVG/1.1/DTD/svg11.dtd">
<svg version="1.1" id="Capa_1" xmlns="http://www.w3.org/2000/svg" xmlns:xlink="http://www.w3.org/1999/xlink" x="0px" y="0px"
	 width="534.345px" height="534.344px" viewBox="0 0 534.345 534.344" style="enable-background:new 0 0 534.345 534.344;"
	 xml:space="preserve">
<g>
	<path d="M485.389,339.524V89.873c16.278-7.415,27.663-23.722,27.663-42.785C513.04,21.083,491.951,0,465.958,0
		c-21.836,0-40.041,14.947-45.354,35.131H266.934C261.626,14.947,243.427,0,221.579,0c-26.005,0-47.088,21.083-47.088,47.088
		c0,8.478,2.417,16.307,6.335,23.185l-85.85,68.516c-8.589-9.038-20.64-14.731-34.08-14.731c-25.993,0-47.076,21.083-47.076,47.088
		c0,21.848,14.947,40.047,35.131,45.354V441.92c-20.184,5.289-35.131,23.494-35.131,45.342c0,26.005,21.083,47.082,47.088,47.082
		c17.539,0,32.655-9.691,40.753-23.914h161.372c8.098,14.223,23.214,23.914,40.753,23.914c26.005,0,47.082-21.077,47.082-47.082
		c0-1.564-0.304-3.048-0.467-4.577l87.205-67.599c8.641,10.24,21.392,16.873,35.824,16.873c26.018,0,47.094-21.089,47.094-47.082
		C520.514,363.018,505.566,344.836,485.389,339.524z M72.866,441.909V216.488c16.336-4.292,29.105-17.066,33.396-33.396h152.17
		c4.303,16.331,17.06,29.105,33.396,33.396v225.421c-19.933,5.254-34.699,23.098-35.049,44.606H107.915
		C107.564,465.006,92.799,447.163,72.866,441.909z M197.665,87.433c7.029,4.186,15.15,6.731,23.914,6.731
		c21.848,0,40.047-14.946,45.354-35.13h153.671c0.63,2.429,1.342,4.805,2.347,7.064l-87.847,70.109
		c-8.338-7.473-19.244-12.162-31.318-12.162c-21.848,0-40.046,14.947-45.354,35.131H107.757L197.665,87.433z M341.503,459.331
		c-6.282-8.466-15.285-14.666-25.76-17.422V216.488c20.179-5.307,35.125-23.506,35.125-45.354c0-4.998-0.98-9.721-2.429-14.24
		l91.222-70.751c6.329,4.256,13.803,6.802,21.812,7.567v245.815c-20.178,5.312-35.125,23.494-35.125,45.354
		c0,2.756,0.351,5.418,0.818,8.033L341.503,459.331z"/>
</g>
<g>
</g>
<g>
</g>
<g>
</g>
<g>
</g>
<g>
</g>
<g>
</g>
<g>
</g>
<g>
</g>
<g>
</g>
<g>
</g>
<g>
</g>
<g>
</g>
<g>
</g>
<g>
</g>
<g>
</g>
</svg>
