<?xml version="1.0" encoding="iso-8859-1"?>
<!-- Generator: Adobe Illustrator 16.0.0, SVG Export Plug-In . SVG Version: 6.00 Build 0)  -->
<!DOCTYPE svg PUBLIC "-//W3C//DTD SVG 1.1//EN" "http://www.w3.org/Graphics/SVG/1.1/DTD/svg11.dtd">
<svg version="1.1" id="Capa_1" xmlns="http://www.w3.org/2000/svg" xmlns:xlink="http://www.w3.org/1999/xlink" x="0px" y="0px"
	 width="594.831px" height="594.831px" viewBox="0 0 594.831 594.831" style="enable-background:new 0 0 594.831 594.831;"
	 xml:space="preserve">
<g>
	<path d="M515.293,354.05c-19.291,0-36.76,7.94-49.324,20.68l-94.725-51.018c1.319-5.441,2.102-11.092,2.102-16.943
		c0-9.581-1.915-18.695-5.302-27.062l106.005-52.413c12.472,11.969,29.38,19.384,47.993,19.384
		c38.254,0,69.374-31.125,69.374-69.374c0-38.254-31.12-69.391-69.374-69.391s-69.385,31.137-69.385,69.391
		c0,10.906,2.604,21.176,7.111,30.372l-104.382,51.595c-10.696-12.185-25.409-20.674-42.108-23.488v-97.626
		c34.26-4.209,60.896-33.426,60.896-68.808C374.151,31.137,343.032,0,304.79,0c-38.254,0-69.379,31.137-69.379,69.385
		c0,32.947,23.103,60.546,53.942,67.587v98.853c-15.963,2.674-30.121,10.556-40.677,21.889L135.88,196.975
		c4.006-8.752,6.288-18.461,6.288-28.696c0-38.254-31.125-69.391-69.379-69.391c-38.249,0-69.374,31.125-69.374,69.379
		c0,38.237,31.125,69.362,69.374,69.362c19.36,0,36.864-7.987,49.47-20.82l113.151,60.949c-3.918,8.886-6.143,18.689-6.143,29.035
		c0,4.846,0.502,9.587,1.407,14.176l-103.81,51.321c-12.728-15.835-32.217-26.029-54.076-26.029
		c-38.249,0-69.374,31.143-69.374,69.386c0,38.255,31.125,69.374,69.374,69.374c38.254,0,69.379-31.119,69.379-69.374
		c0-7.835-1.36-15.332-3.766-22.386l100.931-49.896c10.609,17.913,28.708,30.804,50.019,34.366v79.451
		c-32.573,5.686-57.422,34.107-57.422,68.264c0,38.254,31.125,69.385,69.379,69.385c38.242,0,69.374-31.131,69.374-69.385
		c0-34.156-24.849-62.566-57.417-68.264v-79.451c20.33-3.41,37.752-15.274,48.518-31.926l90.521,48.752
		c-4.052,8.793-6.388,18.566-6.388,28.877c0,38.255,31.119,69.374,69.374,69.374c38.254,0,69.385-31.119,69.385-69.374
		C584.678,385.181,553.547,354.05,515.293,354.05z M522.03,131.852c25.07,0,45.459,20.4,45.459,45.477
		c0,25.071-20.4,45.459-45.459,45.459c-25.07,0-45.459-20.388-45.459-45.459C476.571,152.252,496.96,131.852,522.03,131.852z
		 M72.789,213.714c-25.06,0-45.459-20.388-45.459-45.447c0-25.077,20.399-45.477,45.459-45.477c25.064,0,45.465,20.4,45.465,45.477
		C118.254,193.326,97.854,213.714,72.789,213.714z M72.789,461.105c-25.06,0-45.459-20.388-45.459-45.459
		c0-25.06,20.399-45.471,45.459-45.471c25.064,0,45.465,20.399,45.465,45.471S97.854,461.105,72.789,461.105z M259.313,69.385
		c0-25.071,20.4-45.471,45.477-45.471c25.059,0,45.459,20.4,45.459,45.471c0,25.077-20.4,45.453-45.459,45.453
		C279.713,114.838,259.313,94.45,259.313,69.385z M346.757,525.446c0,25.07-20.399,45.459-45.459,45.459
		c-25.064,0-45.465-20.389-45.465-45.459c0-25.082,20.4-45.471,45.465-45.471C326.369,479.976,346.757,500.388,346.757,525.446z
		 M515.293,468.894c-25.071,0-45.459-20.388-45.459-45.459c0-25.082,20.399-45.471,45.459-45.471
		c25.059,0,45.471,20.389,45.471,45.471C560.764,448.506,540.352,468.894,515.293,468.894z"/>
</g>
<g>
</g>
<g>
</g>
<g>
</g>
<g>
</g>
<g>
</g>
<g>
</g>
<g>
</g>
<g>
</g>
<g>
</g>
<g>
</g>
<g>
</g>
<g>
</g>
<g>
</g>
<g>
</g>
<g>
</g>
</svg>
