<?xml version="1.0" encoding="iso-8859-1"?>
<!-- Generator: Adobe Illustrator 16.0.0, SVG Export Plug-In . SVG Version: 6.00 Build 0)  -->
<!DOCTYPE svg PUBLIC "-//W3C//DTD SVG 1.1//EN" "http://www.w3.org/Graphics/SVG/1.1/DTD/svg11.dtd">
<svg version="1.1" id="Capa_1" xmlns="http://www.w3.org/2000/svg" xmlns:xlink="http://www.w3.org/1999/xlink" x="0px" y="0px"
	 width="570.415px" height="570.415px" viewBox="0 0 570.415 570.415" style="enable-background:new 0 0 570.415 570.415;"
	 xml:space="preserve">
<g>
	<g>
		<path d="M144.02,0.911c72.047,0,130.451,58.403,130.451,130.451S216.067,261.818,144.02,261.818
			c-72.048,0-130.457-58.409-130.457-130.457S71.972,0.911,144.02,0.911z"/>
		<path d="M440.933,297.696c-0.876-0.023-1.729-0.14-2.592-0.14c-72.049,0-130.457,58.41-130.457,130.457
			c0,72.048,58.408,130.445,130.457,130.445c0.863,0,1.716-0.129,2.592-0.129c70.845-1.4,127.864-59.145,127.864-130.316
			C568.797,356.829,511.778,299.097,440.933,297.696z M417.018,532.382c-48.576-9.902-85.22-52.944-85.22-104.37
			c0-51.449,36.644-94.491,85.22-104.393V532.382z"/>
		<path d="M435.749,260.896c0.876,0,1.729-0.117,2.593-0.128c70.856-1.401,127.863-59.145,127.863-130.311
			c0-71.184-57.019-128.927-127.863-130.328C437.465,0.117,436.625,0,435.749,0c-72.036,0-130.434,58.397-130.434,130.457
			C305.292,202.51,363.701,260.896,435.749,260.896z M462.255,27.394c45.845,11.911,80.023,53.914,80.023,103.062
			c0,49.143-34.179,91.14-80.023,103.044V27.394z"/>
		<path d="M144.02,285.599c-78.517,0-142.402,63.897-142.402,142.414c0,78.518,63.885,142.402,142.402,142.402
			c78.522,0,142.408-63.885,142.408-142.402C286.427,349.496,222.554,285.599,144.02,285.599z M144.02,546.5
			c-65.339,0-118.488-53.154-118.488-118.488c0-65.345,53.148-118.499,118.488-118.499c65.345,0,118.494,53.154,118.494,118.499
			C262.513,493.346,209.365,546.5,144.02,546.5z"/>
	</g>
</g>
<g>
</g>
<g>
</g>
<g>
</g>
<g>
</g>
<g>
</g>
<g>
</g>
<g>
</g>
<g>
</g>
<g>
</g>
<g>
</g>
<g>
</g>
<g>
</g>
<g>
</g>
<g>
</g>
<g>
</g>
</svg>
