<?xml version="1.0" encoding="iso-8859-1"?>
<!-- Generator: Adobe Illustrator 16.0.0, SVG Export Plug-In . SVG Version: 6.00 Build 0)  -->
<!DOCTYPE svg PUBLIC "-//W3C//DTD SVG 1.1//EN" "http://www.w3.org/Graphics/SVG/1.1/DTD/svg11.dtd">
<svg version="1.1" id="Capa_1" xmlns="http://www.w3.org/2000/svg" xmlns:xlink="http://www.w3.org/1999/xlink" x="0px" y="0px"
	 width="528.855px" height="528.855px" viewBox="0 0 528.855 528.855" style="enable-background:new 0 0 528.855 528.855;"
	 xml:space="preserve">
<g>
	<path d="M528.855,240.56c0-33.963-18.403-63.267-45.155-77.524c-4.355-43.555-39.036-77.506-81.202-77.506
		c-18.532,0-35.557,6.638-49.266,17.685c-13.546-27.99-40.94-47.181-72.62-47.181c-24.487,0-46.393,11.514-61.363,29.643
		c-14.912-20.855-38.429-34.366-64.978-34.366c-39.316,0-72.111,29.52-79.895,68.836C32.69,124.057,0,161.208,0,206.503
		c0,28.901,13.347,54.421,33.805,70.197c-9.674,14.246-15.437,31.691-15.437,50.609c0,47.922,36.566,86.76,81.669,86.76
		c2.902,0,5.774-0.175,8.594-0.49c13.37,28.539,41.027,48.191,73.069,48.191c17.58,0,33.817-5.955,47.141-15.986
		c14.981,19.385,37.699,31.762,63.156,31.762c34.517,0,63.944-22.758,75.924-54.905c13.779,11.304,31.015,18.1,49.768,18.1
		c45.108,0,81.67-38.861,81.67-86.761c0-14.363-3.34-27.861-9.144-39.796C513.372,298.875,528.855,271.679,528.855,240.56z
		 M109.361,233.227l5.226-30.454l-22.122-21.573l30.577-4.42l13.668-27.721l13.68,27.721l30.571,4.42l-22.116,21.573l5.225,30.454
		l-27.359-14.369L109.361,233.227z M212.243,307.388l-21.451,22.21l-4.595-30.571l-27.763-13.545l27.646-13.779l4.292-30.618
		l21.678,22.035l30.419-5.377l-14.24,27.435l14.503,27.278L212.243,307.388z M301.817,377.801c-19.979,0-38.838-4.659-55.734-12.751
		c49.698-8.549,87.766-55.607,87.766-112.556c0-61.55-44.42-111.575-99.985-113.887c19.763-12.232,42.978-19.431,67.942-19.431
		c71.418,0,129.336,57.901,129.336,129.312C431.142,319.905,373.235,377.801,301.817,377.801z"/>
</g>
<g>
</g>
<g>
</g>
<g>
</g>
<g>
</g>
<g>
</g>
<g>
</g>
<g>
</g>
<g>
</g>
<g>
</g>
<g>
</g>
<g>
</g>
<g>
</g>
<g>
</g>
<g>
</g>
<g>
</g>
</svg>
