<?xml version="1.0" encoding="iso-8859-1"?>
<!-- Generator: Adobe Illustrator 16.0.0, SVG Export Plug-In . SVG Version: 6.00 Build 0)  -->
<!DOCTYPE svg PUBLIC "-//W3C//DTD SVG 1.1//EN" "http://www.w3.org/Graphics/SVG/1.1/DTD/svg11.dtd">
<svg version="1.1" id="Capa_1" xmlns="http://www.w3.org/2000/svg" xmlns:xlink="http://www.w3.org/1999/xlink" x="0px" y="0px"
	 width="472.933px" height="472.933px" viewBox="0 0 472.933 472.933" style="enable-background:new 0 0 472.933 472.933;"
	 xml:space="preserve">
<g>
	<path d="M436.808,47.571c-1.062-3.298-2.511-6.434-4.496-9.301c-8.267-11.969-23.342-18.047-44.805-18.047
		c-47.188,0-119.947,29.561-192.421,77.425l-17.335-26.723c11.888-14.182,13.884-34.891,3.275-51.216
		C168.019-0.317,141.231-6.033,121.17,6.976c-20.056,12.997-25.76,39.795-12.751,59.845c10.609,16.348,30.337,22.957,48.145,17.866
		l17.621,27.155C80.154,178.851,2.659,270.324,29.86,314.125c-0.181-0.176-0.309-0.28-0.309-0.28s52.681,120.251,240.846,9.458
		l41.512,107.138H128.118v42.493H388.85l-48.086-197.846C476.358,167.109,451.311,77.774,436.808,47.571z M181.896,123.717
		l63.08,97.2l21.17-13.738l-63.371-97.656c69.443-45.798,140.825-75.13,184.731-75.13c11.362,0,26.344,2.055,33.128,11.922
		c4.823,6.971,5.126,17.218,1.343,29.812c-6.492,15.951-17.784,36.526-37.297,61.316c-25.794,30.729-63.593,65.251-112.252,98.864
		c-73.203,50.516-150.529,83.176-197.033,83.176c-11.362,0-26.332-2.078-33.134-11.91C23,279.642,74.666,200.027,181.896,123.717z"
		/>
</g>
<g>
</g>
<g>
</g>
<g>
</g>
<g>
</g>
<g>
</g>
<g>
</g>
<g>
</g>
<g>
</g>
<g>
</g>
<g>
</g>
<g>
</g>
<g>
</g>
<g>
</g>
<g>
</g>
<g>
</g>
</svg>
