<?xml version="1.0" encoding="iso-8859-1"?>
<!-- Generator: Adobe Illustrator 16.0.0, SVG Export Plug-In . SVG Version: 6.00 Build 0)  -->
<!DOCTYPE svg PUBLIC "-//W3C//DTD SVG 1.1//EN" "http://www.w3.org/Graphics/SVG/1.1/DTD/svg11.dtd">
<svg version="1.1" id="Capa_1" xmlns="http://www.w3.org/2000/svg" xmlns:xlink="http://www.w3.org/1999/xlink" x="0px" y="0px"
	 width="467.902px" height="467.902px" viewBox="0 0 467.902 467.902" style="enable-background:new 0 0 467.902 467.902;"
	 xml:space="preserve">
<g>
	<path d="M424.813,103.623l32.906-34.4L385.356,0L352.45,34.401l-16.196-15.496L44.729,323.666l-2.347,9.832l-32.2,134.404
		l132.845-38.114l9.709-2.791l291.519-304.755L424.813,103.623z M384.153,97.837L119.679,374.345l-20.89-19.98L363.274,77.852
		L384.153,97.837z M337.001,52.71l17.633,16.879L90.153,346.085l-17.638-16.861L337.001,52.71z M65.38,427.195l-16.973-16.23
		l13.972-58.316l60.633,58.001L65.38,427.195z M145.958,399.474l-17.649-16.873l264.498-276.503l17.644,16.874L145.958,399.474z"/>
</g>
<g>
</g>
<g>
</g>
<g>
</g>
<g>
</g>
<g>
</g>
<g>
</g>
<g>
</g>
<g>
</g>
<g>
</g>
<g>
</g>
<g>
</g>
<g>
</g>
<g>
</g>
<g>
</g>
<g>
</g>
</svg>
