<?xml version="1.0" encoding="iso-8859-1"?>
<!-- Generator: Adobe Illustrator 16.0.0, SVG Export Plug-In . SVG Version: 6.00 Build 0)  -->
<!DOCTYPE svg PUBLIC "-//W3C//DTD SVG 1.1//EN" "http://www.w3.org/Graphics/SVG/1.1/DTD/svg11.dtd">
<svg version="1.1" id="Capa_1" xmlns="http://www.w3.org/2000/svg" xmlns:xlink="http://www.w3.org/1999/xlink" x="0px" y="0px"
	 width="557.909px" height="557.909px" viewBox="0 0 557.909 557.909" style="enable-background:new 0 0 557.909 557.909;"
	 xml:space="preserve">
<g>
	<g>
		<g>
			<path d="M305.935,139.15c-31.954,33-22.677,71.277-22.677,71.277s42.061,5.044,73.204-27.144
				c31.143-32.194,21.427-77.197,21.427-77.197S337.895,106.121,305.935,139.15z"/>
			<path d="M315.522,70.407C315.522,25.59,277.245,0,277.245,0s-28.72,27.861-28.72,73.799c0,45.943,33.285,66.974,33.285,66.974
				S315.522,115.183,315.522,70.407z"/>
			<path d="M305.935,230.121c-31.954,33.011-22.677,71.277-22.677,71.277s42.061,5.056,73.204-27.132
				c31.143-32.188,21.427-77.209,21.427-77.209S337.895,197.104,305.935,230.121z"/>
			<path d="M305.935,320.513c-31.954,33.022-22.677,71.276-22.677,71.276s42.061,5.068,73.204-27.125
				c31.143-32.194,21.427-77.209,21.427-77.209S337.895,287.502,305.935,320.513z"/>
			<path d="M305.935,411.384c-31.954,33.011-22.677,71.265-22.677,71.265s42.061,5.068,73.204-27.125
				c31.143-32.183,21.427-77.209,21.427-77.209S337.895,378.362,305.935,411.384z"/>
			<path d="M180.021,105.812c0,0-9.722,45.003,21.427,77.197c31.161,32.188,73.204,27.144,73.204,27.144s9.289-38.29-22.671-71.295
				C220.015,105.858,180.021,105.812,180.021,105.812z"/>
			<path d="M180.021,196.794c0,0-9.722,44.998,21.427,77.197c31.161,32.182,73.204,27.138,73.204,27.138s9.289-38.283-22.671-71.294
				C220.027,196.817,180.021,196.794,180.021,196.794z"/>
			<path d="M180.021,287.163c0,0-9.722,45.027,21.427,77.208c31.161,32.183,73.204,27.139,73.204,27.139s9.289-38.277-22.671-71.277
				C220.027,287.21,180.021,287.163,180.021,287.163z"/>
			<path d="M180.021,378.045c0,0-9.722,45.004,21.427,77.209c31.161,32.194,73.204,27.127,73.204,27.127s9.289-38.254-22.671-71.277
				C220.027,378.081,180.021,378.045,180.021,378.045z"/>
			<path d="M274.097,502.723v55.068c1.629,0.023,3.241,0.117,4.87,0.117c3.672,0,7.316-0.164,10.965-0.28v-54.905H274.097z"/>
		</g>
	</g>
</g>
<g>
</g>
<g>
</g>
<g>
</g>
<g>
</g>
<g>
</g>
<g>
</g>
<g>
</g>
<g>
</g>
<g>
</g>
<g>
</g>
<g>
</g>
<g>
</g>
<g>
</g>
<g>
</g>
<g>
</g>
</svg>
