<?xml version="1.0" encoding="iso-8859-1"?>
<!-- Generator: Adobe Illustrator 16.0.0, SVG Export Plug-In . SVG Version: 6.00 Build 0)  -->
<!DOCTYPE svg PUBLIC "-//W3C//DTD SVG 1.1//EN" "http://www.w3.org/Graphics/SVG/1.1/DTD/svg11.dtd">
<svg version="1.1" id="Capa_1" xmlns="http://www.w3.org/2000/svg" xmlns:xlink="http://www.w3.org/1999/xlink" x="0px" y="0px"
	 width="540.265px" height="540.265px" viewBox="0 0 540.265 540.265" style="enable-background:new 0 0 540.265 540.265;"
	 xml:space="preserve">
<g>
	<g>
		<path d="M142.228,253.65l6.942,9.732c0.076-0.046,4.653-3.182,12.868-5.546c-0.012,0.228-0.094,0.444-0.094,0.671
			c0,6.732,7.602,12.197,16.979,12.197c9.371,0,16.979-5.453,16.979-12.197c0-0.876-0.134-1.722-0.368-2.534
			c11.321,1.203,17.405,3.45,17.469,3.479l4.35-11.146c-0.525-0.205-13.189-5.051-36.375-5.051
			C156.993,243.257,142.823,253.218,142.228,253.65z"/>
		<path d="M349.864,261.316c-0.012,0.228-0.094,0.443-0.094,0.671c0,6.731,7.602,12.197,16.979,12.197s16.979-5.465,16.979-12.197
			c0-0.876-0.129-1.711-0.385-2.522c11.338,1.203,17.422,3.439,17.492,3.468l4.344-11.146c-0.525-0.204-13.195-5.05-36.375-5.05
			c-23.984,0-38.148,9.96-38.756,10.393l6.948,9.733C337.077,266.816,341.655,263.681,349.864,261.316z"/>
		<path d="M511.767,256.26c0-28.398-13.872-53.166-34.518-66.699C463.657,82.779,375.052,0,267.861,0
			C162.505,0,75.154,79.982,59.291,184.119c-18.584,13.978-30.792,37.501-30.792,64.166c0,34.372,20.306,63.506,48.39,73.724
			c5.073,13.055,11.087,25.748,17.808,37.974l-37.262,6.516l38.015,173.265l109.729-19.209c0.765,0.701,1.553,1.344,2.394,1.811
			c45.115,25.689,90.947,23.202,120.444-4.075c0.606-0.187,1.167-0.561,1.751-0.923l111.587,18.684l36.946-173.521l-37.741-6.318
			c4.298-7.648,8.373-15.425,12.005-23.389C486.124,326.877,511.767,294.905,511.767,256.26z M107.056,521.079L76.089,379.903
			l108.287-18.963l30.979,141.176L107.056,521.079z M114.582,326.866l79.959,0.945c-0.625,4.602-1.22,9.623-1.798,14.994
			l-67.902,11.898C120.952,345.596,117.46,336.313,114.582,326.866z M265.304,244.063c-24.312,0.432-57.089,27.593-66.367,59.892
			l-85.173-1.005l-0.946-82.072l20.715-12.594h265.945l24.779,23.997l-3.013,63.477l-11.502,10.684l-76.321-0.898
			c-0.537-1.997-1.074-3.807-1.611-5.174C320.368,271.154,289.715,243.631,265.304,244.063z M111.902,193.443
			c21.142-72.649,79.562-120.957,154.418-120.957c77.495,0,136.056,48.979,155.802,124.402l-12.927-12.529H126.849L111.902,193.443z
			 M416.003,330.416c-2.37,6.866-5.103,13.639-8.021,20.317l-68.405-11.455l-0.187,0.923c-0.455-3.736-0.922-7.321-1.413-10.696
			L416.003,330.416z M459.08,376.622L429.257,516.7l-107.406-17.971l29.823-140.09L459.08,376.622z M441.728,178.642
			c-25.246-79.206-90.322-130.06-175.407-130.06c-80.712,0-144.89,48.262-172.401,122.347c-3.001,0.239-5.979,0.613-8.875,1.244
			c20.067-84.934,94.31-148.258,182.816-148.258c91.146,0,167.327,67.032,184.645,155.767
			C448.991,179.062,445.406,178.654,441.728,178.642z"/>
	</g>
</g>
<g>
</g>
<g>
</g>
<g>
</g>
<g>
</g>
<g>
</g>
<g>
</g>
<g>
</g>
<g>
</g>
<g>
</g>
<g>
</g>
<g>
</g>
<g>
</g>
<g>
</g>
<g>
</g>
<g>
</g>
</svg>
