<?xml version="1.0" encoding="iso-8859-1"?>
<!-- Generator: Adobe Illustrator 16.0.0, SVG Export Plug-In . SVG Version: 6.00 Build 0)  -->
<!DOCTYPE svg PUBLIC "-//W3C//DTD SVG 1.1//EN" "http://www.w3.org/Graphics/SVG/1.1/DTD/svg11.dtd">
<svg version="1.1" id="Capa_1" xmlns="http://www.w3.org/2000/svg" xmlns:xlink="http://www.w3.org/1999/xlink" x="0px" y="0px"
	 width="516.724px" height="516.724px" viewBox="0 0 516.724 516.724" style="enable-background:new 0 0 516.724 516.724;"
	 xml:space="preserve">
<g>
	<g>
		<path d="M219.186,447.467h79.089l-0.023,0.047l98.858,40.52L345.17,292.838l0.151-167.309h-0.455L260.855,0l-84.022,125.529
			h-0.444v167.823L119.615,488.01l99.583-40.508L219.186,447.467z M196.415,329.376v-190.92h127.98v195.183L301.24,434.54h-80.847
			l-15.034-58.771L196.415,329.376z"/>
		<path d="M260.867,264.93c24.867,0,45.091-20.225,45.091-45.097c0-24.866-20.225-45.085-45.091-45.085
			c-24.849,0-45.091,20.219-45.091,45.085C215.775,244.706,236.006,264.93,260.867,264.93z M260.867,187.657
			c17.744,0,32.165,14.445,32.165,32.176c0,17.738-14.421,32.159-32.165,32.159s-32.153-14.421-32.153-32.159
			C228.714,202.102,243.112,187.657,260.867,187.657z"/>
		<path d="M260.867,283.216c-18.292,0-33.168,14.9-33.168,33.174c0,18.299,14.876,33.176,33.168,33.176s33.18-14.877,33.18-33.176
			C294.047,298.116,279.159,283.216,260.867,283.216z M260.867,336.65c-11.169,0-20.254-9.107-20.254-20.26
			c0-11.174,9.096-20.236,20.254-20.236c11.181,0,20.266,9.062,20.266,20.236C281.132,327.566,272.036,336.65,260.867,336.65z"/>
		<polygon points="222.233,458.606 217.784,499.359 233.128,490.905 244.834,516.724 258.368,490.088 270.296,515.719 
			284.215,492.097 299.501,502.186 298.251,458.606 		"/>
	</g>
</g>
<g>
</g>
<g>
</g>
<g>
</g>
<g>
</g>
<g>
</g>
<g>
</g>
<g>
</g>
<g>
</g>
<g>
</g>
<g>
</g>
<g>
</g>
<g>
</g>
<g>
</g>
<g>
</g>
<g>
</g>
</svg>
