<?xml version="1.0" encoding="iso-8859-1"?>
<!-- Generator: Adobe Illustrator 16.0.0, SVG Export Plug-In . SVG Version: 6.00 Build 0)  -->
<!DOCTYPE svg PUBLIC "-//W3C//DTD SVG 1.1//EN" "http://www.w3.org/Graphics/SVG/1.1/DTD/svg11.dtd">
<svg version="1.1" id="Capa_1" xmlns="http://www.w3.org/2000/svg" xmlns:xlink="http://www.w3.org/1999/xlink" x="0px" y="0px"
	 width="516.63px" height="516.63px" viewBox="0 0 516.63 516.63" style="enable-background:new 0 0 516.63 516.63;"
	 xml:space="preserve">
<g>
	<g>
		<path d="M425.531,516.549l-83.514-241.028v-146.18h0.209l-0.209-0.321v-0.502h-0.328L258.852,0l-83.38,127.537h0.187v144.306
			L91.099,516.63h101.567l-1.08-49.814l135.88,1.67l-0.606,48.145L425.531,516.549z M323.298,140.353v269.981l-129.546-1.963
			v-268.83L323.298,140.353z"/>
		<path d="M258.852,266.109c24.358,0,44.187-19.822,44.187-44.192s-19.828-44.198-44.187-44.198
			c-24.382,0-44.209,19.828-44.209,44.198S234.47,266.109,258.852,266.109z M258.852,189.666c17.772,0,32.229,14.474,32.229,32.24
			s-14.457,32.235-32.229,32.235c-17.784,0-32.252-14.468-32.252-32.235S241.068,189.666,258.852,189.666z"/>
		<path d="M258.309,281.406c-16.932,0-30.693,13.768-30.693,30.699s13.762,30.699,30.693,30.699
			c16.938,0,30.705-13.768,30.705-30.699S275.247,281.406,258.309,281.406z M258.309,330.859c-10.328,0-18.736-8.408-18.736-18.73
			c0-10.346,8.408-18.754,18.736-18.754c10.352,0,18.748,8.408,18.748,18.754C277.068,322.451,268.661,330.859,258.309,330.859z"/>
	</g>
</g>
<g>
</g>
<g>
</g>
<g>
</g>
<g>
</g>
<g>
</g>
<g>
</g>
<g>
</g>
<g>
</g>
<g>
</g>
<g>
</g>
<g>
</g>
<g>
</g>
<g>
</g>
<g>
</g>
<g>
</g>
</svg>
