<?xml version="1.0" encoding="iso-8859-1"?>
<!-- Generator: Adobe Illustrator 16.0.0, SVG Export Plug-In . SVG Version: 6.00 Build 0)  -->
<!DOCTYPE svg PUBLIC "-//W3C//DTD SVG 1.1//EN" "http://www.w3.org/Graphics/SVG/1.1/DTD/svg11.dtd">
<svg version="1.1" id="Capa_1" xmlns="http://www.w3.org/2000/svg" xmlns:xlink="http://www.w3.org/1999/xlink" x="0px" y="0px"
	 width="520.146px" height="520.146px" viewBox="0 0 520.146 520.146" style="enable-background:new 0 0 520.146 520.146;"
	 xml:space="preserve">
<g>
	<g>
		<polygon points="304.913,119.159 304.913,485.896 520.146,485.896 		"/>
		<polygon points="215.232,485.896 215.232,119.159 0,485.896 		"/>
		<path d="M283.24,68.603h-0.129l-22.992-34.354l-22.98,34.354h-0.123v45.915l-15.531,53.271l27.249-11.082v-0.011h21.661
			l-0.023,0.011l27.056,11.082l-14.211-53.411L283.24,68.603z M279.713,115.989l-8.524,37.162h-22.14l-4.104-16.067l-4.385-22.753
			V72.141h39.153V115.989z"/>
		<path d="M260.131,106.746c6.808,0,12.343-5.535,12.343-12.325c0-6.808-5.523-12.342-12.343-12.342
			c-6.802,0-12.337,5.535-12.337,12.342C247.794,101.211,253.329,106.746,260.131,106.746z M260.131,85.605
			c4.857,0,8.805,3.947,8.805,8.804c0,4.852-3.958,8.799-8.805,8.799c-4.84,0-8.799-3.947-8.799-8.799
			C251.332,89.552,255.279,85.605,260.131,85.605z"/>
		<path d="M260.131,111.744c-4.998,0-9.073,4.081-9.073,9.09c0,4.998,4.064,9.073,9.073,9.073c5.01,0,9.073-4.075,9.073-9.073
			C269.204,115.825,265.141,111.744,260.131,111.744z M260.131,126.37c-3.048,0-5.535-2.487-5.535-5.535
			c0-3.065,2.487-5.552,5.535-5.552c3.071,0,5.547,2.487,5.547,5.552C265.678,123.882,263.202,126.37,260.131,126.37z"/>
		<polygon points="250.17,159.083 248.95,481.132 253.148,478.82 256.354,485.896 260.061,478.598 263.319,485.604 267.125,479.146 
			271.306,481.902 270.979,159.083 		"/>
	</g>
</g>
<g>
</g>
<g>
</g>
<g>
</g>
<g>
</g>
<g>
</g>
<g>
</g>
<g>
</g>
<g>
</g>
<g>
</g>
<g>
</g>
<g>
</g>
<g>
</g>
<g>
</g>
<g>
</g>
<g>
</g>
</svg>
