<?xml version="1.0" encoding="iso-8859-1"?>
<!-- Generator: Adobe Illustrator 16.0.0, SVG Export Plug-In . SVG Version: 6.00 Build 0)  -->
<!DOCTYPE svg PUBLIC "-//W3C//DTD SVG 1.1//EN" "http://www.w3.org/Graphics/SVG/1.1/DTD/svg11.dtd">
<svg version="1.1" id="Capa_1" xmlns="http://www.w3.org/2000/svg" xmlns:xlink="http://www.w3.org/1999/xlink" x="0px" y="0px"
	 width="526.824px" height="526.825px" viewBox="0 0 526.824 526.825" style="enable-background:new 0 0 526.824 526.825;"
	 xml:space="preserve">
<g>
	<g>
		<path d="M332.873,444.618l-0.771,45.961h74.302L347.54,316.193v-186.6h-0.327v-5.453h0.292L263.226,0l-84.32,124.14h0.192v187.592
			l0.059,2.663L120.42,490.579h74.891l-1.016-48.215l30.308,0.49l-15.268,83.971h125.721l-20.096-82.511L332.873,444.618z
			 M283.199,313.893h-35.125l-21.188,116.432l-28.194-0.467V136.687h129.99v295.296l-16.78-0.28L283.199,313.893z"/>
		<path d="M263.167,173.166c-24.703,0-44.805,20.103-44.805,44.782c0,24.691,20.102,44.793,44.805,44.793
			c24.68,0,44.788-20.102,44.788-44.793C307.955,193.268,287.847,173.166,263.167,173.166z M263.167,250.17
			c-17.767,0-32.223-14.445-32.223-32.211c0-17.743,14.456-32.188,32.223-32.188c17.755,0,32.2,14.445,32.2,32.188
			C295.367,235.726,280.922,250.17,263.167,250.17z"/>
	</g>
</g>
<g>
</g>
<g>
</g>
<g>
</g>
<g>
</g>
<g>
</g>
<g>
</g>
<g>
</g>
<g>
</g>
<g>
</g>
<g>
</g>
<g>
</g>
<g>
</g>
<g>
</g>
<g>
</g>
<g>
</g>
</svg>
