<?xml version="1.0" encoding="iso-8859-1"?>
<!-- Generator: Adobe Illustrator 16.0.0, SVG Export Plug-In . SVG Version: 6.00 Build 0)  -->
<!DOCTYPE svg PUBLIC "-//W3C//DTD SVG 1.1//EN" "http://www.w3.org/Graphics/SVG/1.1/DTD/svg11.dtd">
<svg version="1.1" id="Capa_1" xmlns="http://www.w3.org/2000/svg" xmlns:xlink="http://www.w3.org/1999/xlink" x="0px" y="0px"
	 width="544.573px" height="544.573px" viewBox="0 0 544.573 544.573" style="enable-background:new 0 0 544.573 544.573;"
	 xml:space="preserve">
<g>
	<g>
		<path d="M490.729,374.292l-6.2-5.441l-47.619-41.873l-6.212-5.466l-48.273-42.463c20.143,3.386,37.25-0.263,47.572-12.004
			c7.999-9.09,10.696-21.608,8.758-35.849l-10.019,0.636c1.798,11.718-0.023,21.784-6.142,28.72
			c-18.544,21.106-70.646,6.889-113.771-31.032c-43.095-37.916-63.856-87.765-45.307-108.859c6.06-6.884,15.706-9.984,27.417-9.756
			l-0.642-9.996c-14.269-0.047-26.215,4.233-34.144,13.259c-10.03,11.409-11.729,28.212-6.358,47.1l-46.025-40.473l-6.207-5.454
			l-47.637-41.886l-6.183-5.441L89.908,20.663L47.66,68.708l-5.442,6.183L0,122.919l53.831,47.356l6.207,5.436l47.625,41.903
			l6.218,5.436l53.819,47.339l35.265-40.099l23.348,20.528l-20.166,22.934l17.194,15.134l-9.021,10.252l45.955,40.403l9.003-10.253
			l17.207,15.146l20.178-22.934l16.138,14.188l-35.837,40.752l53.831,47.328l6.201,5.465l47.643,41.874l6.188,5.441l53.831,47.362
			l42.225-48.051l5.465-6.189l42.225-48.039L490.729,374.292z M431.469,333.165l47.619,41.898l-36.782,41.815l-47.631-41.886
			L431.469,333.165z M388.45,369.54l-47.619-41.886l36.795-41.828l47.631,41.874L388.45,369.54z M198.324,127l47.625,41.897
			l-36.777,41.828l-47.631-41.886L198.324,127z M144.492,79.661l47.625,41.897l-36.777,41.827l-47.643-41.897L144.492,79.661z
			 M90.649,32.322l47.625,41.897l-36.771,41.827L53.866,74.149L90.649,32.322z M59.272,164.058l-47.637-41.886l36.789-41.839
			l47.631,41.897L59.272,164.058z M113.116,211.408l-47.637-41.897l36.776-41.828l47.643,41.897L113.116,211.408z M166.936,258.735
			l-47.625-41.874l36.783-41.839l47.625,41.886L166.936,258.735z M222.35,208.25l31.446-35.75
			c3.859,9.371,9.266,19.069,16.144,28.743l-24.23,27.552L222.35,208.25z M352.286,269.589c7.474,3.339,14.783,5.932,21.824,7.712
			l-31.937,36.328l-16.126-14.188L352.286,269.589z M346.237,417.567l-47.631-41.896l36.783-41.828l47.631,41.897L346.237,417.567z
			 M400.069,464.907l-47.631-41.898l36.794-41.826l47.631,41.896L400.069,464.907z M453.912,512.245l-47.643-41.896l36.807-41.828
			l47.619,41.898L453.912,512.245z M496.148,464.229l-47.643-41.897l36.782-41.827l47.631,41.897L496.148,464.229z"/>
		<polygon points="382.109,151.271 330.847,209.575 336.358,214.433 387.796,155.936 392.771,233.729 400.128,233.279 
			394.312,142.881 304.165,150.389 304.772,157.705 		"/>
		<g>
			<path d="M430.406,100.61c15.752,11.561,20.481,30.658,16.827,48.332l7.402,1.804c4.064-19.991-2.592-40.596-19.431-55.998
				c-16.71-15.28-39.468-16.214-58.653-7.999l2.744,5.909C395.854,86.381,415.868,89.931,430.406,100.61z"/>
			<path d="M439.013,146.933c2.954-14.743-1.974-29.905-14.387-41.279c-12.004-11-28.282-11.899-42.225-6.323l2.896,6.23
				c11.338-3.778,24.72-1.267,34.541,5.943c10.977,8.058,14.292,21.305,11.816,33.625L439.013,146.933z"/>
			<path d="M424.346,143.342c1.635-9.312-1.495-18.818-9.307-25.993c-7.497-6.837-17.539-7.614-26.309-4.438l2.803,6.055
				c12.553-3.83,26.938,8.665,25.362,22.56L424.346,143.342z"/>
			<path d="M395.526,127.537l3.293,7.053c1.846,0.274,3.504,1.687,4.134,3.556l7.823,1.897c0.188-3.708-1.261-7.362-4.367-10.211
				C403.327,127,399.264,126.51,395.526,127.537z"/>
		</g>
	</g>
</g>
<g>
</g>
<g>
</g>
<g>
</g>
<g>
</g>
<g>
</g>
<g>
</g>
<g>
</g>
<g>
</g>
<g>
</g>
<g>
</g>
<g>
</g>
<g>
</g>
<g>
</g>
<g>
</g>
<g>
</g>
</svg>
