<?xml version="1.0" encoding="iso-8859-1"?>
<!-- Generator: Adobe Illustrator 16.0.0, SVG Export Plug-In . SVG Version: 6.00 Build 0)  -->
<!DOCTYPE svg PUBLIC "-//W3C//DTD SVG 1.1//EN" "http://www.w3.org/Graphics/SVG/1.1/DTD/svg11.dtd">
<svg version="1.1" id="Capa_1" xmlns="http://www.w3.org/2000/svg" xmlns:xlink="http://www.w3.org/1999/xlink" x="0px" y="0px"
	 width="501.216px" height="501.216px" viewBox="0 0 501.216 501.216" style="enable-background:new 0 0 501.216 501.216;"
	 xml:space="preserve">
<g>
	<g>
		<path d="M60.143,365.698c12.068,0,24.119,0,36.164,0c4.747,0,7.923-3.083,9.54-7.252c5.634-14.468,11.251-28.947,16.896-43.416
			c7.176,14.749,14.346,29.497,21.521,44.245c3.842,7.87,16.033,5.535,18.094-2.358c10.439-40.076,20.867-80.129,31.3-120.199
			c8.875,40.583,17.772,81.15,26.653,121.728c2.3,10.428,15.869,8.396,19.086,0c9.814-25.654,19.624-51.32,29.456-76.986
			c8.151,25.361,16.301,50.701,24.487,76.053c2.487,7.8,13.814,10.24,18.076,2.37c5.477-10.206,10.977-20.388,16.453-30.571
			c3.644,9.704,7.287,19.408,10.906,29.135c1.564,4.192,4.834,7.252,9.54,7.252c30.933,0,61.878,0,92.798,0
			c12.764,0,12.764-19.77,0-19.77c-26.74,0-53.504,0-80.244,0c-3.48,0-5.559,0.49-6.773,1.086c0.129-1.775-0.338-4.811-2.195-9.762
			c-4.32-11.467-8.594-22.934-12.892-34.401c-2.802-7.497-13.697-10.509-18.099-2.358c-5.255,9.75-10.51,19.512-15.741,29.286
			c-8.653-26.881-17.294-53.762-25.946-80.648c-3.177-9.792-15.647-9.003-19.092,0c-9.219,24.12-18.461,48.232-27.657,72.357
			c-9.494-43.264-18.963-86.527-28.434-129.791c-2.125-9.692-16.681-9.225-19.086,0c-11.654,44.747-23.313,89.493-34.95,134.252
			c-6.585-13.499-13.143-26.997-19.717-40.474c-4.127-8.5-15.268-4.811-18.082,2.359c-6.645,17.096-13.271,34.179-19.921,51.263
			c-1.291,3.362-2.259,5.441-2.972,6.866c-9.727,0-19.431,0-29.157,0C47.386,345.917,47.386,365.698,60.143,365.698z"/>
		<path d="M408.722,48.081v16.488c7.415,4.437,12.447,12.471,12.447,21.754c0,14.024-11.373,25.409-25.409,25.409
			s-25.409-11.385-25.409-25.409c0-9.482,5.255-17.65,12.962-22.017V48.081H307.82v16.488c7.415,4.437,12.46,12.471,12.46,21.754
			c0,14.024-11.374,25.409-25.41,25.409c-14.035,0-25.409-11.385-25.409-25.409c0-9.482,5.255-17.65,12.95-22.017V48.081h-79.218
			v16.488c7.421,4.437,12.46,12.471,12.46,21.754c0,14.024-11.374,25.409-25.409,25.409c-14.042,0-25.41-11.385-25.41-25.409
			c0-9.482,5.249-17.65,12.95-22.017V48.081h-75.475v16.488c7.421,4.437,12.459,12.471,12.459,21.754
			c0,14.024-11.373,25.409-25.409,25.409c-14.042,0-25.409-11.374-25.409-25.409c0-9.482,5.249-17.65,12.95-22.017V48.081H0.023
			v54.264H0v350.792h501.216V129.295v-26.951V48.081H408.722z M465.344,417.265H35.872V138.216h429.472V417.265z"/>
	</g>
</g>
<g>
</g>
<g>
</g>
<g>
</g>
<g>
</g>
<g>
</g>
<g>
</g>
<g>
</g>
<g>
</g>
<g>
</g>
<g>
</g>
<g>
</g>
<g>
</g>
<g>
</g>
<g>
</g>
<g>
</g>
</svg>
