<?xml version="1.0" encoding="iso-8859-1"?>
<!-- Generator: Adobe Illustrator 16.0.0, SVG Export Plug-In . SVG Version: 6.00 Build 0)  -->
<!DOCTYPE svg PUBLIC "-//W3C//DTD SVG 1.1//EN" "http://www.w3.org/Graphics/SVG/1.1/DTD/svg11.dtd">
<svg version="1.1" id="Capa_1" xmlns="http://www.w3.org/2000/svg" xmlns:xlink="http://www.w3.org/1999/xlink" x="0px" y="0px"
	 width="562.276px" height="562.276px" viewBox="0 0 562.276 562.276" style="enable-background:new 0 0 562.276 562.276;"
	 xml:space="preserve">
<g>
	<path d="M408.804,525.283v-22.327H389.84c5.723-4.951,10.825-11.023,14.457-18.006c5.687-10.859,9.879-28.153-2.301-48.811
		l-8.139-13.825l2.008,15.904c1.519,11.935-3.503,18.987-7.73,22.724c0.725-12.447,0.164-38.744-14.643-57.172
		c-9.236-11.536-22.467-18.006-39.352-19.231l-10.183-0.759l7.823,6.586c9.318,7.847,14.445,16.535,15.181,25.783
		c0.421,5.348-0.677,10.252-2.195,14.27c-0.958-6.727-3.958-14.177-12.027-17.773l-5.465-2.429l0.841,5.897
		c1.892,13.486-3.258,22.197-8.699,31.411c-5.512,9.307-11.199,18.929-8.934,33.128c1.472,9.154,4.694,16.594,9.599,22.303h-27.534
		v22.327H122.335V268.445c20.698-3.684,37.379-18.549,43.918-38.12h55.781c-3.894,8.799-6.206,18.339-6.206,29.018
		c0,61.521,43.848,95.502,123.427,95.863c79.591-0.35,123.427-34.342,123.427-95.863c0-10.679-0.98-20.207-3.129-29.018h25.479
		v-35.872h-46.476c-2.942-2.802-6.165-5.564-9.809-8.238c-17.749-13.119-58.782-26.682-58.782-37.367
		c0-26.67-1.542-84.735-2.172-107.09h14.374V0h-42.913h-42.913v41.757h14.374c-0.63,22.355-2.172,80.42-2.172,107.09
		c0,10.685-29.7,24.248-47.456,37.367c-3.649,2.686-7.1,5.436-10.427,8.238h-84.408c-6.539-19.577-23.208-34.441-43.918-38.12
		v-51.549H86.463v57.072c-18.403,9.482-31.148,28.458-31.148,50.556c0,22.082,12.746,41.062,31.148,50.544v298.198l420.499,1.121
		v-35.872L408.804,525.283z M445.05,259.342c0,64.184-57.241,78.01-105.795,78.242c-48.553-0.232-105.789-14.059-105.789-78.242
		c0-10.305,3.252-19.944,8.886-29.018h198.797C444.186,239.398,445.05,249.038,445.05,259.342z M313.975,17.662h25.28h25.27v6.48
		h-25.27h-25.28V17.662z M326.177,148.848c0-26.647,1.564-85.126,2.172-107.09h10.906h10.906
		c0.607,21.964,2.172,80.461,2.172,107.09c0,17.23,33.759,31.301,57.055,45.605H280.005
		C301.188,180.148,326.177,166.089,326.177,148.848z M79.229,212.412c0-18.274,14.865-33.146,33.134-33.146
		c18.269,0,33.134,14.871,33.134,33.146c0,18.257-14.865,33.134-33.134,33.134C94.094,245.546,79.229,230.669,79.229,212.412z
		 M378.747,502.956h-10.042c6.865-15.18,5.056-48.588-16.967-53.34c7.951,11.63-1.939,23.82-10.778,30.057
		c-8.781,6.2-14.597,11.84-10.054,23.283h-0.981c-6.878-5.091-11.198-12.716-12.88-23.354c-1.915-11.817,2.943-20.015,8.058-28.703
		c4.577-7.729,9.669-16.336,10.019-28.036c5.208,7.368,2.873,19.63,2.85,19.77l-2.406,12.179l8.151-9.342
		c0.467-0.525,11.14-12.984,9.855-29.741c-0.631-8.232-4.017-15.974-10.089-23.12c10.322,2.451,18.66,7.566,24.849,15.273
		c17.772,22.151,12.682,58.713,12.635,59.074l-0.841,5.78l5.371-2.242c0.164-0.081,12.18-5.243,16.08-19.022
		c3.654,12.67,0.642,23.18-3.118,30.432C393.834,490.718,386.454,497.935,378.747,502.956z"/>
</g>
<g>
</g>
<g>
</g>
<g>
</g>
<g>
</g>
<g>
</g>
<g>
</g>
<g>
</g>
<g>
</g>
<g>
</g>
<g>
</g>
<g>
</g>
<g>
</g>
<g>
</g>
<g>
</g>
<g>
</g>
</svg>
