<?xml version="1.0" encoding="iso-8859-1"?>
<!-- Generator: Adobe Illustrator 16.0.0, SVG Export Plug-In . SVG Version: 6.00 Build 0)  -->
<!DOCTYPE svg PUBLIC "-//W3C//DTD SVG 1.1//EN" "http://www.w3.org/Graphics/SVG/1.1/DTD/svg11.dtd">
<svg version="1.1" id="Capa_1" xmlns="http://www.w3.org/2000/svg" xmlns:xlink="http://www.w3.org/1999/xlink" x="0px" y="0px"
	 width="538.758px" height="538.758px" viewBox="0 0 538.758 538.758" style="enable-background:new 0 0 538.758 538.758;"
	 xml:space="preserve">
<g>
	<g>
		<path d="M157.092,239.468c-19.273,0-19.273,29.894,0,29.894c76.742,0,153.472,0,230.214,0c19.291,0,19.291-29.894,0-29.894
			C310.564,239.468,233.834,239.468,157.092,239.468z"/>
		<path d="M387.306,296.318c-76.742,0-153.472,0-230.214,0c-19.273,0-19.273,29.893,0,29.893c76.742,0,153.472,0,230.214,0
			C406.597,326.211,406.597,296.318,387.306,296.318z"/>
		<path d="M387.306,357.11c-76.742,0-153.472,0-230.214,0c-19.273,0-19.273,29.893,0,29.893c76.742,0,153.472,0,230.214,0
			C406.597,387.002,406.597,357.11,387.306,357.11z"/>
		<path d="M382.869,418.881c-76.742,0-153.483,0-230.226,0c-19.261,0-19.261,29.893,0,29.893c76.742,0,153.483,0,230.226,0
			C402.148,448.774,402.148,418.881,382.869,418.881z"/>
		<path d="M399.731,0H61.936v538.758h414.887V74.733L399.731,0z M440.951,502.886H97.808V35.872h283.45v56.915h59.693V502.886z"/>
		<path d="M166.072,169.627c-0.514,0.456-1.062,0.753-1.652,0.911c-0.584,0.151-1.109,0.239-1.576,0.239
			c-1.133,0-2.26-0.304-3.398-0.911c-1.121-0.607-1.897-1.892-2.341-3.831c-0.286-1.278-0.432-2.709-0.432-4.279h-12.028
			c0,3.468,0.321,6.434,0.981,8.933c0.671,2.487,1.494,4.63,2.522,6.376c1.016,1.757,2.167,3.159,3.433,4.198
			c1.278,1.04,2.558,1.851,3.824,2.464c1.267,0.607,2.476,1.004,3.614,1.191c1.133,0.181,2.055,0.251,2.785,0.251
			c2.189,0,4.338-0.368,6.492-1.133c2.166-0.753,4.087-1.997,5.798-3.743c1.71-1.734,3.1-4.028,4.151-6.877
			c1.062-2.844,1.588-6.411,1.588-10.667c0-2.978-0.31-5.523-0.929-7.613c-0.625-2.096-1.448-3.854-2.487-5.284
			c-1.033-1.425-2.212-2.598-3.521-3.503c-1.313-0.911-2.662-1.71-4.052-2.37c-1.372-0.596-2.738-1.174-4.063-1.688
			c-1.325-0.525-2.522-1.062-3.591-1.646c-1.051-0.578-1.909-1.244-2.592-2.014c-0.683-0.748-1.028-1.705-1.063-2.855
			c0-0.911,0.141-1.664,0.427-2.236c0.292-0.584,0.659-1.028,1.104-1.325c0.432-0.298,0.91-0.514,1.413-0.637
			c0.514-0.117,0.963-0.192,1.36-0.192c0.625,0,1.244,0.134,1.851,0.374c0.625,0.239,1.197,0.671,1.699,1.255
			c0.514,0.561,0.911,1.255,1.185,2.102c0.263,0.853,0.345,1.892,0.251,3.112h11.374c-0.088-3.947-0.578-7.281-1.483-9.984
			c-0.911-2.704-2.119-4.893-3.614-6.568c-1.495-1.67-3.194-2.844-5.126-3.585c-1.927-0.742-3.947-1.098-6.066-1.098
			c-2.008,0-3.958,0.403-5.844,1.232c-1.892,0.823-3.573,2.125-5.021,3.871c-1.46,1.758-2.645,3.994-3.526,6.708
			c-0.899,2.715-1.343,5.932-1.343,9.71c0,3.275,0.396,5.967,1.208,8.069c0.8,2.096,1.828,3.83,3.095,5.19
			c1.244,1.378,2.68,2.464,4.262,3.287c1.577,0.817,3.141,1.594,4.671,2.312c1.675,0.788,3.065,1.471,4.151,2.055
			c1.098,0.583,1.95,1.121,2.569,1.635c0.625,0.531,1.068,1.08,1.319,1.652c0.251,0.578,0.368,1.29,0.368,2.143
			c0,1.22-0.17,2.213-0.491,2.966C167.006,168.577,166.574,169.161,166.072,169.627z"/>
		<path d="M187.569,175.32c1.699,3.036,3.754,5.441,6.207,7.199c2.44,1.757,5.237,2.639,8.419,2.639
			c2.832,0,5.372-0.777,7.596-2.353c2.218-1.588,4.087-3.672,5.605-6.241c1.506-2.587,2.656-5.477,3.445-8.706
			c0.776-3.229,1.173-6.469,1.173-9.745h-11.806c-0.181,1.518-0.414,2.949-0.741,4.28c-0.298,1.325-0.718,2.487-1.209,3.457
			c-0.49,0.981-1.086,1.734-1.792,2.283c-0.718,0.537-1.576,0.812-2.604,0.812c-1.413,0-2.61-0.514-3.556-1.553
			c-0.94-1.04-1.705-2.394-2.259-4.099c-0.549-1.711-0.97-3.626-1.232-5.746c-0.263-2.113-0.379-4.279-0.379-6.469
			c0-2.195,0.128-4.338,0.379-6.469c0.251-2.125,0.672-4.04,1.232-5.733c0.566-1.699,1.319-3.065,2.259-4.104
			c0.946-1.04,2.143-1.553,3.556-1.553c1.244,0,2.248,0.391,3.036,1.197c0.789,0.8,1.413,1.705,1.886,2.732
			c0.467,1.034,0.794,2.084,0.981,3.147c0.181,1.068,0.304,1.903,0.385,2.51h11.695c-0.514-8.203-2.236-14.538-5.167-19.01
			c-2.931-4.46-7.1-6.732-12.483-6.778c-3.024,0-5.751,0.823-8.18,2.464c-2.429,1.635-4.496,3.947-6.229,6.918
			c-1.734,2.978-3.06,6.568-3.982,10.749c-0.934,4.198-1.395,8.84-1.395,13.943c0,4.799,0.438,9.271,1.314,13.44
			C184.592,168.705,185.876,172.284,187.569,175.32z"/>
		<rect x="225.036" y="118.546" width="12.016" height="65.059"/>
		<polygon points="276.128,166.936 255.25,166.936 255.25,158.832 273.665,158.832 273.665,143.319 255.25,143.319 255.25,135.227 
			275.516,135.227 275.516,118.546 243.234,118.546 243.234,183.605 276.128,183.605 		"/>
		<polygon points="293.119,148.066 293.224,148.066 305.193,183.605 316.871,183.605 316.871,118.546 305.52,118.546 
			305.52,153.355 305.403,153.355 294.042,118.546 281.746,118.546 281.746,183.605 293.119,183.605 		"/>
		<path d="M327.193,175.32c1.705,3.036,3.76,5.441,6.212,7.199c2.44,1.757,5.231,2.639,8.419,2.639c2.838,0,5.36-0.777,7.59-2.353
			c2.23-1.588,4.088-3.672,5.617-6.241c1.494-2.587,2.639-5.477,3.434-8.706c0.771-3.229,1.167-6.469,1.167-9.745h-11.794
			c-0.187,1.518-0.42,2.949-0.747,4.28c-0.292,1.325-0.712,2.487-1.202,3.457c-0.491,0.981-1.086,1.734-1.787,2.283
			c-0.725,0.537-1.588,0.812-2.615,0.812c-1.402,0-2.604-0.514-3.551-1.553c-0.945-1.04-1.704-2.394-2.265-4.099
			c-0.537-1.711-0.958-3.626-1.227-5.746c-0.269-2.113-0.386-4.279-0.386-6.469c0-2.195,0.141-4.338,0.386-6.469
			c0.245-2.125,0.666-4.04,1.227-5.733c0.561-1.699,1.319-3.065,2.265-4.104c0.946-1.04,2.148-1.553,3.551-1.553
			c1.237,0,2.241,0.391,3.035,1.197c0.795,0.8,1.413,1.705,1.893,2.732c0.467,1.034,0.793,2.084,0.98,3.147
			c0.187,1.068,0.304,1.903,0.373,2.51h11.701c-0.514-8.203-2.242-14.538-5.161-19.01c-2.932-4.46-7.101-6.732-12.483-6.778
			c-3.024,0-5.757,0.823-8.186,2.464c-2.429,1.635-4.484,3.947-6.224,6.918c-1.74,2.978-3.071,6.568-3.981,10.749
			c-0.935,4.198-1.402,8.84-1.402,13.943c0,4.799,0.444,9.271,1.309,13.44C324.226,168.705,325.5,172.284,327.193,175.32z"/>
		<polygon points="364.653,183.605 397.536,183.605 397.536,166.936 376.657,166.936 376.657,158.832 395.083,158.832 
			395.083,143.319 376.657,143.319 376.657,135.227 396.952,135.227 396.952,118.546 364.653,118.546 		"/>
	</g>
</g>
<g>
</g>
<g>
</g>
<g>
</g>
<g>
</g>
<g>
</g>
<g>
</g>
<g>
</g>
<g>
</g>
<g>
</g>
<g>
</g>
<g>
</g>
<g>
</g>
<g>
</g>
<g>
</g>
<g>
</g>
</svg>
