<?xml version="1.0" encoding="iso-8859-1"?>
<!-- Generator: Adobe Illustrator 16.0.0, SVG Export Plug-In . SVG Version: 6.00 Build 0)  -->
<!DOCTYPE svg PUBLIC "-//W3C//DTD SVG 1.1//EN" "http://www.w3.org/Graphics/SVG/1.1/DTD/svg11.dtd">
<svg version="1.1" id="Capa_1" xmlns="http://www.w3.org/2000/svg" xmlns:xlink="http://www.w3.org/1999/xlink" x="0px" y="0px"
	 width="566.806px" height="566.806px" viewBox="0 0 566.806 566.806" style="enable-background:new 0 0 566.806 566.806;"
	 xml:space="preserve">
<g>
	<g>
		<path d="M560.337,418.87c0,0-18.648-10.778-27.979-16.174c-0.257-5.395-0.806-10.695-1.938-15.834
			c7.403-6.34,22.187-18.986,22.187-18.986v-25.503l-36.455-42.481h-25.504c0,0-12.097,10.358-18.122,15.554
			c-6.586-3.188-13.522-5.792-20.763-7.754c-0.583-7.216-1.774-21.608-1.774-21.608l-18.006-18.041l-55.735,4.519l-18.053,18.047
			c0,0,1.519,18.905,2.277,28.363c-5.465,3.118-10.626,6.633-15.438,10.521c-7.788-3.585-23.471-10.754-23.471-10.754l-24.697,6.469
			l-23.354,50.889l-0.812,3.434l7.269,21.229c0,0,18.239,8.314,27.359,12.471c0.409,6.002,1.343,11.864,2.814,17.516
			c-6.96,5.908-20.855,17.68-20.855,17.68v25.502l36.164,42.691c0,0,21.03,2.5,22.151,1.869c1.133-0.631,3.386-1.869,3.386-1.869
			s13.207-11.186,19.805-16.791c5.582,2.499,11.374,4.601,17.423,6.225c0.653,7.484,2.055,22.501,2.055,22.501l18.029,18.053
			l55.63-5.067l18.053-18.053c0,0-1.74-19.314-2.639-28.994c4.577-2.628,8.968-5.465,13.078-8.63
			c7.229,4.169,21.685,12.553,21.685,12.553l24.674-6.48l28.024-48.413L560.337,418.87z M416.755,463.592
			c-31.072,0-56.283-25.188-56.283-56.26s25.211-56.271,56.283-56.271c31.085,0,56.284,25.199,56.284,56.271
			S447.829,463.592,416.755,463.592z"/>
		<path d="M416.592,361.979c-25.013,0-45.354,20.353-45.354,45.354c0,25,20.353,45.354,45.354,45.354
			c25.013,0,45.354-20.354,45.354-45.354C461.947,382.32,441.605,361.979,416.592,361.979z M416.592,440.729
			c-18.427,0-33.396-14.982-33.396-33.396c0-18.427,14.981-33.396,33.396-33.396s33.396,14.981,33.396,33.396
			C449.989,425.747,435.007,440.729,416.592,440.729z"/>
		<path d="M236.444,305.134c-0.228-4.904-0.73-9.727-1.758-14.421c6.756-5.763,20.208-17.293,20.208-17.293v-23.22l-33.192-38.68
			H198.47c0,0-11.017,9.447-16.505,14.17c-5.99-2.896-12.302-5.26-18.899-7.059c-0.543-6.562-1.617-19.664-1.617-19.664
			l-16.406-16.43l-50.761,4.122l-16.441,16.43c0,0,1.39,17.218,2.073,25.842c-4.974,2.82-9.674,6.025-14.042,9.575
			c-7.1-3.252-21.387-9.792-21.387-9.792l-22.496,5.897l-21.27,46.335L0,284.051l6.626,19.32c0,0,16.605,7.567,24.907,11.362
			c0.368,5.465,1.215,10.801,2.558,15.951c-6.341,5.383-18.987,16.103-18.987,16.103v23.237l32.918,38.861
			c0,0,19.156,2.266,20.172,1.705c1.028-0.561,3.083-1.705,3.083-1.705s12.027-10.17,18.047-15.273
			c5.068,2.266,10.352,4.191,15.852,5.663c0.602,6.808,1.869,20.481,1.869,20.481l16.418,16.43l50.661-4.623l16.441-16.441
			c0,0-1.588-17.586-2.406-26.391c4.163-2.395,8.168-4.975,11.911-7.859c6.592,3.795,19.752,11.432,19.752,11.432l22.472-5.908
			l25.526-44.092l-5.908-22.467C261.935,319.86,244.945,310.039,236.444,305.134z M131.175,360.577
			c-28.282,0-51.251-22.922-51.251-51.227c0-28.299,22.958-51.233,51.251-51.233c28.299,0,51.268,22.934,51.268,51.233
			C182.443,337.655,159.474,360.577,131.175,360.577z"/>
		<path d="M131.029,268.054c-22.776,0-41.302,18.52-41.302,41.296c0,22.77,18.525,41.302,41.302,41.302
			c22.765,0,41.302-18.521,41.302-41.302C172.342,286.574,153.805,268.054,131.029,268.054z M131.029,339.756
			c-16.774,0-30.407-13.639-30.407-30.407c0-16.774,13.645-30.401,30.407-30.401s30.407,13.645,30.407,30.401
			C161.448,326.118,147.803,339.756,131.029,339.756z"/>
		<path d="M189.666,111.481c0.251,3.771,0.841,7.461,1.769,11.017c-4.373,3.719-13.102,11.117-13.102,11.117v16.039l22.729,26.828
			c0,0,13.225,1.57,13.931,1.173c0.719-0.397,2.131-1.173,2.131-1.173s8.308-7.018,12.459-10.544
			c3.491,1.553,7.146,2.896,10.953,3.912c0.415,4.712,1.29,14.147,1.29,14.147l11.321,11.344l34.973-3.182l11.362-11.344
			c0,0-1.098-12.15-1.658-18.222c2.86-1.652,5.628-3.433,8.209-5.43c4.554,2.627,13.639,7.894,13.639,7.894l15.519-4.081
			l17.621-30.431l-4.075-15.507c0,0-11.712-6.779-17.598-10.165c-0.163-3.386-0.514-6.72-1.226-9.96
			c4.658-3.982,13.953-11.946,13.953-11.946V66.945l-22.922-26.717h-16.032c0,0-7.613,6.516-11.397,9.785
			c-4.134-1.997-8.489-3.637-13.055-4.869c-0.374-4.531-1.115-13.581-1.115-13.581l-11.309-11.362l-35.037,2.843l-11.344,11.351
			c0,0,0.958,11.887,1.437,17.842c-3.434,1.944-6.686,4.157-9.698,6.609c-4.904-2.248-14.771-6.767-14.771-6.767l-15.519,4.064
			l-14.685,31.989l-0.514,2.16l4.578,13.347C172.471,103.64,183.938,108.866,189.666,111.481z M258.461,72.398
			c19.536,0,35.393,15.828,35.393,35.37c0,19.524-15.857,35.358-35.393,35.358c-19.53,0-35.387-15.834-35.387-35.358
			C223.074,88.226,238.931,72.398,258.461,72.398z"/>
		<path d="M258.362,136.271c15.723,0,28.521-12.792,28.521-28.503c0-15.729-12.798-28.521-28.521-28.521
			c-15.724,0-28.516,12.792-28.516,28.521C229.846,123.479,242.638,136.271,258.362,136.271z M258.362,86.767
			c11.578,0,20.995,9.423,20.995,21.001c0,11.572-9.417,20.995-20.995,20.995c-11.572,0-20.996-9.423-20.996-20.995
			C237.366,96.19,246.79,86.767,258.362,86.767z"/>
	</g>
</g>
<g>
</g>
<g>
</g>
<g>
</g>
<g>
</g>
<g>
</g>
<g>
</g>
<g>
</g>
<g>
</g>
<g>
</g>
<g>
</g>
<g>
</g>
<g>
</g>
<g>
</g>
<g>
</g>
<g>
</g>
</svg>
