<?xml version="1.0" encoding="iso-8859-1"?>
<!-- Generator: Adobe Illustrator 16.0.0, SVG Export Plug-In . SVG Version: 6.00 Build 0)  -->
<!DOCTYPE svg PUBLIC "-//W3C//DTD SVG 1.1//EN" "http://www.w3.org/Graphics/SVG/1.1/DTD/svg11.dtd">
<svg version="1.1" id="Capa_1" xmlns="http://www.w3.org/2000/svg" xmlns:xlink="http://www.w3.org/1999/xlink" x="0px" y="0px"
	 width="545.554px" height="545.554px" viewBox="0 0 545.554 545.554" style="enable-background:new 0 0 545.554 545.554;"
	 xml:space="preserve">
<g>
	<g>
		<path d="M507.417,388.847l30.745-34.868c0,0-106.121-1.95-142.659,21.101c-27.044,17.107-47.969,40.041-56.517,50.13L332.61,392.7
			l-31.995,36.783l-43.427-8.012l21.276,41.734l-22.269,41.174l46.253-7.357l27.057,35.967l11.875-45.729l44.221-14.117
			l-28.048-19.466c9.342-7.17,40.146-28.655,76.088-30.804c39.516-2.336,111.913,4.67,111.913,4.67L507.417,388.847z"/>
		<path d="M200.537,155.672l27.05,35.971l11.893-45.739l44.228-14.106l-28.049-19.483c9.33-7.146,40.146-28.649,76.064-30.787
			c39.527-2.347,111.937,4.665,111.937,4.665l-38.16-38.709l30.734-34.879c0,0-106.122-1.938-142.66,21.118
			c-27.044,17.101-47.969,40.047-56.517,50.124l-6.376-32.497l-32.007,36.753l-43.409-7.987l21.275,41.734l-22.28,41.167
			L200.537,155.672z"/>
		<path d="M296.248,302.237c65.976-10.194,188.55-9.855,188.55-9.855l-70.121-58.876l46.066-63.401
			c0,0-178.333,13.487-235.982,57.959c-42.674,32.929-74.196,74.722-86.942,92.985l-15.817-53.511l-47.888,66.729L0,327.693
			l42.306,66.642l-30.909,72.631l76.444-19.652l51.058,56.086l12.734-78.635l71.972-30.641l-50.089-28.258
			C188.03,352.437,236.35,311.497,296.248,302.237z"/>
	</g>
</g>
<g>
</g>
<g>
</g>
<g>
</g>
<g>
</g>
<g>
</g>
<g>
</g>
<g>
</g>
<g>
</g>
<g>
</g>
<g>
</g>
<g>
</g>
<g>
</g>
<g>
</g>
<g>
</g>
<g>
</g>
</svg>
