<?xml version="1.0" encoding="iso-8859-1"?>
<!-- Generator: Adobe Illustrator 16.0.0, SVG Export Plug-In . SVG Version: 6.00 Build 0)  -->
<!DOCTYPE svg PUBLIC "-//W3C//DTD SVG 1.1//EN" "http://www.w3.org/Graphics/SVG/1.1/DTD/svg11.dtd">
<svg version="1.1" id="Capa_1" xmlns="http://www.w3.org/2000/svg" xmlns:xlink="http://www.w3.org/1999/xlink" x="0px" y="0px"
	 width="537.38px" height="537.38px" viewBox="0 0 537.38 537.38" style="enable-background:new 0 0 537.38 537.38;"
	 xml:space="preserve">
<g>
	<g>
		<path d="M64.604,364.133C28.982,364.133,0,393.092,0,428.73s28.982,64.609,64.604,64.609s64.609-28.994,64.609-64.609
			S100.225,364.133,64.604,364.133z M64.604,469.426c-22.443,0-40.689-18.252-40.689-40.695s18.246-40.684,40.689-40.684
			s40.694,18.24,40.694,40.684S87.035,469.426,64.604,469.426z"/>
		<path d="M226.051,364.133c-35.621,0-64.604,28.982-64.604,64.598s28.982,64.609,64.604,64.609s64.615-28.994,64.615-64.609
			S261.672,364.133,226.051,364.133z M226.051,469.426c-22.432,0-40.688-18.252-40.688-40.695s18.257-40.684,40.688-40.684
			s40.695,18.24,40.695,40.684S248.5,469.426,226.051,469.426z"/>
		<path d="M387.329,364.133c-35.615,0-64.598,28.982-64.598,64.598s28.982,64.609,64.598,64.609
			c35.627,0,64.609-28.994,64.609-64.609S422.956,364.133,387.329,364.133z M387.329,469.426c-22.42,0-40.683-18.252-40.683-40.695
			s18.239-40.684,40.683-40.684s40.695,18.24,40.695,40.684S409.772,469.426,387.329,469.426z"/>
		<path d="M507.743,256.785v-24.86L381.28,82.283c1.262-3.17,2.009-6.615,2.009-10.229c0-15.232-12.401-27.64-27.651-27.64
			c-2.009,0-3.959,0.245-5.839,0.654l-0.864-1.027l-0.222,1.366C336.837,48.5,328.01,59.214,328.01,72.053
			c0,9.64,4.975,18.117,12.448,23.068l-14.947,90.206c-23.892,4.747-41.921,25.73-42.107,50.988H271.86v75.236h-12.664V162.825
			H127.905v98.841H113.46v-53.831H74.64c20.733-26.63,7.876-49.529,7.876-49.529l-39.171,36.433l-21.129-21.2
			c2.487-4.332,2.084-9.867-1.624-13.575c-4.414-4.431-11.601-4.431-16.027-0.035c-4.42,4.426-4.449,11.636-0.012,16.062
			c3.603,3.608,8.968,4.122,13.266,1.839l21.03,21.083L2.633,232.608c0,0,22.8,10.988,49.826-5.144v34.19H29.952v49.885H5.284V356.1
			h434.698v-44.561h-43.264v-75.235h-8.571c-0.187-23.961-16.499-43.883-38.581-49.949l14.503-87.374l119.761,141.696v16.108
			h-29.637v41.535h11.957v-29.578h25.152v19.442h11.958v-19.442h22.163v29.893h11.957v-41.851H507.743z M355.649,87.73
			c-8.652,0-15.683-7.03-15.683-15.688c0-8.652,7.03-15.682,15.683-15.682s15.683,7.03,15.683,15.682
			C371.332,80.7,364.29,87.73,355.649,87.73z"/>
	</g>
</g>
<g>
</g>
<g>
</g>
<g>
</g>
<g>
</g>
<g>
</g>
<g>
</g>
<g>
</g>
<g>
</g>
<g>
</g>
<g>
</g>
<g>
</g>
<g>
</g>
<g>
</g>
<g>
</g>
<g>
</g>
</svg>
