<?xml version="1.0" encoding="iso-8859-1"?>
<!-- Generator: Adobe Illustrator 16.0.0, SVG Export Plug-In . SVG Version: 6.00 Build 0)  -->
<!DOCTYPE svg PUBLIC "-//W3C//DTD SVG 1.1//EN" "http://www.w3.org/Graphics/SVG/1.1/DTD/svg11.dtd">
<svg version="1.1" id="Capa_1" xmlns="http://www.w3.org/2000/svg" xmlns:xlink="http://www.w3.org/1999/xlink" x="0px" y="0px"
	 width="549.068px" height="549.069px" viewBox="0 0 549.068 549.069" style="enable-background:new 0 0 549.068 549.069;"
	 xml:space="preserve">
<g>
	<path d="M502.331,154.512l2.219,5.348l33.373-13.837l-1.156-2.785l0.047-0.012L479.42,4.735l-0.022,0.023L477.424,0l-33.385,13.837
		l3.176,7.66l-329.79,171.636l-8.122-19.606l-16.546,6.849l8.717,21.06l-63.605,33.11l-3.562-8.898l-23.161,9.289l32.188,80.25
		l23.15-9.295l-3.083-7.707l196.257-64.252v56.99L156.595,549.069h24.487l92.179-231.674l69.538,230.752l24.381-0.082
		l-78.505-257.539V224.44L502.331,154.512z M456.884,44.864l35.65,86.007L56.131,272.906l-6.843-16.517L456.884,44.864z"/>
</g>
<g>
</g>
<g>
</g>
<g>
</g>
<g>
</g>
<g>
</g>
<g>
</g>
<g>
</g>
<g>
</g>
<g>
</g>
<g>
</g>
<g>
</g>
<g>
</g>
<g>
</g>
<g>
</g>
<g>
</g>
</svg>
