<?xml version="1.0" encoding="iso-8859-1"?>
<!-- Generator: Adobe Illustrator 16.0.0, SVG Export Plug-In . SVG Version: 6.00 Build 0)  -->
<!DOCTYPE svg PUBLIC "-//W3C//DTD SVG 1.1//EN" "http://www.w3.org/Graphics/SVG/1.1/DTD/svg11.dtd">
<svg version="1.1" id="Capa_1" xmlns="http://www.w3.org/2000/svg" xmlns:xlink="http://www.w3.org/1999/xlink" x="0px" y="0px"
	 width="534.834px" height="534.834px" viewBox="0 0 534.834 534.834" style="enable-background:new 0 0 534.834 534.834;"
	 xml:space="preserve">
<g>
	<g>
		<path d="M193.245,90.434V48.583h-41.121V0H96.103v48.583H54.982v41.851h18.415c-17.831,25.065-52.529,78.394-52.529,113.595
			v330.806h203.357V204.028c0-38.178-32.393-89.622-49.097-113.595H193.245z M200.309,510.92H44.782V204.028
			c0-27.622,32.895-78.774,51.321-104.218v34.459h56.021V99.255c17.265,23.991,48.197,73.443,48.197,104.773V510.92H200.309z"/>
		<path d="M472.667,231.674l-35.394-0.49l-0.327-33.087h11.455v-40.688h-39.246v-44.677h-52.407v44.677h-39.235v40.688h10.089
			v33.087h-39.818l-2.032,0.753c-1.763,0.66-43.1,16.611-43.1,55.367v247.531h271.317V287.304
			C513.967,252.874,486.947,235.86,472.667,231.674z M490.053,510.92H266.565V287.327c0-18.8,19.77-29.409,25.83-32.217h59.121
			v-57.002h61.503l0.549,57.002h53.715c5.091,1.985,22.771,10.416,22.771,32.217V510.92L490.053,510.92z"/>
		<path d="M91.963,264.714c-19.811-8.816-35.487,8.81-35.487,8.81v227.19h130.79V262.32c0,0-11.216-2.989-31.389,0
			C135.706,265.31,111.779,273.524,91.963,264.714z M81.646,487.262c-5.979,0-10.807-4.846-10.807-10.812
			c0-5.955,4.84-10.813,10.807-10.813s10.807,4.858,10.807,10.813C92.454,482.417,87.614,487.262,81.646,487.262z M109.899,432.975
			c-7.625,0-13.796-6.177-13.796-13.791c0-7.625,6.183-13.802,13.796-13.802c7.62,0,13.803,6.177,13.803,13.802
			C123.702,426.798,117.519,432.975,109.899,432.975z M104.867,360.086c-12.828,0-23.232-10.404-23.232-23.236
			c0-12.834,10.404-23.227,23.232-23.227c12.833,0,23.22,10.416,23.22,23.227C128.098,349.694,117.7,360.086,104.867,360.086z
			 M175.927,456.202c0,7.637-6.177,13.802-13.796,13.802c-7.631,0-13.796-6.177-13.796-13.802c0-7.613,6.177-13.791,13.796-13.791
			C169.762,442.411,175.927,448.588,175.927,456.202z M169.966,365.447c0,5.979-4.846,10.802-10.813,10.802
			c-5.967,0-10.807-4.847-10.807-10.802c0-5.979,4.84-10.813,10.807-10.813C165.12,354.633,169.966,359.468,169.966,365.447z"/>
		<path d="M408.407,388.895c-27.465-13.289-66.956,13.965-90.404,0c-23.424-13.99-41.337,0-41.337,0v113.256h203.299V388.895
			C479.964,388.895,435.86,402.16,408.407,388.895z M316.111,465.636c-12.821,0-23.226-10.416-23.226-23.237
			c0-12.833,10.404-23.215,23.226-23.215c12.845,0,23.226,10.394,23.226,23.215C339.336,455.244,328.956,465.636,316.111,465.636z
			 M378.327,432.975c-7.637,0-13.803-6.177-13.803-13.791c0-7.625,6.178-13.802,13.803-13.802c7.613,0,13.791,6.177,13.791,13.802
			C392.118,426.798,385.94,432.975,378.327,432.975z M403,471.708c-4.216,0-7.602-3.397-7.602-7.614c0-4.191,3.386-7.59,7.602-7.59
			c4.191,0,7.59,3.398,7.59,7.59C410.59,468.311,407.192,471.708,403,471.708z M447.501,493.696
			c-10.369,0-18.753-8.395-18.753-18.753c0-10.357,8.384-18.741,18.753-18.741c10.347,0,18.73,8.407,18.73,18.741
			C466.232,485.301,457.836,493.696,447.501,493.696z M458.303,408.348c5.979,0,10.801,4.857,10.801,10.813
			c0,5.979-4.834,10.813-10.801,10.813s-10.802-4.835-10.802-10.813C447.501,413.206,452.325,408.348,458.303,408.348z"/>
	</g>
</g>
<g>
</g>
<g>
</g>
<g>
</g>
<g>
</g>
<g>
</g>
<g>
</g>
<g>
</g>
<g>
</g>
<g>
</g>
<g>
</g>
<g>
</g>
<g>
</g>
<g>
</g>
<g>
</g>
<g>
</g>
</svg>
