<?xml version="1.0" encoding="iso-8859-1"?>
<!-- Generator: Adobe Illustrator 16.0.0, SVG Export Plug-In . SVG Version: 6.00 Build 0)  -->
<!DOCTYPE svg PUBLIC "-//W3C//DTD SVG 1.1//EN" "http://www.w3.org/Graphics/SVG/1.1/DTD/svg11.dtd">
<svg version="1.1" id="Capa_1" xmlns="http://www.w3.org/2000/svg" xmlns:xlink="http://www.w3.org/1999/xlink" x="0px" y="0px"
	 width="517.833px" height="517.833px" viewBox="0 0 517.833 517.833" style="enable-background:new 0 0 517.833 517.833;"
	 xml:space="preserve">
<g>
	<g>
		<circle cx="260.443" cy="264.533" r="23.915"/>
		<path d="M289.216,255.384l10.673-28.995l-28.206,10.165l-15.542-26.378l-10.106,27.943l-30.442-5.237l15.14,25.9l-22.817,20.861
			l30.372,5.162c0,0-5.021-6.271-6.72-12.004c-1.542-5.161-0.882-12.57-0.742-13.89c0.076-0.187,2.347-7.222,5.564-12.027
			c3.264-4.829,9.896-8.717,9.896-8.717l-0.07-0.023c1.004-0.321,7.188-2.475,12.547-3.036c4.986-0.514,10.988,1.098,12.623,1.564
			c0,0,6.54,3.159,10.661,7.322c4.099,4.157,7.042,11.811,7.042,11.811l0.046-0.181c0.409,1.53,1.869,7.789,1.238,12.856
			c-0.735,5.769-4.904,12.821-4.904,12.821l0.035-0.023c-0.888,1.109-5.115,6.189-9.523,8.945
			c-4.962,3.117-13.061,4.297-13.061,4.297l26.355,16.955l-3.562-30.267l29.543-9.646L289.216,255.384z"/>
		<path d="M238.274,284.734l3.842,31.107l20.791-21.299c0,0-7.415-0.666-12.961-2.498
			C244.388,290.223,238.274,284.734,238.274,284.734z"/>
		<path d="M478.046,32.812C455.884,11.35,424.542,0,387.433,0c-36.211,0-76.428,10.679-117.017,29.94
			c-6.335-8.833-17.002-14.205-28.598-12.985c-17.2,1.792-29.671,17.194-27.873,34.389c0.345,3.299,1.325,6.352,2.592,9.23
			c-30.291,20.079-59.88,44.496-87.193,72.69C71.269,193.244,29.85,262.524,12.726,328.337
			c-17.422,67.026-7.689,122.656,27.43,156.683c22.169,21.463,53.51,32.813,90.614,32.813c79.573,0,178.461-51.063,258.075-133.271
			C509.575,259.88,549.592,102.093,478.046,32.812z M380.263,376.248C302.82,456.201,207.225,505.875,130.77,505.875
			c-33.934,0-62.396-10.182-82.294-29.461c-31.89-30.886-40.473-82.394-24.166-145.053
			c16.622-63.862,56.978-131.269,113.647-189.776c26.782-27.657,55.764-51.595,85.36-71.207c6.434,6.271,15.402,9.844,25.03,8.839
			c17.195-1.804,29.666-17.194,27.874-34.389c-0.146-1.413-0.526-2.738-0.853-4.087c38.978-18.537,77.478-28.784,112.065-28.784
			c33.945,0,62.414,10.188,82.3,29.449C536.549,106.098,496.403,256.318,380.263,376.248z"/>
		<path d="M349.855,69.28c-60.138,0-130.889,34.903-189.28,93.364c-43.644,43.678-74.587,94.94-87.17,144.323
			c-4.828,18.976-6.731,36.853-5.797,53.2c-14.094,4.251-23.664,18.007-22.082,33.188c1.792,17.199,17.194,29.659,34.389,27.861
			c3.024-0.304,5.833-1.191,8.513-2.266c2.213,2.803,4.425,5.629,6.971,8.174c18.269,18.252,44.25,27.908,75.125,27.908
			c60.125,0,130.883-34.914,189.291-93.37c43.626-43.696,74.594-94.958,87.158-144.34c12.856-50.492,5.045-93.172-21.988-120.158
			C406.711,78.919,380.729,69.28,349.855,69.28z M435.39,214.368c-12.062,47.345-41.908,96.651-84.04,138.841
			c-55.373,55.42-124.659,89.867-180.825,89.867c-27.646,0-50.696-8.455-66.671-24.405c-1.974-1.962-3.637-4.181-5.371-6.329
			c6.562-6.445,10.334-15.636,9.301-25.503c-1.577-15.11-13.662-26.554-28.241-27.885c-0.788-14.993,0.98-31.458,5.453-49.032
			c12.051-47.339,41.886-96.64,84.034-138.823c55.367-55.437,124.647-89.861,180.826-89.861c27.64,0,50.702,8.431,66.676,24.381
			C440.458,129.511,447.149,168.145,435.39,214.368z"/>
		<path d="M392.57,178.058c-4.087-12.57-10.661-23.664-19.887-32.608c-15.309-14.818-36.304-22.66-60.721-22.66
			c-40.992,0-86.767,22-122.435,58.853c-58.858,60.756-72.45,143.401-30.302,184.248c15.303,14.807,36.304,22.653,60.721,22.653
			c40.987,0,86.772-21.999,122.458-58.853c28.224-29.158,47.035-64.131,52.99-98.508c0.27-1.564,0.362-3.071,0.572-4.624
			c10.79-3.807,18.018-14.579,16.769-26.443C411.558,188.842,403.114,180.195,392.57,178.058z M333.811,321.377
			c-33.49,34.588-76.041,55.209-113.863,55.209c-21.24,0-39.363-6.679-52.401-19.29c-37.414-36.245-23.71-111.306,30.565-167.327
			c33.467-34.582,76.023-55.209,113.852-55.209c21.241,0,39.363,6.673,52.407,19.285c7.018,6.784,12.261,15.093,15.787,24.516
			c-11.373,3.456-19.08,14.573-17.796,26.828c1.226,11.724,10.3,20.639,21.428,22.315c-0.07,0.49-0.094,0.958-0.175,1.448
			C378.067,261.182,360.376,293.936,333.811,321.377z"/>
	</g>
</g>
<g>
</g>
<g>
</g>
<g>
</g>
<g>
</g>
<g>
</g>
<g>
</g>
<g>
</g>
<g>
</g>
<g>
</g>
<g>
</g>
<g>
</g>
<g>
</g>
<g>
</g>
<g>
</g>
<g>
</g>
</svg>
