<?xml version="1.0" encoding="iso-8859-1"?>
<!-- Generator: Adobe Illustrator 16.0.0, SVG Export Plug-In . SVG Version: 6.00 Build 0)  -->
<!DOCTYPE svg PUBLIC "-//W3C//DTD SVG 1.1//EN" "http://www.w3.org/Graphics/SVG/1.1/DTD/svg11.dtd">
<svg version="1.1" id="Capa_1" xmlns="http://www.w3.org/2000/svg" xmlns:xlink="http://www.w3.org/1999/xlink" x="0px" y="0px"
	 width="574.502px" height="574.502px" viewBox="0 0 574.502 574.502" style="enable-background:new 0 0 574.502 574.502;"
	 xml:space="preserve">
<g>
	<g>
		<path d="M241.021,247.741c69.49,0,63.161,0,132.652,0c17.457,0,17.457-27.067,0-27.067c-69.491,0-63.162,0-132.652,0
			C223.587,220.674,223.587,247.741,241.021,247.741z"/>
		<path d="M241.021,328.733c69.49,0,63.161,0,132.652,0c17.457,0,17.457-27.067,0-27.067c-69.491,0-63.162,0-132.652,0
			C223.587,301.667,223.587,328.733,241.021,328.733z"/>
		<path d="M241.021,162.031c69.49,0,63.161,0,132.652,0c17.457,0,17.457-27.067,0-27.067c-69.491,0-63.162,0-132.652,0
			C223.587,134.964,223.587,162.031,241.021,162.031z"/>
		<path d="M191.517,128.168h-37.711c-1.366,0-2.476,0.829-2.476,1.868v38.026c0,1.004,1.109,1.839,2.476,1.839h37.711
			c1.366,0,2.464-0.835,2.464-1.839v-38.026C193.98,128.997,192.895,128.168,191.517,128.168z"/>
		<path d="M189.21,212.617h-37.717c-1.349,0-2.458,0.812-2.458,1.862v38.015c0,1.016,1.109,1.851,2.458,1.851h37.717
			c1.36,0,2.487-0.835,2.487-1.851v-38.015C191.697,213.44,190.57,212.617,189.21,212.617z"/>
		<path d="M189.21,294.748h-37.717c-1.349,0-2.458,0.853-2.458,1.868v38.027c0,1.027,1.109,1.845,2.458,1.845h37.717
			c1.36,0,2.487-0.817,2.487-1.845v-38.027C191.697,295.612,190.57,294.748,189.21,294.748z"/>
		<path d="M189.21,380.043h-37.717c-1.349,0-2.458,0.817-2.458,1.868v38.01c0,1.016,1.109,1.855,2.458,1.855h37.717
			c1.36,0,2.487-0.84,2.487-1.855v-38.01C191.697,380.884,190.57,380.043,189.21,380.043z"/>
		<polygon points="466.156,412.155 439.123,393.261 378.869,479.509 348.089,448.378 324.641,471.568 383.26,530.817 		"/>
		<path d="M449.329,348.585V23.821h-58.7V0H135.962v23.821H70.664v490.041h207.712v60.64h225.461V348.585H449.329z M106.536,477.991
			V59.693h29.426v23.815h254.667V59.693h22.828v288.892H278.376v38.791c-9.721,0-21.55,0-37.355,0c-17.434,0-17.434,27.068,0,27.068
			c15.805,0,27.634,0,37.355,0v63.547H106.536L106.536,477.991z M479.946,550.599H302.291v-178.1h177.633v178.1H479.946z"/>
	</g>
</g>
<g>
</g>
<g>
</g>
<g>
</g>
<g>
</g>
<g>
</g>
<g>
</g>
<g>
</g>
<g>
</g>
<g>
</g>
<g>
</g>
<g>
</g>
<g>
</g>
<g>
</g>
<g>
</g>
<g>
</g>
</svg>
