<?xml version="1.0" encoding="iso-8859-1"?>
<!-- Generator: Adobe Illustrator 16.0.0, SVG Export Plug-In . SVG Version: 6.00 Build 0)  -->
<!DOCTYPE svg PUBLIC "-//W3C//DTD SVG 1.1//EN" "http://www.w3.org/Graphics/SVG/1.1/DTD/svg11.dtd">
<svg version="1.1" id="Capa_1" xmlns="http://www.w3.org/2000/svg" xmlns:xlink="http://www.w3.org/1999/xlink" x="0px" y="0px"
	 width="453.784px" height="453.784px" viewBox="0 0 453.784 453.784" style="enable-background:new 0 0 453.784 453.784;"
	 xml:space="preserve">
<g>
	<g>
		<path d="M438.289,51.047c-0.421,0.146-44.14,13.428-85.057,13.428c-22.514,0-39.387-3.935-50.165-11.706
			c-14.923-10.749-36.503-16.202-64.13-16.202c-44.46,0-90.165,13.896-92.091,14.48l-8.437,2.592V256.47l15.676-5.138
			c0.356-0.117,36.789-11.864,77.601-11.864c23.296,0,43.275,3.818,59.343,11.339c19.279,9.003,42.634,13.58,69.491,13.58
			c44.571,0,83.397-12.518,85.032-13.055l8.232-2.686V46.288L438.289,51.047z M429.857,230.967
			c-13.078,3.457-40.099,9.505-69.361,9.505c-23.297,0-43.275-3.807-59.344-11.327c-19.278-9.009-42.645-13.592-69.49-13.592
			c-27.979,0-53.691,4.928-69.362,8.734V71.575c14.754-3.848,46.522-11.093,76.614-11.093c22.513,0,39.399,3.935,50.165,11.706
			c14.924,10.749,36.503,16.202,64.131,16.202c29.286,0,59.133-6.037,76.625-10.305v152.882H429.857z"/>
		<path d="M112.101,48.571c6.037-5.021,9.96-12.506,9.96-20.972c0-15.128-12.267-27.395-27.406-27.395
			c-15.127,0-27.395,12.267-27.395,27.395c0,8.478,3.935,15.962,9.972,20.984v352.683H0v52.313h406.55v-52.313H112.101V48.571z"/>
	</g>
</g>
<g>
</g>
<g>
</g>
<g>
</g>
<g>
</g>
<g>
</g>
<g>
</g>
<g>
</g>
<g>
</g>
<g>
</g>
<g>
</g>
<g>
</g>
<g>
</g>
<g>
</g>
<g>
</g>
<g>
</g>
</svg>
