<?xml version="1.0" encoding="iso-8859-1"?>
<!-- Generator: Adobe Illustrator 16.0.0, SVG Export Plug-In . SVG Version: 6.00 Build 0)  -->
<!DOCTYPE svg PUBLIC "-//W3C//DTD SVG 1.1//EN" "http://www.w3.org/Graphics/SVG/1.1/DTD/svg11.dtd">
<svg version="1.1" id="Capa_1" xmlns="http://www.w3.org/2000/svg" xmlns:xlink="http://www.w3.org/1999/xlink" x="0px" y="0px"
	 width="38.086px" height="38.086px" viewBox="0 0 38.086 38.086" style="enable-background:new 0 0 38.086 38.086;"
	 xml:space="preserve">
<g>
	<path d="M28.453,14.074C28.453,6.313,22.138,0,14.379,0C6.618,0,0.305,6.313,0.305,14.074c0,7.761,6.312,14.072,14.074,14.072
		C22.138,28.146,28.453,21.833,28.453,14.074z M14.379,24.613c-5.812,0-10.54-4.729-10.54-10.54c0-5.812,4.729-10.54,10.54-10.54
		c5.811,0,10.541,4.728,10.541,10.54C24.918,19.885,20.191,24.613,14.379,24.613z M37.781,34.975l-3.113,3.111L23.856,27.275
		l3.112-3.111L37.781,34.975z M11.225,19.87c-2.301-1.283-3.595-3.487-3.882-6.061c-0.113-1.018,0.938-1.875,1.875-1.875
		c1.107,0,1.762,0.859,1.875,1.875c-0.089-0.796,0.062,0.263,0.129,0.495c0.119,0.419,0.249,0.81,0.506,1.169
		c0.389,0.543,0.831,0.847,1.389,1.158C15.229,17.808,13.339,21.047,11.225,19.87z M16.119,11.049c-1.065-0.544-2.376-0.544-3.44,0
		c-2.149,1.097-4.047-2.138-1.894-3.238c2.347-1.198,4.88-1.197,7.227,0C20.164,8.911,18.267,12.146,16.119,11.049z M21.422,14.648
		c-0.098,2.615-1.365,4.831-3.542,6.269c-2.024,1.338-3.9-1.911-1.894-3.237c0.053-0.035,0.105-0.07,0.156-0.108
		c0.028-0.021,0.04-0.029,0.057-0.041c0.029-0.028,0.066-0.062,0.122-0.113c0.344-0.31,0.697-0.629,0.912-1.046
		c0.334-0.647,0.417-1.175,0.438-1.723C17.762,12.238,21.512,12.229,21.422,14.648z"/>
</g>
<g>
</g>
<g>
</g>
<g>
</g>
<g>
</g>
<g>
</g>
<g>
</g>
<g>
</g>
<g>
</g>
<g>
</g>
<g>
</g>
<g>
</g>
<g>
</g>
<g>
</g>
<g>
</g>
<g>
</g>
</svg>
